<svg width="19" height="18" viewBox="0 0 19 18" fill="none" xmlns="http://www.w3.org/2000/svg"><g clip-path="url(#a)"><path d="M1.543 15h15m-1.5-6.41v6.411h-4.5v-3a1.5 1.5 0 0 0-3 0v3h-4.5V8.59c0-.4 0-.601.049-.788a1.5 1.5 0 0 1 .21-.463c.108-.16.259-.291.56-.555l3.6-3.15c.56-.49.84-.735 1.155-.828.278-.082.574-.082.852 0 .315.093.595.338 1.155.828l3.6 3.15c.301.264.452.396.56.555a1.5 1.5 0 0 1 .21.463c.049.187.049.387.049.788Z" stroke="#7A8C6D" stroke-width="1.5" stroke-linecap="round" stroke-linejoin="round"/></g><defs><clipPath id="a"><path fill="#fff" transform="translate(.043)" d="M0 0h18v18H0z"/></clipPath></defs></svg>