<svg width="60" height="56" viewBox="0 0 60 56" fill="none" xmlns="http://www.w3.org/2000/svg"><g clip-path="url(#a)" fill="#fff"><path d="M37.817 32.533c-.02-.414-.037-.829-.043-1.244-.01-.745.007-1.491-.046-2.239-.029-.406-.043-.813-.07-1.22a6.132 6.132 0 0 0-.057-.549 9.58 9.58 0 0 0-.338-1.387c-.155-.5-.33-.991-.581-1.453a14.372 14.372 0 0 0-1.046-1.607c-.228-.311-.453-.624-.683-.935a.29.29 0 0 0-.1-.09.154.154 0 0 1-.082-.127c-.047-.287-.128-.568-.156-.859-.028-.29-.072-.578-.063-.872.007-.199.004-.4-.008-.599a60.665 60.665 0 0 0-.1-1.284c-.049-.549-.07-1.102-.166-1.649a8.952 8.952 0 0 0-.195-.924c-.118-.413-.261-.818-.396-1.225-.05-.153-.128-.3-.153-.457-.039-.23-.123-.443-.198-.66a7.907 7.907 0 0 0-.384-.96c-.059-.117-.128-.23-.18-.349a1.33 1.33 0 0 0-.17-.298c-.1-.127-.193-.26-.291-.388a.38.38 0 0 0-.098-.096c-.233-.142-.422-.338-.622-.517-.16-.145-.304-.306-.488-.424-.097-.063-.187-.137-.278-.208a.047.047 0 0 1-.007-.042c.004-.013.02-.03.03-.03a.77.77 0 0 1 .185.005c.157.034.312.074.466.118a3.1 3.1 0 0 0 .539.11 6.32 6.32 0 0 1 1.047.205c.171.05.348.082.526.093.225.01.45.026.674.042.264.017.528.026.79.053.231.03.465.024.694-.02a.373.373 0 0 0 .042-.015c-.019-.012-.037-.034-.057-.035a1.257 1.257 0 0 1-.524-.177.763.763 0 0 0-.085-.037c-.346-.137-.694-.269-1.036-.414a5.513 5.513 0 0 0-.862-.266c-.346-.085-.693-.163-1.039-.247-.045-.01-.102-.013-.119-.074a.831.831 0 0 1 .146-.04.974.974 0 0 1 .112-.005c.298-.022.6-.062.902-.068.224-.001.447-.018.668-.052.214-.038.431-.052.646-.079.07-.007.137-.022.204-.042.205-.067.41-.138.614-.211.13-.048.259-.103.387-.157.014-.006.023-.033.026-.052 0-.008-.02-.025-.032-.028a.74.74 0 0 0-.114-.016l-.881-.048c-.387-.02-.775-.03-1.16-.084-.214-.03-.432-.042-.648-.057-.27-.02-.541-.05-.811-.055a8.521 8.521 0 0 1-1.11-.12c-.014.042-.027.084-.043.126a.775.775 0 0 1-.037.073c.225-.004.45.01.673.043.107.013.215.018.324.016.215-.007.431.021.648-.008.064-.008.134.03.203.04a14.096 14.096 0 0 0 .688.095.232.232 0 0 1 .178.084c.06.074.167.067.26.08a.136.136 0 0 1 .038.02.156.156 0 0 1-.042.023.42.42 0 0 1-.07.002h-.186a.752.752 0 0 0-.096.007c-.034.016-.034.037.103.036.023 0 .046.002.07.006a.2.2 0 0 1 .042.017c-.014.01-.028.024-.043.027-.03.005-.062 0-.093.005a.363.363 0 0 0-.07.014c-.054.007-.032.054.073.052.008 0 .016.002.022.007.01.01.023.02.025.032.002.013-.015.026-.024.027-.176.02-.353.038-.53.055-.092.01-.185.022-.277.027-.162.01-.325.022-.487.019a18.114 18.114 0 0 1-.882-.034 2.31 2.31 0 0 1-.364-.07.697.697 0 0 1-.32-.18.642.642 0 0 0-.142.276c.348.1.693.211 1.045.296.17.04.334.108.512.129.167.019.326.084.494.111.128.02.246.081.377.092a.129.129 0 0 1 .062.03c.107.074.224.132.348.173.063.024.058.05-.016.105a.447.447 0 0 0-.104-.042 2.008 2.008 0 0 0-.232-.008c-.014 0-.028.022-.042.034.017.012.034.034.051.035.108.003.216 0 .324 0 .022.008.042.02.06.034.035.035.019.105-.024.109a.528.528 0 0 1-.139 0 3.771 3.771 0 0 1-.272-.057c-.073-.018-.143-.055-.216.012-.02.018-.074.008-.11 0-.129-.023-.257-.063-.388-.072a4.737 4.737 0 0 1-.64-.103 7.891 7.891 0 0 1-.878-.219 2.878 2.878 0 0 1-.543-.256c-.135.073-.251.178-.397.231-.174.064-.35.122-.525.183a.085.085 0 0 1-.023.003c-.388.014-.776.016-1.143-.135-.106-.042-.2-.117-.3-.175-.038-.023-.08-.043-.12-.062l-1.14.22a1.47 1.47 0 0 1-.161.018c-.224.018-.449.026-.671.054-.192.025-.38.078-.57.11-.122.021-.245.03-.368.04-.01 0-.03-.017-.03-.028-.003-.012.012-.026.024-.033a.118.118 0 0 1 .043-.01l.164-.022-.162-.012h-.022c-.077-.008-.16.034-.23-.029.073-.024.143-.052.217-.071a.789.789 0 0 1 .138-.015h.067c-.023-.005-.046-.01-.068-.013-.039-.006-.086 0-.112-.021-.027-.021-.01-.093-.085-.077-.053.012-.107.017-.16.024-.085.011-.17.023-.254.032a.047.047 0 0 1-.036-.025c-.005-.011-.002-.037.006-.042.085-.05.168-.117.262-.141.185-.049.369-.109.564-.123.168-.012.332-.064.5-.095.234-.045.448-.154.678-.211.15-.038.277-.127.43-.158.063-.013.122-.063.177-.104.062-.046.118-.1.176-.15l-.118-.315a2.057 2.057 0 0 0-.204.045 3.515 3.515 0 0 1-1.026.165c-.186.005-.372.004-.558.004-.06 0-.12.003-.173-.045-.03-.025-.086-.02-.128-.031-.029-.007-.076-.01-.082-.026-.045-.126-.15-.084-.236-.084-.087 0-.17.002-.253.005a.396.396 0 0 0-.066.012c.018-.006.037-.01.055-.019.15-.073.313-.07.474-.072.007 0 .014-.007.02-.01-.007-.009-.015-.022-.024-.024a.38.38 0 0 0-.069-.004c-.054 0-.109.006-.162 0a.355.355 0 0 1-.09-.032c.03-.021.058-.056.091-.061.1-.016.2-.018.299-.028.01 0 .02-.017.03-.025-.012-.006-.025-.018-.036-.017-.077.006-.153.017-.23.021-.013 0-.032-.027-.042-.045a.042.042 0 0 1 .012-.04.336.336 0 0 1 .098-.056 8.781 8.781 0 0 1 1.195-.254c.256-.037.51-.023.763-.053.115-.014.228-.04.345-.013l.02-.174c-.146.01-.293.017-.44.033-.138.014-.275.042-.414.056a10.45 10.45 0 0 0-1.097.184 6.51 6.51 0 0 0-1.646.55 2.613 2.613 0 0 1-.637.21c-.086.016-.169.028-.252.047a.367.367 0 0 0-.103.047.047.047 0 0 0-.016.04.044.044 0 0 0 .013.015.043.043 0 0 0 .018.009c.285.019.568.038.853 0 .193-.026.389-.026.581 0 .146.016.292.024.439.023.45.002.901.006 1.352 0 .146.005.293 0 .439-.019.213-.035.43-.019.637-.096.014-.005.046.015.055.031a.07.07 0 0 1-.007.063.34.34 0 0 1-.101.093 9.008 9.008 0 0 1-.4.183 4.473 4.473 0 0 1-1.162.313c-.322.045-.64.112-.955.187-.202.048-.404.1-.57.242-.075.064-.173.102-.259.155-.068.036-.132.08-.19.13-.153.152-.3.311-.444.468a.043.043 0 0 0-.009.02c0 .008 0 .016.003.023a.048.048 0 0 0 .04.01c.173-.038.346-.08.52-.118.399-.088.815-.085 1.209-.202.256-.018.498-.11.756-.095.021 0 .043-.014.066-.019.272-.054.547-.095.824-.12.153-.013.307.02.461-.025.155-.045.326.008.48-.062a.163.163 0 0 1 .093.002c.017.003.032.023.047.035-.009.012-.015.027-.027.033-.116.062-.242.11-.348.186-.222.154-.436.32-.64.497-.277.246-.535.514-.808.765a4.997 4.997 0 0 0-.516.53c-.078.097-.148.198-.23.29-.256.292-.453.624-.657.948-.25.407-.466.832-.647 1.272-.078.184-.148.37-.224.554-.149.354-.335.692-.45 1.06-.04.14-.086.278-.14.414-.102.234-.167.478-.24.718-.078.257-.159.513-.237.77-.046.154-.089.309-.134.464-.032.11-.067.22-.095.331-.025.097-.036.196-.063.292-.085.312-.128.634-.176.95-.07.478-.116.96-.213 1.433a3.11 3.11 0 0 1-.125.442l-.093.26c-.131.37-.267.737-.391 1.108-.103.305-.251.596-.316.914-.03.15-.069.299-.108.447-.077.289-.147.58-.238.865-.124.395-.225.797-.335 1.197a2.323 2.323 0 0 0-.046.202 3.684 3.684 0 0 1-.128.464 3.43 3.43 0 0 0-.149.548c-.042.298-.125.585-.2.874a3.929 3.929 0 0 0-.134.654c-.042.507-.092 1.01-.085 1.52.005.285.035.569.025.852-.02.553-.061 1.105-.094 1.657 0 .023-.006.046-.01.069-.041.25-.068.502-.08.755 0 .092-.014.183-.022.276-.02.213-.082.422-.077.64.01.253-.011.507-.066.755a.51.51 0 0 0-.003.115c0 .154-.004.307-.005.46 0 .277-.016.554.024.83a.552.552 0 0 1 .003.114c-.022.321-.015.645-.074.963-.045.242-.049.49-.134.724-.036.098-.04.206-.057.31.013 0 .028.002.034-.005.057-.062.111-.126.167-.191.182-.208.334-.445.574-.6a.3.3 0 0 0 .032-.033c.122-.117.248-.232.368-.352.064-.066.12-.14.178-.211.042-.054.081-.113.128-.164.205-.22.424-.427.575-.692.069-.12.163-.225.23-.346.172-.31.337-.624.505-.936.12-.223.243-.445.361-.67.148-.278.306-.552.435-.84.17-.38.28-.781.376-1.184.094-.396.2-.789.26-1.192.055-.364.118-.727.167-1.092.05-.373.106-.744.17-1.114.043-.242.108-.48.117-.727.009-.238.021-.476.047-.713.05-.468.042-.937.024-1.405-.015-.4-.048-.796-.067-1.195-.021-.445-.043-.89-.053-1.335a10.48 10.48 0 0 0-.148-1.605 2.984 2.984 0 0 1-.05-.341c-.007-.122.003-.245.005-.368 0-.154-.003-.308.006-.461.023-.453.102-.9.158-1.352.033-.266.077-.53.124-.794.04-.22.086-.437.14-.653.069-.283.151-.563.217-.845a9.5 9.5 0 0 1 .31-1.01c.075-.212.168-.413.257-.617.102-.232.201-.464.312-.692.101-.208.226-.404.323-.613.076-.16.17-.31.278-.45.19-.254.38-.506.571-.757.19-.251.38-.504.568-.758a.086.086 0 0 1 .034-.03.052.052 0 0 1 .037.006c.008.053.012.107.012.16-.004.17.01.338.04.503.034.166.049.334.046.503-.006.216.043.427.036.642-.004.114.015.23.022.344.004.054-.002.108.006.161.043.296.08.594.05.895a.343.343 0 0 0 .012.114c.042.174.028.35.008.525-.02.183-.048.366-.06.55-.014.206.01.416-.025.618a2.594 2.594 0 0 0-.01.614c.016.238.01.476.027.713.008.207.029.414.061.619.074.367.113.74.117 1.115 0 .207.01.415.024.622.015.207.055.411.06.618.01.414.004.83 0 1.245 0 .107-.018.214-.025.32-.009.115-.013.23-.021.344-.008.107-.022.214-.03.32-.013.17-.014.338-.035.505-.043.343-.096.684-.145 1.026-.014.091-.02.184-.043.273-.053.224-.11.447-.167.67-.08.313-.157.625-.24.937-.086.326-.181.65-.266.977-.154.588-.225 1.19-.272 1.795-.02.267-.032.536-.045.802-.003.062 0 .123.009.184.042.341.105.68.12 1.025.01.237.029.475.062.71.043.344.058.69.042 1.036-.012.406-.036.813-.06 1.22-.009.16-.023.32-.045.48-.035.258-.077.515-.119.773a2.53 2.53 0 0 1-.056.27 7.13 7.13 0 0 1-.275.805c-.06.141-.132.278-.192.42-.135.32-.355.599-.636.806-.049.038-.1.074-.15.109-.063.042-.08.11-.098.176a.055.055 0 0 0 .042.07c.118.02.23.02.327-.07.079-.072.17-.134.253-.202a.822.822 0 0 0 .083-.076c.278-.296.452-.66.618-1.023.155-.334.273-.685.35-1.044.063-.3.1-.604.145-.907.016-.106.026-.211.043-.32.031-.22.022-.441.04-.663.016-.206 0-.416.028-.62.031-.24.02-.477.01-.714-.015-.406-.095-.809-.085-1.217a.663.663 0 0 0-.012-.09c-.02-.16-.047-.32-.06-.48-.018-.253-.054-.503-.028-.756a.506.506 0 0 0-.004-.114 1.86 1.86 0 0 1 .009-.595c.034-.181.056-.365.066-.55.023-.283.062-.565.118-.844.028-.157.078-.311.114-.468.036-.157.063-.316.1-.473.042-.194.092-.388.144-.58.068-.253.11-.509.192-.76.134-.4.224-.815.27-1.234a7.11 7.11 0 0 1 .093-.638 2.13 2.13 0 0 0 .043-.411c0-.092 0-.184.009-.276.025-.321.07-.642.077-.962.01-.53.014-1.059-.037-1.588-.031-.328-.039-.659-.067-.988-.022-.26-.03-.52-.09-.775-.069-.3-.1-.608-.095-.915.002-.185.01-.37 0-.554-.029-.546.042-1.088.05-1.632a.551.551 0 0 1 .022-.136c.046-.187.058-.38.035-.572-.01-.122-.012-.245-.017-.367 0-.062.004-.124 0-.185-.02-.213-.043-.426-.066-.64-.011-.1-.006-.113.107-.165a.17.17 0 0 0 .114-.18.852.852 0 0 1-.01-.113c0-.012.032-.025.05-.029.01 0 .035.02.033.026-.046.169.033.317.069.472a.135.135 0 0 0 .159.102.136.136 0 0 0 .062-.03.338.338 0 0 0 .076-.084.688.688 0 0 0 .046-.1c.01.037.022.074.03.111.008.038.009.077.02.113a.117.117 0 0 0 .056.071.116.116 0 0 0 .091.009.4.4 0 0 0 .135-.085c.026-.024.03-.07.053-.101.021-.032.05-.076.074-.075.058.003.022.056.027.088.005.032 0 .062.005.092.006.049.045.074.1.073.07 0 .14-.02.198-.06.033-.021.058-.007.074.024.02.033.036.069.048.105.026.127.079.214.231.184.008-.001.016 0 .023.002a.053.053 0 0 1 .02.013c.067.09.145.063.228.027a.09.09 0 0 1 .081.02.24.24 0 0 0 .28.111c.026-.005.057.022.086.03.117.032.247-.01.236-.165 0-.017-.024-.054.017-.056.012 0 .033.032.04.053.02.066.032.134.05.2.019.067.026.142.103.17.088.033.146-.017.198-.082a.043.043 0 0 1 .038-.003c.012.016.03.045.023.056-.11.165-.136.357-.18.543-.029.127-.052.256-.079.384a3.493 3.493 0 0 0-.091.683c-.003.214-.01.428 0 .644.02.49.018.98.042 1.471.005.092.01.184.01.276 0 .246-.01.492-.006.737.006.322.017.644.016.966 0 .238.017.476.029.713.018.368.03.737.061 1.104.036.436.091.87.128 1.306.02.23.029.46.082.685.01.053.013.107.01.161-.001.31.032.619.1.921.04.196.072.393.092.592.016.169.016.338.043.504.057.372.091.748.161 1.117.088.467.16.937.233 1.407a2.422 2.422 0 0 1-.016.708c-.01.085-.02.169-.039.249-.088.38-.18.76-.268 1.142-.024.105-.035.211-.052.318-.062.393-.178.777-.225 1.173-.036.305-.08.609-.12.913l-.07.55-.075.639c-.018.16-.038.32-.055.48-.015.136-.033.273-.039.41-.008.161.017.327-.011.484-.045.253-.031.506-.018.76.013.3.108.592.273.845.163.245.378.445.605.63a.425.425 0 0 0 .224.108c.076.005.158-.05.236-.08a.275.275 0 0 0 .043-.02.067.067 0 0 0 .034-.088.068.068 0 0 0-.022-.026.4.4 0 0 0-.119-.068c-.108-.042-.21-.1-.302-.169a1.6 1.6 0 0 1-.353-.364 1.496 1.496 0 0 1-.338-.982c.011-.368.027-.737.043-1.105a4.3 4.3 0 0 1 .027-.32l.211-1.692c.014-.114.02-.23.037-.343.04-.25.089-.499.124-.75.02-.144.07-.281.095-.424.049-.264.079-.532.135-.794.07-.329.156-.655.238-.981.038-.141.058-.286.06-.432.002-.091.012-.183.029-.273.032-.198.036-.399.011-.598-.032-.287-.096-.573-.145-.859-.03-.173-.064-.346-.09-.52-.032-.22-.06-.44-.114-.656-.077-.314-.091-.637-.114-.959a1.84 1.84 0 0 0-.021-.205 8.156 8.156 0 0 1-.163-1.37c0-.053-.006-.107-.01-.16l-.04-.482a6.535 6.535 0 0 0-.02-.183c-.046-.388-.1-.776-.136-1.166-.032-.337-.085-.671-.061-1.011.009-.138.028-.275.029-.413.003-.73.003-1.46 0-2.191 0-.123-.023-.245-.025-.367-.006-.23-.01-.46-.059-.687a.72.72 0 0 1 0-.137 3.016 3.016 0 0 0-.033-.412 2.817 2.817 0 0 1-.01-.78c.034-.251.085-.5.138-.747.048-.24.122-.476.221-.7.186-.396.381-.788.572-1.183a.186.186 0 0 1 .013-.019c.164-.242.327-.486.494-.726.085-.122.101-.12.205-.009.06.06.116.125.167.193.238.35.473.703.707 1.056.036.06.07.12.099.183.138.27.207.56.278.852.085.344.116.695.17 1.044.025.16.048.32.058.48.031.482.057.965.082 1.448.01.2.005.4.025.598.035.343.085.684.128 1.026l.155 1.258a.656.656 0 0 1 .004.137 5.561 5.561 0 0 1-.213 1.13c-.041.116-.066.237-.075.36-.008.422-.018.844.006 1.267.021.374.085.747.133 1.12.02.152.043.304.066.456.035.243.085.486.103.73.021.36.083.716.186 1.063.017.05.028.103.04.156.077.352.127.71.252 1.051.01.021.016.044.02.066.027.323.195.616.213.94.001.009.003.016.006.023.06.135.08.28.11.423.009.052.023.104.042.154.148.38.258.772.328 1.173.09.468.233.925.427 1.36.112.245.205.498.279.757.123.47.316.914.488 1.366.057.15.113.303.178.45.157.359.316.718.48 1.071.065.132.136.26.214.383.131.217.269.43.35.675.021.05.047.097.078.14.177.28.316.583.415.898.03.095.065.189.105.28a.252.252 0 0 0 .157.16h.062c-.01-.028-.023-.056-.032-.086-.098-.295-.158-.591-.043-.897.028-.077.024-.166.028-.25.008-.154.01-.308.018-.462.022-.383.055-.766.07-1.15.018-.453.026-.907.031-1.36.012-.954-.021-1.906-.152-2.853a4.505 4.505 0 0 1-.054-.48ZM24.854 14.292a1.022 1.022 0 0 1-.038.098c-.18.38-.404.736-.568 1.124a.716.716 0 0 1-.09.15c-.17.228-.246.5-.348.758a7.609 7.609 0 0 0-.247.715c-.173.607-.356 1.212-.462 1.836-.037.218-.103.432-.154.648-.052.223-.101.446-.152.67-.007.03-.016.056-.06.051-.063-.007-.09-.027-.088-.08 0-.046.01-.091.012-.137a.439.439 0 0 0-.01-.114.11.11 0 0 0-.096-.089.106.106 0 0 0-.12.052 2.01 2.01 0 0 0-.062.195 1.745 1.745 0 0 1-.08.214c-.024.05-.069.066-.135.055-.103-.018-.133-.05-.118-.157.04-.264.037-.536.141-.788.054-.444.197-.87.28-1.31.024-.114.057-.227.1-.335.247-.65.444-1.317.64-1.983.134-.452.306-.893.515-1.316.035-.072.065-.146.089-.223.091-.261.212-.512.36-.747.027-.052.17-.304.178-.305.008 0-.133.294-.137.306a.095.095 0 0 0 .022.094c.072.107.17.123.276.047.017-.012.037-.022.055-.033l.033-.042c.03.023.013.046-.003.068l-.054.101c-.057.11-.03.195.081.242.02.008.05.003.067.015.047.033.093.068.139.102.017.014.03.032.037.053a.102.102 0 0 1-.003.065Zm9.617 7.58a.126.126 0 0 1-.1-.114 1.63 1.63 0 0 1-.02-.205.139.139 0 0 0-.124-.144.469.469 0 0 0-.114-.022.134.134 0 0 0-.077.037c-.015.014-.014.042-.027.063-.035.056-.098.067-.133.02-.06-.08-.128-.153-.158-.253s-.07-.188-.098-.283c-.04-.138-.08-.27-.064-.423.018-.164-.015-.338-.042-.501a3.803 3.803 0 0 1-.043-.689c.004-.239-.031-.474-.05-.71-.024-.322-.061-.642-.078-.963a9.262 9.262 0 0 0-.156-1.162c-.079-.431-.193-.854-.407-1.242 0-.004.002-.008.005-.011a.022.022 0 0 1 .01-.008.182.182 0 0 0 .17.057.047.047 0 0 0 .021-.007.048.048 0 0 0 .019-.058c-.018-.034-.04-.066-.059-.099a.065.065 0 0 1 .014-.084.067.067 0 0 1 .083-.017c.063.028.128.054.194.075.03.006.06.005.09-.004.033-.007.056-.03.043-.065-.023-.066-.05-.13-.073-.195a.08.08 0 0 1 .027-.101c.034-.024.089 0 .115.046.027.047.054.11.083.163.004.006.028.01.038.004.01-.006.014-.027.025-.034.026-.017.018.013.02.02.039.115.08.23.112.348.042.155.081.311.117.468.05.217.102.434.143.652.048.256.085.515.128.772.004.023.009.046.01.068.022.322.043.644.066.965.014.191.026.383.054.573.068.457.075.918.072 1.378-.004.3.023.6.083.895.022.105.03.212.05.319.029.142.063.284.094.426.005.028-.032.053-.063.045ZM18.566 29.72c0-.176.004-.352-.006-.527a80.076 80.076 0 0 0-.081-1.24 13.597 13.597 0 0 0-.052-.55c-.026-.236-.06-.472-.082-.708-.02-.207-.015-.416-.045-.62a12.83 12.83 0 0 0-.165-.883 2.407 2.407 0 0 1-.072-.544c0-.138-.01-.276-.03-.413a4.827 4.827 0 0 1-.056-.665 1.985 1.985 0 0 0-.03-.32c-.05-.297-.1-.592-.161-.884a4.383 4.383 0 0 0-.139-.508 2.337 2.337 0 0 1-.105-.376c-.015-.09-.047-.178-.07-.268-.053-.2-.109-.4-.155-.601-.069-.3-.12-.601-.222-.894-.06-.172-.08-.359-.117-.539a19.12 19.12 0 0 1-.072-.385l-.07-.408c-.086-.483-.244-.953-.238-1.451.003-.222-.017-.445-.026-.668-.015-.353-.027-.706-.043-1.058-.002-.046-.015-.092-.02-.137l-.063-.64c-.004-.039.005-.077.005-.116v-.274a6.935 6.935 0 0 0-.053-.735c-.037-.304-.11-.605-.115-.913a2.836 2.836 0 0 0-.137-.745c-.076-.258-.198-.499-.307-.745a.736.736 0 0 0-.184-.262 1.24 1.24 0 0 1-.113-.116c-.33-.374-.74-.627-1.206-.799a98.134 98.134 0 0 0-.587-.216 1.9 1.9 0 0 1-.806.439c-.181.04-.366.062-.552.065-.17.007-.348.018-.51-.02-.186-.043-.36-.141-.536-.22a1.484 1.484 0 0 1-.158-.092c-.167.06-.341.105-.501.183-.362.179-.7.397-.98.692a1.323 1.323 0 0 1-.103.094 4.701 4.701 0 0 0-.658.682c-.098.127-.213.244-.318.368-.14.163-.312.302-.41.499-.138.278-.327.522-.519.764a3.376 3.376 0 0 0-.314.485c-.064.122-.137.24-.218.353a3.288 3.288 0 0 0-.52.999 1.283 1.283 0 0 1-.06.15 7.64 7.64 0 0 0-.239.623c-.088.278-.194.55-.29.825-.07.203-.145.405-.203.612-.064.229-.1.464-.17.692-.12.39-.2.79-.287 1.187a4.393 4.393 0 0 0-.122.818c-.008.278-.094.541-.202.8-.182.431-.354.867-.53 1.301-.047.114-.093.227-.144.338-.15.329-.347.633-.444.988a.67.67 0 0 1-.058.127 6.525 6.525 0 0 0-.415.949c-.061.181-.125.363-.187.544-.05.146-.102.29-.153.435-.042.116-.078.233-.123.348-.135.351-.317.681-.457 1.032-.299.749-.633 1.482-.89 2.248-.175.525-.33 1.056-.488 1.585-.043.14-.099.274-.168.403a5.713 5.713 0 0 0-.253.542c-.088.22-.15.452-.242.67-.107.272-.193.55-.256.835-.117.481-.151.971-.196 1.46-.035.38-.043.765-.064 1.148-.022.382.038.75.067 1.126.008.099.032.198.03.295 0 .285.043.569.126.841.05.154.085.312.105.472.04.388.171.747.328 1.097.006.015.014.028.021.043.013-.013.031-.024.039-.04.136-.285.31-.55.519-.79.166-.192.33-.387.494-.581a.78.78 0 0 0 .097-.127c.115-.218.227-.437.338-.657.066-.13.122-.266.193-.394.229-.41.425-.838.587-1.278.098-.267.203-.531.314-.793.159-.367.274-.75.344-1.144a2.39 2.39 0 0 1 .206-.61c.098-.208.182-.423.25-.643.146-.486.213-.99.293-1.49.055-.333.086-.669.142-1.002.04-.226.06-.456.089-.685.024-.19.046-.38.076-.57.033-.205.07-.409.111-.612.054-.27.095-.544.198-.803a5.59 5.59 0 0 0 .252-.813c.025-.112.061-.222.085-.334.054-.24.105-.48.158-.718.07-.323.068-.657.177-.972a26.656 26.656 0 0 1 .324-1.812c.1-.44.188-.886.29-1.326.094-.403.184-.808.28-1.212.054-.232.116-.462.176-.692.036-.14.078-.28.111-.423.08-.337.151-.673.275-.998.09-.236.16-.48.235-.723.186-.599.488-1.144.808-1.68a.79.79 0 0 1 .072-.09c.226-.274.481-.522.701-.803.068-.085.115-.199.23-.244.018.105.037.21.054.316.018.083.029.166.033.25-.003.183-.02.367-.027.551-.007.208 0 .417-.019.623-.016.169-.016.337-.016.506-.003.307-.012.615-.023.922-.006.154-.027.307-.036.46-.023.368-.011.737-.029 1.106-.028.62-.055 1.242-.103 1.862-.036.46-.061.92-.1 1.38-.018.213-.056.426-.085.639-.035.258-.072.517-.106.775-.02.145-.033.29-.053.434-.027.197-.057.394-.089.591-.053.333-.102.667-.165.998-.071.37-.166.734-.232 1.104a9.573 9.573 0 0 1-.134.63c-.118.476-.277.943-.376 1.425-.093.45-.206.897-.31 1.346-.037.156-.086.311-.109.47-.049.358-.134.709-.199 1.064-.05.27-.11.54-.117.817-.005.184-.014.368-.007.552.015.411.147.8.281 1.182.08.207.117.428.108.649-.005.069-.008.138-.014.206-.01.13-.03.26-.03.39 0 .231-.013.462-.037.691-.052.45-.1.902-.156 1.352a5.29 5.29 0 0 1-.221 1.01c-.029.087-.059.174-.085.261-.033.102-.055.209-.097.306a2.746 2.746 0 0 1-.373.663c-.02.031-.007.066.026.07.046.002.093 0 .14.004.097.012.155-.026.2-.116.14-.275.249-.561.363-.844.057-.126.106-.255.147-.386.088-.326.15-.658.187-.993.03-.275.059-.55.09-.824.01-.085.03-.167.038-.25.024-.268.039-.537.067-.803a5.107 5.107 0 0 0-.006-1.104.88.88 0 0 0-.049-.247c-.15-.341-.18-.713-.28-1.067a.711.711 0 0 1-.03-.227c.015-.269.027-.539.063-.803.033-.242.1-.48.144-.722.046-.249.082-.5.126-.75.052-.295.124-.585.2-.875.085-.326.147-.658.22-.988.025-.113.047-.226.077-.338.095-.348.194-.695.288-1.043.034-.127.063-.254.088-.38.064-.324.115-.65.189-.972.098-.427.186-.856.248-1.29.043-.288.08-.578.116-.867.009-.069.006-.138.01-.207.005-.069.007-.138.016-.206.039-.282.076-.563.122-.845.038-.235.072-.47.09-.709.017-.221.061-.44.078-.663.037-.467.072-.935.09-1.403.026-.63.067-1.258.06-1.89-.004-.268.017-.537.024-.806.007-.246.022-.492.013-.737-.005-.132.012-.24.11-.334a.219.219 0 0 0 .049-.098.704.704 0 0 0 .013-.113c.024.037.046.076.065.115.012.028.008.061.018.09.003.007.033.01.049.006.042-.01.075-.006.094.037.043.092.052.028.076-.012a.036.036 0 0 1 .015-.017.036.036 0 0 1 .042.005c.005.006.009.013.01.02.007.021.004.046.012.067a.043.043 0 0 0 .03.024c.009 0 .024-.015.027-.026a.228.228 0 0 0 .007-.069c-.005-.106.072-.163.14-.226.005-.005.023 0 .034.005.003 0 .003.014.004.022.017.1.017.098.12.122.012.002.023.019.03.032.043.068.027 0 .035-.014.008-.014.02-.042.035-.052.023-.015.052.014.051.054 0 .04-.008.092-.01.137v.089a.098.098 0 0 0 .048-.096 1.072 1.072 0 0 1 .028-.205.082.082 0 0 1 .046-.042c.043-.008.048.03.05.06.002.06 0 .122 0 .184 0 .053 0 .107.006.16.002.02.012.052.043.035.07-.036.13-.052.168.04 0 .002.034 0 .035-.007a.767.767 0 0 0 .019-.089l.056-.296c0-.006.01-.012.013-.019.01.01.025.018.028.03a.883.883 0 0 1 .018.11c.008.085.014.17.023.254.005.046.043.063.08.07.095.02.148-.008.177-.099a.67.67 0 0 0 .028-.156c.004-.054-.004-.108 0-.162 0-.017.018-.034.028-.05.01.011.016.025.02.04.016.12.028.243.044.365.007.06.038.074.097.063.09-.017.128-.076.147-.157.01-.045.014-.091.026-.135.008-.03.123-.076.141-.056a.137.137 0 0 1 .023.082c0 .062-.005.123-.003.185 0 .015.016.03.025.046.053-.06.16.03.2-.07.004-.012.016-.02.025-.03l.05.046a.578.578 0 0 0 .03-.08.718.718 0 0 0 .022-.135c.005-.13.005-.259.01-.39 0-.016.016-.034.024-.051.015.016.04.03.043.049.017.09.03.18.038.271.005.077-.01.155 0 .23.004.04.027.004.038-.007s.022-.032.03-.031c.042.008.085.021.13.033.013-.05.025-.098.04-.147a.147.147 0 0 1 .02-.04.023.023 0 0 1 .02-.007.073.073 0 0 1 .037.017.082.082 0 0 1 .014.042c.005.03.007.061.01.092l.025-.09c.023-.081.043-.162.069-.242.005-.015.036-.024.057-.03.006 0 .026.02.026.032 0 .046-.005.092-.004.138 0 .053.008.107.012.16.011-.049.023-.097.033-.146.014-.068.024-.136.038-.203a.116.116 0 0 1 .026-.062.155.155 0 0 1 .08-.043c.047-.005.036.04.037.065.003.084 0 .169.002.253a.198.198 0 0 0 .022.063c.01-.018.026-.036.027-.054.003-.093.002-.185.006-.277a.843.843 0 0 1 .024-.18c.005-.018.05-.03.077-.033.01 0 .037.03.037.043-.003.076-.012.151-.02.227-.006.06-.015.121-.021.182 0 .012-.014.042.01.038a.31.31 0 0 0 .02-.04c.013-.047.056-.354.101-.46a.033.033 0 0 1 .018-.014c.01.008.024.017.025.027l.004.112c-.019.08-.054.275-.054.275-.003.026.02.034.024.021.005-.013.083-.21.108-.314l.027.066-.03.117.003.006c.055.009.06.053.072.094-.074.338-.143.676-.222 1.014-.128.538-.213 1.083-.36 1.617-.136.504-.239 1.016-.343 1.528-.068.33-.125.663-.161.998-.043.412-.099.825-.054 1.24a1.09 1.09 0 0 1 0 .185c-.02.314-.037.628-.06.942-.024.344-.035.69-.065 1.034-.027.296-.02.599-.023.898 0 .161.01.322.017.483l.055 1.22c.005.1.015.2.025.298.035.313.08.626.104.94.026.351.041.703.046 1.055.002.408.07.813.198 1.2a.98.98 0 0 1 .05.317c0 .077.005.154.006.23.005.392-.033.783-.112 1.167a7.62 7.62 0 0 0-.078.454c-.024.175-.039.351-.06.526-.046.38-.097.76-.141 1.144-.047.404-.104.807-.094 1.216.002.085.005.17.005.254-.002.66-.02 1.322.024 1.982.026.397-.02.8.072 1.193-.012.211.078.407.079.615 0 .047.035.063.078.063a.174.174 0 0 0 .069-.003c.023-.01.059-.035.058-.052-.018-.29-.026-.585-.066-.873a7.239 7.239 0 0 1-.043-1.15l.013-.668c0-.1-.004-.2.006-.3a1.903 1.903 0 0 0 0-.506.944.944 0 0 1 0-.184c.005-.146.013-.29.018-.437.005-.13.003-.26.014-.39.026-.314.066-.626.082-.94.013-.247.06-.488.089-.731l.104-.822c.028-.206.061-.41.086-.616.04-.32.075-.64.109-.962a.567.567 0 0 0-.011-.16c-.029-.151-.047-.304-.107-.448a.72.72 0 0 1-.047-.178 9.955 9.955 0 0 1-.105-1.19 16.354 16.354 0 0 0-.11-1.517c-.01-.092-.032-.182-.038-.274-.023-.383-.042-.767-.062-1.15-.003-.062 0-.124-.006-.185a8.879 8.879 0 0 1-.025-1.152c.007-.184 0-.37.004-.553.003-.138.015-.276.024-.413.02-.322.08-.64.064-.965-.01-.23-.007-.461.01-.692.034-.435.077-.87.126-1.305.031-.266.083-.53.123-.796.068-.456.207-.897.303-1.347.024-.113.068-.22.094-.333.05-.223.095-.449.142-.675.106-.51.2-1.023.353-1.524.101-.328.164-.668.244-1.003.032-.134.068-.268.093-.404.042-.234.068-.471.118-.704.06-.277.14-.549.21-.825.014-.057.018-.118.076-.155l.097.127c.004.006.005.014.009.021.207.373.323.78.436 1.185.086.31.153.625.27.926.04.091.069.187.086.285.057.402.092.807.106 1.213.01.345 0 .692.003 1.038 0 .215.005.43.02.645.041.521.071 1.043.059 1.566a2.7 2.7 0 0 0 .008.466c.037.253.019.506.018.76-.002.409-.092.808-.118 1.214a.24.24 0 0 1-.008.046 2.46 2.46 0 0 0-.066.57 2.54 2.54 0 0 1-.036.39c-.078.392-.121.79-.128 1.19a2.1 2.1 0 0 1-.018.229c-.038.313-.079.625-.116.937-.039.328-.046.66-.12.983a.977.977 0 0 0-.008.184 2.793 2.793 0 0 1-.052.457c-.099.458-.15.925-.153 1.394.003.107 0 .215-.009.322a10.46 10.46 0 0 0-.035 1.314c.003.268-.007.539.047.805.043.21.08.422.12.633.006.054.017.106.031.158.073.211.147.42.225.629a8.4 8.4 0 0 0 .265.637c.065.147.145.287.239.418a.899.899 0 0 1 .112.175c.113.257.297.468.463.69.114.145.21.303.286.471.094.227.206.447.334.657.122.194.22.405.378.577a7.493 7.493 0 0 0 .63 1.014c.041.056.072.119.114.173a.985.985 0 0 0 .128.132.077.077 0 0 0 .066.009c.015-.006.026-.035.028-.054a.513.513 0 0 0-.004-.092c-.031-.476-.059-.95-.014-1.427.005-.061.005-.123.006-.185 0-.3.016-.599.048-.897.036-.313.054-.628.08-.941.022-.254.052-.507.065-.758.018-.346.024-.692.034-1.037.008-.261.01-.523.022-.784.02-.422.05-.841.066-1.262.006-.262-.005-.524-.007-.785ZM7.453 16.092c-.02.033-.031.07-.049.104-.155.3-.261.62-.367.94-.096.29-.196.58-.296.869-.087.253-.15.514-.19.78-.03.2-.137.35-.247.503-.005.007-.017.007-.027.01a.216.216 0 0 1 .02-.062c.062-.188 0-.164-.016-.143a1.41 1.41 0 0 0-.116.201c-.05.097-.02.108-.09.218a.544.544 0 0 1 0 .087c-.004.028-.016.076-.026.077-.034 0-.039-.016-.039-.036h.003c0-.022 0-.044.003-.066.006-.028.095-.263.06-.275-.01-.003-.115.226-.127.244a.274.274 0 0 0-.039.08l-.005.004c-.006-.012-.017-.026-.015-.037.007-.045.018-.09.028-.134.007-.03.018-.059.022-.089 0-.009-.013-.029-.02-.029-.009 0-.026.013-.039.02a.185.185 0 0 0-.043.082c0 .006-.015.012-.024.017 0 0-.012-.01-.011-.015 0-.03.042-.124.046-.154.007-.061.076-.116.021-.184-.035.048-.071.096-.105.145a1.108 1.108 0 0 1-.043.104.647.647 0 0 1-.01-.084.206.206 0 0 1 .015-.068.196.196 0 0 0-.018-.196.184.184 0 0 1-.018-.15c.113-.634.294-1.255.446-1.88.054-.223.144-.438.22-.654.093-.26.19-.519.284-.778.005-.014.004-.03.008-.045.004-.014.085-.188.09-.196.002.014-.067.2-.067.215 0 .038-.02.097.039.09.017-.014.022-.047.029-.06.006-.014.11-.32.117-.327.003.015-.082.34-.089.347a.225.225 0 0 0-.023.102c.003.035.026.088.05.06.046-.051.177-.714.077.048.003.09.01.118.086.121.071.003.256-.319.108.085a.072.072 0 0 0-.006.044c.005.011.023.018.036.023.006.003.02 0 .022-.002a.567.567 0 0 0 .039-.08l.154-.428c.002-.006.016-.012.02-.01.009.006.023.017.022.025 0 .008-.013.027-.018.042l-.054.15a.416.416 0 0 0-.035.127c0 .067.137-.151.17-.126.008.006.05-.04.043-.009-.014.062-.083.223-.036.254.019.012.193-.335.206-.325.038.033-.165.402-.176.424Zm.298-.632c-.003.006-.068.1-.074.104a.737.737 0 0 1 .088-.21c.004-.007.012-.01.018-.014l.018.034-.05.086Zm2.604.441c0 .01-.019.02-.029.029a.186.186 0 0 1-.024-.03c-.002-.005 0-.015.004-.053 0 0 .005-.028.013-.056 0-.003.013-.005.02-.005.007 0 .017.005.017.008a.76.76 0 0 1 0 .107h-.001Zm2.348.107a.177.177 0 0 1-.021-.032 1.8 1.8 0 0 1-.075-.211.79.79 0 0 1-.01-.177c0-.008.02-.017.032-.024 0 0 .013.008.015.014l.065.253a.99.99 0 0 0-.025.12c.002.02.009.04.019.057Zm3.68 2.184c-.042.025-.02-.02-.034-.028-.013-.007-.02-.025-.03-.025-.011-.001-.027.013-.03.024-.016.051-.018.11-.045.153-.036.061-.029-.008-.039-.02-.034-.042-.045-.014-.055.017-.005.014-.004.042-.01.042l-.05-.205c-.04-.016-.041.02-.062.03a.124.124 0 0 0-.132-.034l-.049.016a.589.589 0 0 1-.03-.246 6.944 6.944 0 0 0-.01-.94c-.026-.36-.103-.713-.139-1.07a1.566 1.566 0 0 1-.016-.184c.005-.194.074-.211.204-.211.047 0 .073-.011.083-.055l.04-.18a.166.166 0 0 1 0-.041c.003-.01.013-.016.02-.024a.072.072 0 0 1 .01.02v.042a.29.29 0 0 1 .051.074c.014.053.024.107.031.162.028-.052.034-.115.092-.15.04-.025-.006-.053-.004-.079a.123.123 0 0 1 .018-.038c.013.011.038.022.039.033-.004.136.01.271.042.403.038.138.02.29.028.435.015.328.021.658.05.986.023.274.074.545.112.818.006.045.01.09.015.137.008.076-.045.106-.1.138ZM49.133 11.393a.554.554 0 0 0-.1-.05c-.058-.02-.126-.022-.171-.055-.14-.097-.269-.207-.405-.308-.05-.036-.054-.089-.073-.137l.008-.07.049.03c.036.012.073.023.109.037l.237.092a.081.081 0 0 0 .102-.033c.054-.084.02-.165-.069-.201a7.076 7.076 0 0 1-.465-.203c-.06-.029-.075-.106-.065-.162.01-.057.074-.029.116-.028.054.005.108.006.162.004a.24.24 0 0 0 .102-.046.065.065 0 0 0 .018-.091.064.064 0 0 0-.024-.022 1.213 1.213 0 0 0-.244-.067.196.196 0 0 1-.188-.169.056.056 0 0 1-.002-.028.056.056 0 0 1 .06-.048c.124-.002.248-.004.372 0a.24.24 0 0 0 .153-.042c.064-.046.064-.108-.005-.139a.387.387 0 0 0-.129-.033c-.139-.008-.279-.01-.418-.012a.584.584 0 0 1-.419-.17.13.13 0 0 1-.019-.039.208.208 0 0 1 .043-.008c.14.002.279.005.419.01.061 0 .123.006.184.006a.047.047 0 0 0 .02-.01.046.046 0 0 0 .013-.018.087.087 0 0 0-.01-.062c-.067-.076-.16-.087-.253-.101-.1-.015-.2-.025-.3-.043a.045.045 0 0 1-.037-.025.047.047 0 0 1-.005-.022c0-.008.003-.015.007-.022.12-.223.236-.449.366-.666a.977.977 0 0 0 .138-.481c.003-.123.012-.246.018-.369.005-.1.012-.199.015-.299a.055.055 0 0 0-.048-.061.057.057 0 0 0-.028.003c-.19.088-.38.176-.568.267a.42.42 0 0 0-.093.068c-.076.066-.15.134-.225.198-.168.143-.275.33-.392.51-.016.127-.091.226-.143.336-.038.082-.088.163-.05.262.014.037-.02.053-.052.055a.306.306 0 0 1-.093-.005c-.173-.042-.345-.078-.518.006-.01.004-.047-.018-.05-.03a.687.687 0 0 1-.007-.16.508.508 0 0 0-.09-.325 3.69 3.69 0 0 1-.248-.465 1.086 1.086 0 0 0-.459-.503 1.662 1.662 0 0 1-.247-.169.855.855 0 0 0-.237-.143c-.096-.042-.11-.033-.1.063l.052.434c.043.343.07.687.176 1.019a.291.291 0 0 1 .01.114.06.06 0 0 1-.048.032.269.269 0 0 1-.083-.036c-.165-.093-.349-.127-.531-.162a.13.13 0 0 0-.095.047c-.011.013.005.056.018.081.036.066.103.09.171.111.111.036.222.07.331.108.016.006.024.036.03.056 0 .004-.019.02-.03.021-.07.006-.14.013-.21.013a.505.505 0 0 0-.244.067c-.067.037-.065.097 0 .143a.17.17 0 0 0 .132.029.384.384 0 0 1 .112 0c.008 0 .015.021.02.034a.023.023 0 0 1 0 .011.025.025 0 0 1-.004.01.362.362 0 0 1-.086.038c-.075.016-.152.025-.228.042-.046.01-.057.045-.027.085l.1.126a.074.074 0 0 0 .047.031.074.074 0 0 0 .056-.012c.04-.023.074-.056.114-.079.053-.03.109-.058.165-.081.04-.017.075.009.085.053.02.092.005.135-.072.171-.091.042-.185.08-.277.12-.064.028-.128.055-.189.088a.068.068 0 0 0-.022.026.069.069 0 0 0-.007.032c.008.027.027.063.05.07a.252.252 0 0 0 .133.005c.11-.032.218-.076.328-.112.01-.003.029.008.037.017a.05.05 0 0 1 .01.043.37.37 0 0 1-.053.099c-.104.115-.23.208-.37.275a.575.575 0 0 0-.128.097.06.06 0 0 0 .002.03c.002.009.007.018.014.025a.19.19 0 0 0 .108.017c.081-.024.158-.062.24-.09.015-.005.122-.042.133-.028.011.015-.062.099-.072.11a2.636 2.636 0 0 1-.166.16c-.07.061-.141.12-.21.181-.023.02-.042.046-.013.079.03.032.059.046.1.019.065-.043.132-.08.196-.122.064-.043.137-.098.205-.146.058.082.015.173.024.26v.046a.217.217 0 0 1-.088.203c-.108.087-.222.167-.336.247-.037.026-.085.039-.085.096 0 .04.058.066.134.054a.482.482 0 0 0 .128-.039c.056-.026.107-.06.16-.091a.055.055 0 0 1 .086.037c.029.282.062.564.085.845.019.236.068.455.263.616a.239.239 0 0 1 .037.059c.076.005.152.015.228.028.188.046.38.066.573.061.17-.009.34.009.505.052.096.025.195.038.292.061.067.016.137.027.187.081.218-.114.445-.213.678-.296a1.26 1.26 0 0 0 .392-.236c.114-.094.195-.215.298-.314a.523.523 0 0 0 .164-.412 1.28 1.28 0 0 1 .003-.138.06.06 0 0 1 .011-.025.06.06 0 0 1 .05-.024c.01 0 .02.003.028.007.08.045.162.089.24.137.053.034.102.018.151-.004.063-.027.071-.082.016-.123-.137-.1-.275-.2-.414-.295a.338.338 0 0 1-.156-.269.046.046 0 0 1 .016-.039.08.08 0 0 1 .06-.006c.085.054.162.116.249.166a.395.395 0 0 0 .335.023.049.049 0 0 0 .018-.014.049.049 0 0 0 .01-.02.05.05 0 0 0-.002-.022.044.044 0 0 0-.012-.02Zm-3.144-1.37a.442.442 0 0 1-.197.271.296.296 0 0 1-.327.004.196.196 0 0 1-.11-.163c0-.038-.003-.076-.006-.106-.029-.24.112-.311.342-.35.245-.042.36.102.298.344Zm1.26-.167c.207-.107.402-.038.495.177.011.028.016.059.012.09-.003.045-.017.09-.023.135-.025.163-.047.183-.214.18-.034-.003-.08-.005-.128-.01-.152-.019-.22-.134-.278-.251-.04-.08.056-.279.137-.32Zm.53 2.899c-.11.07-.21.156-.342.184a.172.172 0 0 1-.149-.034c-.18-.13-.365-.256-.555-.377a1.836 1.836 0 0 0-.21-.094 5.133 5.133 0 0 1-.266-.136.04.04 0 0 1-.011-.018.042.042 0 0 1-.002-.022.042.042 0 0 1 .009-.02.045.045 0 0 1 .018-.012c.06-.01.122-.017.14-.019.139-.007.277.014.407.062.042.02.086.034.132.042.226.032.424.136.624.238.075.039.14.092.195.157.01.013.045.026.01.049Z"/><path d="M11.171 31.431c-.014-.46-.092-.915-.168-1.369a1.021 1.021 0 0 1-.027-.205c.006-.163-.034-.32-.065-.478-.1-.51-.216-1.02-.316-1.53a3.403 3.403 0 0 1-.077-.592c-.005-.315-.062-.628-.028-.943a.209.209 0 0 0-.007-.069.134.134 0 0 0-.115-.099.13.13 0 0 0-.112.072c-.014.026-.022.057-.033.084a4.89 4.89 0 0 0-.242.768c-.083.344-.153.691-.256 1.028a10.92 10.92 0 0 0-.256.957c-.087.412-.2.82-.336 1.22-.082.232-.147.47-.194.71a4.93 4.93 0 0 0-.048 1.447c.054.442.082.887.085 1.332-.002.246.024.491.026.737.008.4-.011.798-.057 1.195-.062.487-.118.975-.18 1.463-.031.243-.09.484-.104.728-.022.377-.124.741-.163 1.115-.022.214-.058.425-.055.641.003.268-.036.233.258.233.056 0 .078-.025.078-.089 0-.185.004-.37 0-.554a1.37 1.37 0 0 1 .066-.454c.109-.334.135-.676.146-1.023.014-.391.057-.78.11-1.169.047-.35.085-.7.122-1.052.013-.114.01-.23.023-.344.043-.345.024-.69.017-1.035-.003-.177-.011-.353-.019-.53-.01-.253-.018-.506-.035-.76-.022-.32-.052-.642-.079-.963 0-.508.085-1.014.252-1.495.08-.24.163-.48.224-.726.085-.343.182-.682.272-1.023.05-.194.085-.391.144-.582.07-.235.124-.475.16-.718.012-.068.03-.134.051-.2a.142.142 0 0 1 .025-.035.328.328 0 0 1 .008.034c.022.206.031.414.067.618.075.422.165.844.248 1.267.04.196.088.39.113.588.03.236.05.472.088.707.061.387.102.777.15 1.165a.572.572 0 0 1 .005.138c-.025.214-.047.427-.08.64-.029.174-.078.345-.106.519-.042.28-.08.562-.117.844-.012.092-.017.184-.027.276-.025.244-.055.488-.076.733-.02.244-.058.49-.042.734.035.582.033 1.166.067 1.749.028.467.03.935.006 1.402-.01.207.004.414-.04.62a3.889 3.889 0 0 0-.053.665c0 .016.024.048.038.048.1 0 .2-.004.299-.007.055-.077.02-.164.024-.245.006-.108-.005-.216-.004-.324 0-.1.005-.199.01-.298.005-.13.018-.26.018-.391 0-.169-.012-.338-.016-.507-.01-.361-.014-.722-.026-1.082-.01-.338-.033-.676-.042-1.014-.007-.253-.01-.507 0-.76.01-.291.037-.583.057-.874.014-.3.044-.597.09-.893.011-.067.016-.136.023-.205.022-.23.06-.457.113-.68.048-.186.069-.377.1-.566.005-.054.013-.107.025-.16a.567.567 0 0 0 .01-.25c-.006-.061-.017-.122-.017-.183ZM29.213 30.267c-.032-.174-.033-.352-.068-.524a9.126 9.126 0 0 0-.19-.76c-.093-.31-.199-.614-.27-.93a1.637 1.637 0 0 0-.063-.197l-.32-.864a.4.4 0 0 0-.068-.118.1.1 0 0 0-.167.042.166.166 0 0 0-.01.045 1.305 1.305 0 0 1-.16.526 1.438 1.438 0 0 0-.092.236c-.111.384-.252.757-.388 1.132-.067.18-.116.366-.184.546-.165.438-.302.886-.41 1.34-.064.262-.093.53-.085.8.007.237.015.473.024.71.026.621.087 1.24.182 1.855.043.288.073.58.095.87.031.393-.043.78-.103 1.166-.025.15-.055.301-.082.452-.023.127-.037.259-.067.385-.083.312-.131.632-.144.954.002.176-.008.352-.028.527a3.198 3.198 0 0 1-.389 1.15.144.144 0 0 0-.027.061.07.07 0 0 0 .027.056c.028.012.059.018.09.02.17.016.177.018.243-.135.078-.167.143-.34.195-.517.081-.32.145-.644.205-.97.04-.212.083-.423.073-.64a2.958 2.958 0 0 1 .07-.705c.05-.254.073-.518.136-.77.088-.349.091-.702.067-1.053-.034-.513-.097-1.024-.154-1.535-.036-.338-.082-.67-.122-1.006a1.68 1.68 0 0 1-.02-.254c.008-.207.023-.413.035-.62-.02-.239-.03-.476.043-.709.128-.417.24-.84.392-1.252.15-.402.268-.816.4-1.224l.214-.657c.015-.043.033-.086.054-.127.006-.012.021-.029.03-.028a.049.049 0 0 1 .02.01c.006.005.01.012.013.018.054.127.114.254.155.384.095.308.181.618.27.93.043.154.083.31.128.464.074.244.089.498.136.746.021.098.037.197.046.296.018.299.037.598.042.897.01.419-.06.988-.157 1.413-.128.554-.23 1.112-.337 1.67-.064.332-.102.667-.137 1.003-.019.183-.04.367-.07.549a16.387 16.387 0 0 0-.213 1.737c-.026.444-.055.888-.088 1.332a2.15 2.15 0 0 0 .018.481c.013.091.02.183.03.275.006.062.027.087.082.09.062.003.124.004.186.004a.072.072 0 0 0 .063-.024.072.072 0 0 0 .015-.065.695.695 0 0 0-.01-.068 3.853 3.853 0 0 1-.05-1.26c.014-.107.02-.214.02-.321a8.79 8.79 0 0 1 .066-1.012 76.435 76.435 0 0 1 .172-1.159c.01-.068.03-.135.035-.204.044-.52.122-1.036.234-1.546.043-.188.1-.371.134-.56.085-.492.167-.984.237-1.479.046-.326.094-.655.072-.986-.021-.297-.021-.597-.076-.893ZM12.698 3.314c-.032.338.003.676.03 1.014l.253.012c.01-.075.011-.15.006-.226-.036-.228-.015-.455-.011-.683.002-.144.01-.29.008-.433-.003-.144-.02-.274.043-.402 0-.042.017-.082.017-.124 0-.006.008-.011.011-.017.005.006.013.012.013.018 0 .042-.002.084-.004.126a.156.156 0 0 0 .023.039c.036.03.035-.013.04-.026.023-.065-.026-.14.032-.201.037.07.076.14.112.21.007.014.003.031.006.046 0 .006.01.012.014.017.006-.007.016-.015.017-.023l.013-.275a.346.346 0 0 1 .009-.045c.01.015.016.03.021.047.074.485.038.98-.104 1.45-.054.174-.085.355-.128.534a.133.133 0 0 0 .023.002.953.953 0 0 1 .48.101c.05-.067.098-.136.142-.209.131-.244.31-.454.474-.675a2.01 2.01 0 0 1 .21-.211l.099-.176a.17.17 0 0 1 .013-.04c.01-.01.02-.02.031-.027.008.01.024.022.023.028a.573.573 0 0 1-.032.07.214.214 0 0 1-.09.188v.063c.018-.007.046-.008.053-.022.027-.048.054-.07.104-.025.006.004.046-.013.051-.028.024-.064.035-.132.061-.195.013-.03.048-.05.072-.076.003.03.007.06.013.088.002.012.015.02.023.03a.338.338 0 0 0 .023-.037c.01-.021.015-.042.024-.064.002-.004.014-.006.021-.005.007.002.016.01.016.013a.937.937 0 0 1-.118.364c-.18.295-.389.572-.623.827-.093.103-.188.204-.282.306a.467.467 0 0 0 .25.24c.234-.275.516-.502.773-.754.168-.157.344-.305.528-.444.137-.11.282-.21.425-.313.015-.01.04-.033.047-.03.035.023.01.046-.007.067-.046.035-.098.097-.089.114.104.013.274-.146.449-.268.04-.043.078-.082.12-.12a.663.663 0 0 0 .113-.127c.01.02-.258.356-.248.376 0 0 .026.038.055-.015.067-.124.273-.345.294-.336.02.01-.074.154.047.018a.315.315 0 0 1 0 .054c-.006.034-.204.212-.214.246.022.048.203-.169.22-.171.009-.015.038-.008.048-.023l.014.017c-.015.01-.015.025-.029.034-.008.024-.03.042-.038.066l-.048.042a.11.11 0 0 0-.012.02c-.12.291-.349.5-.573.707a7.586 7.586 0 0 1-1.323.967 1.22 1.22 0 0 1-.365.142c.034.082.04.176.108.243.437-.206.828-.484 1.22-.76.215-.15.416-.32.6-.507.198-.205.405-.403.6-.61.205-.22.41-.442.598-.677.24-.3.469-.61.694-.924.088-.124.148-.268.218-.404.007-.013-.009-.038-.014-.057a.14.14 0 0 0-.042.015c-.131.095-.256.202-.393.286-.185.113-.381.208-.571.312-.306.169-.608.343-.849.601a1.488 1.488 0 0 1-.388.291 2.643 2.643 0 0 0-.677.486c-.064.066-.134.126-.205.188-.07.062-.131.108-.2.158a.06.06 0 0 1-.066.005.06.06 0 0 1-.03-.057c0-.07.027-.136.076-.186.16-.18.218-.406.248-.633.024-.183.078-.36.16-.526.13-.27.311-.513.4-.803.016-.05.061-.089.086-.137.025-.055.046-.112.064-.17 0-.003-.022-.023-.03-.02a.135.135 0 0 0-.059.031 3.773 3.773 0 0 1-.464.453c-.06.047-.1.118-.15.175-.076.085-.152.174-.232.257-.268.276-.573.518-.77.858-.082.14-.175.272-.278.397a5.12 5.12 0 0 0-.49.726.583.583 0 0 1-.076.115.122.122 0 0 1-.081.029c-.032 0-.062-.057-.05-.09.022-.058.047-.114.077-.167.186-.33.276-.706.261-1.084-.016-.422-.055-.845-.085-1.264a1.3 1.3 0 0 0-.026-.182l-.17-.764a1.54 1.54 0 0 0-.047-.178c-.009-.024-.038-.042-.058-.062-.015.017-.037.032-.042.052-.029.08-.05.161-.08.24-.038.108-.085.214-.122.323a8.426 8.426 0 0 0-.123.37c-.055.176-.123.35-.155.53-.056.318-.098.639-.064.964.012.1.015.2.008.3ZM36.834 11.066c-.08-.196-.166-.387-.252-.579a.483.483 0 0 0-.063-.1c-.197-.248-.385-.509-.622-.704a.59.59 0 0 1-.106-.11.69.69 0 0 0-.26-.21c-.15-.076-.305-.136-.46-.198a.267.267 0 0 0-.203.013c-.131.05-.231.159-.342.244a.122.122 0 0 0-.021.033c-.018.028-.005.08.023.084.04.006.08.003.121.008.092.012.191.004.274.045a.851.851 0 0 1 .283.204c.047.05.099.095.154.136.183.146.351.31.503.487.104.132.185.28.24.437.032.084.06.166.092.25.025.066.012.115-.043.126-.154.03-.308.07-.465.055a1.198 1.198 0 0 0-.71.165c-.281.16-.462.305-.674.67-.067.115-.118.242-.175.365a.048.048 0 0 0 .01.035.03.03 0 0 0 .03.01.209.209 0 0 0 .061-.041.5.5 0 0 1 .441-.147c.116.013.231.02.347.022.28.01.56-.018.831-.082.022-.005.049-.014.057.021a.076.076 0 0 1-.02.054c-.083.087-.17.169-.252.258a.86.86 0 0 0-.141.155c-.08.125-.174.241-.28.345a1.07 1.07 0 0 0-.149.205c-.08.143-.138.298-.17.458a.562.562 0 0 0-.013.225c.013.069.025.137.04.206.025.113.093.19.163.264.004.005.032-.01.038-.023.008-.02.01-.04.005-.06-.03-.148.022-.276.065-.405a.243.243 0 0 1 .093-.118c.133-.1.256-.215.387-.322.153-.127.294-.277.47-.357l.427-.192.014-.118c-.114.048-.227.105-.344.141-.07.022-.147.012-.22.016-.043-.1-.08-.034-.12 0a.032.032 0 0 1-.016.01c-.01 0-.024.006-.03 0a.045.045 0 0 1-.011-.035.47.47 0 0 1 .04-.103.075.075 0 0 0 0-.03.075.075 0 0 0-.034-.047c-.01-.007-.015-.033-.017-.051a.663.663 0 0 0 0-.085c-.042-.158.026-.256.129-.333.063-.048.132-.084.197-.129a.038.038 0 0 0 .011-.013.038.038 0 0 0 .003-.016.044.044 0 0 0-.02-.03c-.04-.013-.081-.036-.117-.027-.075.017-.089-.08-.14-.1.042-.016.132-.048.127-.09a.155.155 0 0 0-.058 0 .658.658 0 0 1-.091 0 .048.048 0 0 1-.024-.026.04.04 0 0 1 .015-.031.179.179 0 0 1 .05-.012c.05-.008.066-.046.067-.102 0-.034-.008-.052-.035-.053h-.103c-.073 0-.109-.018-.094-.044.026-.045.062-.021.095-.022a.588.588 0 0 1 .102.004c.036.005.054-.01.058-.053.005-.055-.009-.091-.047-.091-.073 0-.148.008-.221.013-.032-.016-.013-.035-.018-.052.071-.037.145-.028.22-.02a.1.1 0 0 0 .05-.012.041.041 0 0 0 .013-.013.04.04 0 0 0 .007-.017.037.037 0 0 0-.004-.016.037.037 0 0 0-.011-.013.377.377 0 0 0-.05-.01c-.005 0-.013-.008-.012-.012 0-.003.006-.02.01-.021.068-.01.136-.02.205-.028.011 0 .023.004.034.002.115-.017.16-.109.106-.237-.061-.142-.096-.295-.145-.443 0-.016-.003-.031-.006-.047l.032.019c.067.032.096.108.138.169.013.017.029.054.05.017.008-.015-.004-.048-.007-.073l-.03-.039-.058-.1a.573.573 0 0 1-.043-.053c-.003-.004.003-.019.007-.027a.014.014 0 0 1 .007-.003l.008.001.036.051c.02.033.064.08.067.1l.034.043c.01.013.023.025.037.035a.114.114 0 0 0 .043 0c0-.01.003-.023 0-.03a10.596 10.596 0 0 0-.118-.2v-.003a.06.06 0 0 1 .01-.048c.012-.01.038-.012.046-.003.03.032.051.075.082.106.03.03.042.12.114.11.013-.002.033.034.045.056.033.065.067.13.095.199.07.166.137.338.207.503.033.08.055.169.128.217l.031-.016a2.326 2.326 0 0 0-.111-.26 2.5 2.5 0 0 1-.15-.307ZM35.058 9.47a.64.64 0 0 1-.097.036c-.086-.014-.157-.023-.224-.038-.02-.004-.05-.026-.052-.042a.188.188 0 0 1 .023-.095.1.1 0 0 1 .058-.042c.08-.02.16-.036.24-.048.046-.007.087.033.104.09a.125.125 0 0 1-.052.139Zm-.498 2.781c-.067.017-.134.03-.208.043l-.038-.02.015-.037c.03-.05.059-.102.09-.151.035-.057.11-.047.134.02a.44.44 0 0 1 .026.098c0 .016-.012.045-.019.047Zm.622 1.563a.382.382 0 0 0-.121.266.415.415 0 0 1-.03.096c-.005.013-.01.027-.013.04a.205.205 0 0 1-.02-.046c-.017-.08-.032-.161-.047-.24.012-.052.02-.1.034-.144.018-.056.043-.074.094-.068.029.004.057.01.085.017a.05.05 0 0 1 .028.035.048.048 0 0 1-.012.043h.002ZM25.071 2.144c.095.202.192.403.294.601.13.254.272.499.4.752.127.254.346.447.496.688.116.188.273.352.422.517.222.246.453.484.683.724.14.144.258.306.355.481.093-.028.108-.11.13-.187-.218-.309-.505-.556-.758-.834-.124-.136-.25-.27-.372-.407a6.917 6.917 0 0 1-.23-.29l.043.032c.002.002.131.144.149.16.017.016.052.022.05.013a3.081 3.081 0 0 0-.131-.182l-.16-.172-.094-.137a.204.204 0 0 1 .032-.07c.022-.012.07-.026.077-.017.06.077.112.158.166.238l.136.182a.422.422 0 0 1 .048.071.49.49 0 0 0 .052.063c.01.005.043.035.043.02a.183.183 0 0 0-.023-.058l-.047-.085a1.179 1.179 0 0 0-.1-.171c-.022-.032-.051-.059-.07-.092a.067.067 0 0 1 0-.06c.004-.005.013-.006.024-.007.015.011.032.025.031.032 0 .006.016.017.03.03a.233.233 0 0 0 .052.035c.007 0 .054.012.031-.013s-.042-.046-.051-.058l-.023-.034a1.98 1.98 0 0 0-.137-.162c.028-.03.046-.012.062.013l.054.035c.033.021.064.045.098.064l.043.049.1.116a6.737 6.737 0 0 0 .117.123c.02.014.061.004.027-.037a.585.585 0 0 0-.048-.048l-.005-.004s-.128-.148-.136-.155l-.04-.036h.004a1.027 1.027 0 0 1-.076-.103.057.057 0 0 1 .006-.057.064.064 0 0 1 .06-.002c.098.088.194.176.286.27.08.081.15.174.236.253.225.21.412.459.55.733.047.088.1.173.145.261.028.054.046.113.068.17.134-.05.208-.17.307-.261l-.345-.876c-.03-.078-.054-.16-.088-.236a.294.294 0 0 1-.024-.2.517.517 0 0 0-.034-.292c-.035-.098-.073-.202-.034-.31.004-.011.02-.025.027-.024a.046.046 0 0 1 .03.027c.04.155.071.313.116.465.018.058-.033.143.062.174.034-.06.006-.119-.009-.177-.037-.15-.073-.296-.108-.446 0-.015.003-.03.009-.043a.173.173 0 0 1 .045.032c.012.02.021.04.027.063.032.084.063.172.096.257.01.028.024.054.036.08.004-.035.01-.07.013-.105.002-.035 0-.06 0-.089a.023.023 0 0 1 .012-.018c.005-.003.016.003.019.009l.064.119c.016.025.035.07.05.07.123-.006.116.096.159.164.068.12.128.244.18.372.084.184.113.38.166.573.011.068.017.137.015.207l.195-.05a.61.61 0 0 0 0-.091 3.049 3.049 0 0 0-.272-.885c-.128-.27-.275-.532-.418-.794-.132-.242-.27-.48-.405-.722a1.026 1.026 0 0 1-.07-.144 3.144 3.144 0 0 0-.389-.704c-.2-.292-.42-.57-.636-.85a.688.688 0 0 0-.143-.116.043.043 0 0 0-.04 0 .044.044 0 0 0-.013.042c.026.064.057.126.093.184.076.116.128.245.155.38.037.164.083.327.128.49.021.073.056.143.076.216.048.17.09.34.136.51.055.208.107.416.168.623.053.183.121.363.174.549.08.28.177.555.29.823.06.141.106.287.157.432.004.012-.006.029-.01.042a.148.148 0 0 1-.032-.027c-.034-.051-.061-.106-.097-.156-.102-.144-.193-.3-.315-.426-.213-.222-.413-.457-.648-.66-.121-.105-.231-.225-.348-.338-.047-.05-.1-.096-.157-.136-.3-.19-.543-.454-.846-.643-.11-.068-.207-.156-.317-.23a.786.786 0 0 1-.304-.34.451.451 0 0 0-.055-.101.273.273 0 0 0-.067-.048c0 .022-.012.047-.006.065.04.109.078.218.126.322Zm2.874 1.513a.143.143 0 0 1-.03-.02c-.05-.056-.035-.126-.043-.191a.453.453 0 0 1-.04-.068c-.004-.01.008-.026.012-.039.011.011.02.024.028.038a.359.359 0 0 1 .005.065c.073.038.015.131.076.176.005.003-.005.025-.008.039Z"/><path d="M26.9 3.857h-.01l.004.005.007-.005ZM9.737 7.826c-.275.172-.555.337-.825.519a7.035 7.035 0 0 0-.882.712c-.229.22-.437.458-.624.713-.166.222-.316.456-.47.686-.06.09-.117.181-.174.273-.005.008.003.03.012.039a.047.047 0 0 0 .04.01.643.643 0 0 0 .08-.048c.072-.045.141-.095.217-.133.351-.178.725-.308 1.057-.528.09-.06.186-.111.28-.164.128-.071.252-.155.388-.208.278-.108.518-.277.757-.447.176-.127.346-.26.516-.393.098-.076.19-.159.284-.238-.025-.081-.042-.166-.11-.227-.364.323-.762.602-1.163.877-.089.062-.184.114-.273.175-.058.043-.115.037-.184.036.023-.016.049-.013.085-.039.037-.025.053-.008.105-.05.052-.041.026-.024.043-.042.016-.018-.014-.028-.037-.01a.314.314 0 0 1-.113.049.257.257 0 0 0-.103.058.326.326 0 0 0-.056.025.165.165 0 0 1-.052-.024.054.054 0 0 1 .026-.036c.054-.036.065-.062.12-.095.055-.033.077-.078.058-.063-.018.016.04-.03.021-.057-.019-.025-.09.063-.09.063l-.08.08a.155.155 0 0 1-.086.046.113.113 0 0 0-.017.007l-.01-.018a.104.104 0 0 1 .048-.042c.046-.02.151-.175.167-.196.016-.022-.08.058-.09.05-.01-.009-.069.072-.11.108a.052.052 0 0 1-.042.01l-.03-.021a.038.038 0 0 1-.005-.053.038.038 0 0 1 .015-.012c.03-.042.12-.042.148-.087.006-.01.048-.062.042-.07-.005-.008-.098.033-.11.035-.03.006-.06.017-.09.024a.068.068 0 0 1-.042 0c-.005 0-.007-.027 0-.035a.868.868 0 0 1 .119-.139 7.689 7.689 0 0 1 1.013-.725c.179-.105.359-.208.538-.312a.84.84 0 0 0-.059-.332c-.092 0-.185.004-.277.003-.217-.002-.434-.013-.65-.01a3.447 3.447 0 0 1-.812-.068c-.097-.023-.199-.026-.298-.043a.684.684 0 0 1-.152-.046c-.017-.008-.026-.036-.037-.056a.518.518 0 0 1 .06-.03c.024-.009.072-.004.015-.042-.021-.015-.024-.031.008-.042a.678.678 0 0 0 .068-.034.652.652 0 0 1-.064-.025c-.012-.006-.032-.024-.03-.027.01-.02.023-.049.04-.052.045-.008.09-.013.136-.015a.318.318 0 0 0 .043-.012.471.471 0 0 0-.053-.015c-.043-.007-.09-.012-.133-.021-.003 0-.007-.032 0-.036a.236.236 0 0 1 .078-.04c.07-.013.141-.02.213-.03l-.228-.021a.085.085 0 0 1-.022-.006.07.07 0 0 1-.014-.01c.005-.006.008-.015.014-.017a.33.33 0 0 1 .089-.027c.185-.011.37-.022.555-.026.423-.011.83.084 1.234.194.052.01.106.018.16.023v-.264c-.18-.045-.36-.097-.542-.134a3.921 3.921 0 0 0-1.137-.042c-.154.014-.315.024-.458.076-.206.075-.419.11-.632.149-.182.033-.37.048-.55.093a5.382 5.382 0 0 0-.934.35.985.985 0 0 0-.102.056.042.042 0 0 0-.016.034.058.058 0 0 0 .03.033c.101.039.21.055.319.05h.279c.366.002.725.08 1.086.126.277.034.552.09.828.133.43.068.867.08 1.3.036.069-.007.137-.025.206-.033.07-.007.14-.008.21-.009.009 0 .028.013.028.02a.05.05 0 0 1-.016.04c-.027.026-.062.046-.094.066ZM56.627 17.308c.098-.042.196-.086.299-.123.085-.032.18-.046.265-.085.416-.196.833-.389 1.232-.626.226-.133.435-.292.622-.475.067-.066.128-.138.194-.207-.085-.055-.174-.007-.26 0a2.67 2.67 0 0 0-.36.05c-.379.078-.755.166-1.135.24a1.56 1.56 0 0 0-.466.162 4.33 4.33 0 0 1-.532.23l-.05.02v-.055c.06-.169.145-.327.256-.468.296-.402.45-.878.65-1.33a.103.103 0 0 0 .006-.022c.038-.165.124-.305.197-.453.016-.032.056-.084.053-.088-.051-.045-.072.021-.098.042-.308.247-.623.486-.916.752-.275.25-.527.532-.79.8-.077.078-.154.158-.236.231a2.76 2.76 0 0 0-.392.417l.108.19c.05-.052.115-.096.148-.159.093-.176.238-.298.372-.432.031-.032.068-.057.096-.09.073-.09.301-.347.406-.37a3.939 3.939 0 0 0-.146.17c-.008.013-.013.02-.007.03.006.008.027.006.037 0a1.26 1.26 0 0 1 .102-.12.378.378 0 0 1 .065-.045.125.125 0 0 1 0 .034c.01.02-.097.16-.086.18.02.031.15-.105.16-.115.134-.12.1 0 .15 0 .003.07-.06.093-.091.137-.048.064-.043.056-.063.165.011.022.188-.119.187-.103-.007.085-.08.223-.149.315-.128.172-.261.34-.393.51a.194.194 0 0 0 .01.276c.008.007.017.011.028.013.01.003.02.003.03 0a.591.591 0 0 0 .14-.05c.165-.09.33-.18.49-.28.179-.115.375-.18.571-.25a.134.134 0 0 1 .063-.009c.039.005.085-.004.094.064a.253.253 0 0 0 .045.102.058.058 0 0 0 .052.018c.034-.01.065-.032.1-.043.019-.002.038 0 .057.004-.005.019-.006.043-.017.055-.026.026-.06.042-.086.07a.213.213 0 0 0-.042.077c-.05.158-.054.169-.171.22-.186.078-.372.155-.56.222-.176.063-.345.147-.53.178-.014.002-.027.03-.033.048-.003.01.011.026.019.038.027.042.07.045.113.05.134.019.27.036.402.063.198.034.39.098.57.19.069.04.142.07.219.09a.3.3 0 0 1 .157.111c.02.026.063.045.04.093a.085.085 0 0 1-.092.042c-.007-.001-.014 0-.021.002a.39.39 0 0 0-.034.021c.009.012.015.03.025.033l.285.089.043.012a.262.262 0 0 1-.049.02c-.09.016-.182.03-.273.047-.012.002-.024.015-.035.022.01.01.018.025.028.028.076.017.153.032.23.048.004 0 .013.013.013.015-.001.002-.01.02-.017.02-.114.004-.23.026-.342.007-.322-.056-.65-.079-.956-.22a1.783 1.783 0 0 0-.246-.077c-.128-.038-.26-.074-.39-.113l-.388-.12.012.187c.035.008.07.015.104.025.304.084.605.178.913.248.451.102.904.197 1.372.19.342-.006.683.026 1.025.042h.042a.05.05 0 0 0 .02-.005c0-.014 0-.034-.007-.042a11.05 11.05 0 0 0-.646-.489 2 2 0 0 0-.516-.273c-.245-.082-.49-.163-.737-.24-.074-.023-.154-.028-.23-.044-.113-.024-.224-.05-.335-.076a.036.036 0 0 1-.022-.027.05.05 0 0 1 .028-.03ZM18.854 6.482a5.79 5.79 0 0 1-.976-.014 2.594 2.594 0 0 0-.58-.006c-.178.02-.356.027-.533.05-.23.031-.462.06-.687.112-.332.076-.66.168-.987.26-.112.03-.22.073-.33.11-.002.085-.007.166.038.241.384-.113.769-.228 1.153-.338.207-.057.42-.096.635-.116.115-.011.23-.026.344-.042.046-.006.24-.013.247-.014.057-.015.114-.026.173-.033.037-.004.047.014.049.037-.055.045-.176.042-.19.042-.015 0-.143.016-.177.019-.008 0-.011.007-.017.031-.005.025.106.013.17.009.071-.005.142-.003.211.005.004.011.007.02.005.023-.057.038-.117.072-.175.11a.262.262 0 0 0-.049.059c.03.002.06-.001.089-.01.064-.024.128-.056.19-.08a.111.111 0 0 1 .124.041.054.054 0 0 1 0 .055c-.04.036-.176.03-.182.115.067.043.161-.055.222-.052.023 0 .046-.01.068-.008a.292.292 0 0 1 .065.021c-.01.018-.016.042-.031.053-.067.038-.136.071-.203.108a.147.147 0 0 0-.031.034.146.146 0 0 1 .04.016c.07.053.139.027.208 0 .012-.004.027.005.04.008-.005.018-.005.047-.017.052-.082.043-.168.08-.256.11a8.62 8.62 0 0 1-1.013.25c-.29.053-.582.085-.877.096-.27.01-.54.025-.81.037a.845.845 0 0 1-.093-.006c-.05.072-.057.154-.065.238.047 0 .094.005.14.003.318-.013.636-.026.953-.042.48-.027.956-.106 1.419-.233.246-.066.494-.127.742-.19.233-.055.46-.134.677-.236.222-.108.443-.22.672-.312.48-.192.966-.372 1.437-.585.048-.022.093-.052.139-.079-.048-.002-.095-.009-.142-.007-.207.01-.415.012-.622.027-.224.016-.45.015-.674.02-.177.007-.356 0-.533.011ZM32.71 4.55c-.214.153-.437.291-.651.443-.333.237-.683.451-.971.747l-.228.23a.114.114 0 0 0 .071.118.591.591 0 0 0 .136-.084c.316-.345.708-.591 1.089-.854.12-.084.244-.163.366-.243a.394.394 0 0 1 .078-.048c.16-.057.32-.11.48-.17.06-.021.085.02.112.055a.06.06 0 0 1-.012.054c-.078.031-.159.056-.238.085-.123.044-.246.09-.367.137-.01.004-.051.042-.047.046.012.014 0 .054.078.024.065-.024.131-.044.199-.06a.554.554 0 0 1 .093-.028c.01-.01.033-.013.043-.017l.136-.05.167-.047c.005 0 .013.007.02.01-.006.007-.01.015-.015.018a4.147 4.147 0 0 1-.128.056l-.162.05c-.022.005-.145.095-.156.097 0 .094.117.002.178-.012.104-.026.206-.06.31-.085a.06.06 0 0 1 .052.03.07.07 0 0 1-.017.059.221.221 0 0 1-.079.042c-.115.04-.233.076-.349.116a.673.673 0 0 0-.101.072c-.026.04.091-.017.11-.022.104-.027.206-.06.31-.088a.156.156 0 0 1 .067-.007.094.094 0 0 1 .057.032.059.059 0 0 1 .009.02.057.057 0 0 1-.01.044.059.059 0 0 1-.016.016c-.105.077-.205.127-.311.204l-.196.13c.046.019.478-.245.505-.257.025-.012.141-.073.165-.088.002 0 .015.005.015.01 0 .011 0 .03-.004.035-.045.03-.087.063-.128.1l-.3.24a6.982 6.982 0 0 1-.669.451c-.27.15-.557.264-.856.34-.163.043-.33.072-.495.107l.046.195c.135-.032.272-.06.405-.098.2-.058.402-.11.595-.186a3.8 3.8 0 0 0 .726-.406c.153-.104.298-.22.447-.329.246-.171.478-.362.695-.569.093-.092.191-.18.29-.266.114-.103.226-.212.35-.302.246-.184.5-.359.749-.539a.735.735 0 0 0 .139-.122 1.17 1.17 0 0 1 .444-.325.453.453 0 0 0 .082-.042.203.203 0 0 0 .038-.047.25.25 0 0 0-.065-.01c-.077.01-.153.02-.229.036-.227.042-.453.092-.68.136-.167.033-.336.057-.502.098-.225.054-.448.12-.672.18-.428.116-.836.276-1.199.537ZM15.367 9.43c.285.032.57.061.856.091a.624.624 0 0 0 .093 0c.156-.005.31-.005.465-.017.24-.018.48-.032.717-.07.414-.068.824-.155 1.238-.23.137-.028.275-.048.414-.061a2.87 2.87 0 0 0 .806-.206.345.345 0 0 1 .043-.011.277.277 0 0 0-.043-.015c-.052-.01-.105-.02-.158-.025-.209-.018-.419-.027-.626-.052a9.839 9.839 0 0 1-1.352-.24c-.03-.008-.062-.008-.092-.012-.376-.059-.751-.12-1.127-.173-.23-.033-.464-.075-.694-.068-.473.011-.946.047-1.415.108l-.123.26c.145-.025.288-.06.433-.073.339-.03.678-.056 1.018-.068.185-.01.37.002.552.036.155.031.305.096.462.127.014.002.026.015.038.023-.012.005-.024.015-.035.016h-.232c-.023 0-.06 0-.083.002a1.344 1.344 0 0 0-.143.015c.013.037.117.023.145.023h.44c.023 0 .046.002.068.007.015.004.03.011.043.02a.142.142 0 0 1-.038.02.843.843 0 0 1-.092.01.23.23 0 0 0-.08.032c-.12.017-.241.025-.362.025l-.148.017s-.05.029.157.017c.09-.01.18-.001.267.023l-.162.015-.274.015.006.025.135.009.25.012-.012.015a1.546 1.546 0 0 1-.16.018c-.004 0-.213.016-.237.02 0 0-.022.016.024.03h.106a1.13 1.13 0 0 1 .202.013.59.59 0 0 1-.043.047l-.225.038c-.11.018-.222.024-.334.017l-.298-.031-1.105-.122-.552-.06-.132.185c.113.058.237.066.359.081.346.044.693.083 1.04.122ZM30.21 5.12a.184.184 0 0 0 .16.087c.245-.381.512-.748.8-1.098.124-.145.222-.312.335-.467.058-.079.1-.173.22-.188.039-.005.073-.054.109-.082l.19-.156a.203.203 0 0 1-.05.193c-.036.04-.07.082-.1.127l-.257.32c.02 0 .31-.314.321-.323.06-.048.114-.101.17-.15.007-.005.031.003.041.011.01.008.015.03.01.036a6.535 6.535 0 0 1-.14.212c-.05.07-.101.136-.153.203-.027.036 0 .05.023.07a.042.042 0 0 1 .01.04.417.417 0 0 1-.043.081c-.24.385-.475.775-.795 1.102-.138.142-.256.309-.432.41a.205.205 0 0 0 .125.177c.119-.121.238-.243.355-.365.106-.112.214-.222.315-.338.28-.33.49-.707.725-1.066.204-.307.408-.614.614-.92a.788.788 0 0 1 .085-.11c.097-.11.187-.225.268-.347.18-.249.336-.515.527-.76.223-.282.325-.625.43-.962.004-.012-.007-.029-.011-.043a.06.06 0 0 0-.02.007c-.05.039-.1.075-.145.116-.209.195-.413.394-.622.588-.171.157-.335.322-.518.464-.234.18-.433.396-.632.608-.222.235-.427.485-.63.738-.166.211-.32.432-.471.653a1.227 1.227 0 0 1-.152.199 2.295 2.295 0 0 0-.28.334c-.133.194-.256.398-.382.6Zm1.848-1.911h-.027l.019-.027.008.027ZM16.626 4.673c-.36.142-.738.238-1.078.428a.58.58 0 0 1-.09.025c-.275.098-.561.172-.817.324a.939.939 0 0 1-.128.054c.006.09.009.181.057.263.328-.2.69-.332 1.045-.474.307-.123.626-.204.94-.308a.397.397 0 0 1 .062-.006c.012 0 .023.012.035.019l-.036.022-.057.028-.026.023c-.079.05-.167.105-.185.115-.005.002-.004.02 0 .031 0 .003.015.008.02.005.026-.014.19-.079.267-.137.017-.008.034-.015.05-.024.04-.022.057-.014.066.004a.73.73 0 0 0-.058.065c-.114.07-.27.19-.29.204-.019.014-.032.023-.022.042.01.018.032.01.042.003a12.255 12.255 0 0 0 .197-.14l.095-.07c.018 0 .03-.012.04-.033l.03-.028.079-.015c.023-.005.055.029.045.05l-.031.07c-.126.06-.246.131-.358.214 0 .005.003.01.007.013.005.004.014.008.02.006.042-.015.082-.032.123-.048l.058-.034a.562.562 0 0 0 .16-.095l.03.013-.05.027-.08.06-.046.043c-.194.15-.403.28-.624.387-.256.122-.518.236-.783.338-.201.075-.413.124-.62.184l.006.198a.56.56 0 0 0 .093-.002 4.36 4.36 0 0 0 1.033-.342c.268-.121.529-.258.78-.409.385-.231.785-.434 1.15-.696.214-.152.416-.32.605-.5.122-.119.255-.225.397-.32.2-.132.398-.265.598-.4.014-.01.017-.037.025-.057a.133.133 0 0 0-.045-.006c-.096.026-.194.05-.287.084a2.072 2.072 0 0 1-.331.103c-.213.038-.423.09-.63.156-.5.172-.995.35-1.483.543ZM5.505 4.99c.143.064.266.16.402.23.376.201.77.367 1.176.496.437.135.88.25 1.323.367a4.5 4.5 0 0 0 .942.141c.21.003.418.036.62.096a.502.502 0 0 0 .063-.263c-.294-.01-.59-.003-.883-.036-.291-.033-.602-.042-.872-.207-.09-.055-.542-.07-.597-.223a.351.351 0 0 1 .08-.028c.034-.003.495.052.197-.158-.006-.004-.038-.01-.048-.013-.052-.018-.104-.03-.156-.047-.013-.004-.022-.02-.034-.029.019-.01.037-.027.055-.028.054 0 .108.006.162.006.014 0 .125-.023 0-.05a3.864 3.864 0 0 1-.156-.04.555.555 0 0 1-.062-.025c-.043-.02-.007-.064.02-.062.028.002.092.02.134.028l.006.003a.8.8 0 0 0 .085.01c.005 0 .01-.008.017-.014.007-.018-.015-.023-.025-.025l-.025-.006c-.166-.06-.083-.13-.03-.12.053.008.113.023.157.005.11-.042.214-.019.32-.003.256.043.491.14.726.236.365.148.732.293 1.079.482l.112-.222a.756.756 0 0 0-.08-.046c-.256-.113-.512-.222-.764-.338a3.224 3.224 0 0 0-.697-.253c-.145-.03-.287-.08-.432-.091-.317-.026-.636-.042-.95.042a1.32 1.32 0 0 1-.205.042c-.286.029-.572.052-.858.08-.271.03-.546.01-.81-.056a.3.3 0 0 0-.069-.006.025.025 0 0 0-.018.011c-.004.006-.006.019-.003.022.03.032.058.075.098.092ZM29.414 4.865c0-.2 0-.398-.005-.597-.014-.44.08-.865.164-1.293.038-.218.096-.432.17-.64.005-.013.019-.022.028-.033.011.014.02.029.026.045a.179.179 0 0 1 0 .069c-.012.067-.031.132-.042.2a.581.581 0 0 0-.008.061.606.606 0 0 0-.04.127.467.467 0 0 0-.02.113c.004-.014.047-.087.048-.102.002-.015.025-.054.03-.077a.109.109 0 0 0 .022-.05c.033-.105.065-.211.1-.315.005-.013.025-.02.04-.03a.391.391 0 0 1-.003.085c-.018.08.082.13.05.216a.985.985 0 0 0-.037.154 7.801 7.801 0 0 1-.088.289l-.02.04.008.021c.067-.053.119-.197.12-.274.07-.123.055-.267.095-.397.025-.08.043-.163.062-.244l.024-.024.022.042a.376.376 0 0 0-.016.156c-.008.233-.069.455-.108.614a.355.355 0 0 0-.013.08c.038 0 .05-.054.054-.066.052-.156.128-.305.121-.476.02-.088.039-.177.062-.264a.073.073 0 0 1 .05-.04c.036-.006.054.022.059.053l.007.06a1.72 1.72 0 0 1-.037.454 1.15 1.15 0 0 0-.027.366c0 .015.003.03.005.045a.2.2 0 0 0 .023-.038.222.222 0 0 0 .01-.044l.085-.59c.004-.03.006-.06.012-.09 0-.01.015-.026.023-.026a.054.054 0 0 1 .037.02.12.12 0 0 1 .023.063 1.482 1.482 0 0 1-.018.206c-.016.091-.032.174.017.267.028.054.017.137.004.203-.06.285-.116.57-.195.851a2.522 2.522 0 0 1-.439.908l.171.05c.29-.438.483-.932.568-1.449.03-.173.051-.348.077-.522a5.892 5.892 0 0 0 .053-1.376c-.02-.268-.027-.537-.065-.802-.04-.259-.02-.523.056-.773.008-.027.01-.077-.004-.085-.043-.022-.066.021-.085.048-.047.06-.089.127-.128.191-.037.059-.069.12-.107.178a6 6 0 0 0-.638 1.273 9.346 9.346 0 0 0-.342 1.147c-.112.504-.193 1.014-.183 1.53.003.161.003.323.005.484l.137.008ZM34.565 6.46c-.48.011-.959.062-1.43.152-.283.05-.567.093-.843.172a3.673 3.673 0 0 1-.36.087c-.1.014-.198.039-.291.075-.178.077-.358.148-.537.222v.247c.251-.205.55-.307.857-.39.148-.043.298-.083.446-.12a7.475 7.475 0 0 1 .923-.181.556.556 0 0 1 .251.002c.136.025.277.028.415.042.029.003.061.02.047.06-.006.018-.028.03-.042.046-.122.006-.244.012-.366.021-.012 0-.023.019-.033.028.01.006.02.01.03.013.076.008.153.011.23.01.05-.004.142-.02.057.032a.394.394 0 0 1-.048.016c-.013.008-.028.012-.043.018-.064.03-.152.014-.186.1.067-.012.135-.021.2-.04.073-.018.143-.045.214-.069.03.018.05.05.028.075a.394.394 0 0 1-.182.136c-.066.019-.128.046-.195.068-.035.012-.11.045-.094.062s.399-.05.394-.032c-.005.017-.299.126-.324.137-.176.055-.354.108-.532.158-.366.103-.745.131-1.12.173-.221.025-.449.003-.672-.014-.09-.006-.176-.055-.263-.084-.01.062-.022.127-.034.188.088.022.176.06.264.064.21.011.419.003.628.01.21.009.41-.077.621-.054.098-.06.216-.02.314-.06.233-.098.497-.092.725-.21.108.012.186-.07.283-.09.286-.058.552-.172.822-.278.085-.032.18-.051.253-.103a.961.961 0 0 1 .313-.135c.066-.017.13-.04.192-.07.277-.14.577-.22.864-.335.017-.007.028-.027.042-.042-.012-.01-.022-.024-.036-.028a.648.648 0 0 0-.134-.032c-.278-.02-.555-.045-.835-.054-.271-.006-.542.002-.813.007ZM9.625 1.328c.178.216.256.475.299.741.036.22.1.433.152.648.061.246.167.48.31.688.292.435.589.867.883 1.3a.88.88 0 0 1 .405-.211 6.994 6.994 0 0 0-.22-1.07 2.619 2.619 0 0 0-.099-.253c-.053-.102-.097-.212-.173-.296-.116-.127-.195-.277-.286-.42-.09-.142-.175-.29-.279-.422-.133-.169-.282-.327-.427-.488-.156-.176-.357-.292-.563-.4a.418.418 0 0 0-.11-.024c.009.031.02.061.034.09.02.042.046.08.074.117Zm.863 1.42s.17.222-.022-.139c.028-.071.053-.089.103-.013.05.075.077.165.19.169.023 0 .044.042.065.063.23.25.39.556.462.887.042.186.078.374.116.561.003.013-.006.029-.01.043-.017-.01-.04-.015-.051-.03-.267-.356-.533-.714-.797-1.073a2.44 2.44 0 0 1-.145-.235c-.014-.025-.032-.062-.023-.084.033-.084-.018-.149-.04-.22-.015-.049.057-.041.152.07ZM11.45 3.316s.24.452.37.676c.077.132.168.256.253.385l.396-.05c.166-.656.107-1.295-.14-1.921-.044-.115-.085-.23-.132-.344a5.337 5.337 0 0 0-.532-1.02 11.947 11.947 0 0 1-.128-.193C11.53.84 11.504.827 11.5.831a.113.113 0 0 0-.034.049c-.005.012.004.03.005.045.005.291.024.584-.031.873-.037.196-.079.392-.105.592a2.249 2.249 0 0 0-.006.367c.011.191.052.38.12.559Zm.122-.696a.044.044 0 0 1 .026-.032c.037-.011.031.024.032.04 0 .045-.003.091-.004.137 0 .015.001.03.004.045 0 .007.008.013.013.02.013.023.025-.013.027-.02.01-.052.015-.104.026-.156.002-.009.025-.02.037-.019a.043.043 0 0 1 .033.025c.007.03.007.06.012.09.006.043.013.149.047.03a.478.478 0 0 1 .054-.156c.019-.014.046-.016.059-.033l.036.058c.009.035.02.07.034.103.007.015.066.149.066-.017a1.49 1.49 0 0 0-.055-.143c.043-.024.092-.042.117.015.04.083.072.17.093.26.038.18.066.36.085.543.021.23-.025.458-.051.686-.004.029-.015.076-.033.08-.048.014-.05-.041-.066-.068a9.833 9.833 0 0 1-.5-.905 1.169 1.169 0 0 1-.092-.583ZM22.36 5.632c.06.028.095.1.174.09.332.197.662.397.996.591.126.076.257.142.392.198.308.123.617.24.93.348.238.082.486.137.725.218.267.09.547.076.82.118.243.038.492.042.738.06a5.26 5.26 0 0 0 .043-.155c-.41-.007-.818-.038-1.223-.094a3.253 3.253 0 0 1-.317-.066c-.142-.035-.281-.079-.423-.116a.577.577 0 0 1-.268-.123c-.042-.04-.111-.048-.166-.075-.016-.008-.125-.014-.12-.078l.18.042.063.007h.034s-.193-.073-.211-.077a.67.67 0 0 1-.095-.045l-.006-.006c-.026-.02-.056-.04-.052-.052a.052.052 0 0 1 .046-.042l.03.01.076.007.094.03a.979.979 0 0 0 .088.04c.007 0 .058.004.055 0a.592.592 0 0 0-.03-.033.808.808 0 0 0-.129-.059.113.113 0 0 1-.02-.002l-.096-.052c-.013-.008-.031-.016-.036-.028-.01-.025-.026-.06-.017-.08l.004-.008.072-.009.095.012.11.025.081.045s.034-.007.034-.015a.1.1 0 0 0-.015-.031l-.109-.036-.124-.027-.103-.022-.034-.005a.071.071 0 0 0-.049-.028.06.06 0 0 1-.026-.053c.005-.014.034-.026.054-.029a.394.394 0 0 1 .116-.002c.294.052.593.08.874.197.134.056.282.078.42.127.413.143.828.285 1.23.46l.117-.274a9.573 9.573 0 0 0-.977-.9c-.03-.024-.064-.043-.094-.065-.111-.09-.238-.16-.281-.316-.018-.067-.092-.119-.138-.18a.16.16 0 0 1-.015-.055h.024l.014.02s.092.06.093.063l.046.077s.059.023.062.023c.004 0 .035.013.015-.014l-.048-.067-.038-.05-.057-.046A.41.41 0 0 1 25.954 5a.066.066 0 0 0-.01-.038c-.043-.043-.092-.085-.136-.127-.01-.01-.048-.022-.014-.047a.05.05 0 0 1 .043-.004.715.715 0 0 1 .122.064c.128.087.263.156.395.233.197.117.4.232.555.407.205.228.436.433.614.684.094-.012.1-.09.12-.157-.078-.104-.15-.211-.238-.31a7.92 7.92 0 0 0-.433-.445 2.21 2.21 0 0 0-.276-.208c-.096-.065-.198-.12-.293-.185-.128-.084-.249-.18-.377-.263-.455-.303-.915-.599-1.373-.9a1.549 1.549 0 0 1-.2-.156c-.171-.157-.336-.318-.504-.477-.025-.037-.05-.073-.077-.109a.024.024 0 0 0-.021-.004c-.006 0-.015.013-.014.016.028.059.023.132.08.177.096.219.208.429.336.63.09.153.2.292.33.414.141.13.274.269.41.405.218.218.446.428.657.653.28.299.613.537.924.802a1.6 1.6 0 0 1 .299.316c.016.024.043.053.007.078a.086.086 0 0 1-.063.01.86.86 0 0 1-.11-.034c-.338-.114-.672-.236-1.011-.34a9.003 9.003 0 0 0-.807-.21 4.946 4.946 0 0 0-.992-.092 7.72 7.72 0 0 1-.72-.027c-.214-.02-.436-.013-.644-.088a1.591 1.591 0 0 0-.135-.082c-.014-.007-.04.006-.06.01.009.012.012.031.023.036ZM7.53 2.52c.022.042.045.08.065.122.133.269.303.518.505.741.197.208.416.393.654.552.12.085.236.174.355.26.119.086.247.185.378.266.216.137.438.262.667.376.158.078.3.187.45.282l.16-.138a2.647 2.647 0 0 1-.303-.16c-.378-.264-.777-.496-1.17-.735-.066-.04-.28-.276-.316-.311-.007-.007.004-.08.051-.084.003 0 .017 0 .02.003.018.021.17.097.225.127.054.03.063.004.027-.029-.043-.023-.183-.1-.21-.15a.167.167 0 0 1-.011-.033c.006-.023.024-.022.037-.024.041.01.08.028.114.052.02.015.025.007.029.006 0-.022-.092-.093-.09-.114.002-.022-.005-.067.046-.042a.428.428 0 0 1 .082.042c.184.14.37.28.551.424.163.13.322.266.483.399.018.014.04.025.056.042l.512.502.199-.105a1.699 1.699 0 0 0-.171-.215 20.24 20.24 0 0 0-.593-.518c-.27-.23-.536-.465-.846-.646a5.259 5.259 0 0 0-.35-.182c-.076-.037-.157-.066-.235-.1l-.808-.357a2.81 2.81 0 0 1-.531-.286.455.455 0 0 0-.04-.05c-.008-.005-.021-.006-.032-.01 0 .008-.004.017 0 .022.011.024.026.047.04.07ZM18.537 39.278l.007-.004v-.006h-.008l.001.01Z"/><path d="M18.512 39.292c-.004.011.003.026.005.039.007-.008.018-.014.02-.023a.113.113 0 0 0 0-.035c-.01.006-.022.01-.025.02ZM30.273 8.414c-.292.035-.582.09-.88.07a.395.395 0 0 0-.115.011 1.937 1.937 0 0 1-.961-.038c-.029-.008-.066.026-.055.054a.184.184 0 0 0 .055.093c.041.02.087.03.132.03.256.01.512.026.769.026.263 0 .526-.011.79-.022.098-.005.21-.008.239-.014a.273.273 0 0 0 .075-.035.21.21 0 0 0 .043-.075c.003-.019.023-.08.006-.098-.016-.02-.07-.005-.098-.002ZM13.971 8.036a.159.159 0 0 0-.11.018 2.131 2.131 0 0 0-.23.19.736.736 0 0 1-.342.19c-.377.094-.758.16-1.176.119-.12-.004-.267-.009-.415-.01a.246.246 0 0 0-.088.02.051.051 0 0 0-.026.035.047.047 0 0 0 .017.042.396.396 0 0 0 .122.061c.337.057.675.101 1.016.04.107-.02.214-.039.32-.055.206-.038.408-.093.604-.163.161-.052.274-.17.371-.3a.117.117 0 0 0-.063-.187ZM55.68 17.808c-.128-.071-.27-.091-.41-.121a.04.04 0 0 1-.017-.012.039.039 0 0 1-.009-.017c0-.008.002-.015.005-.022a.05.05 0 0 1 .013-.017c.038-.025.081-.042.117-.07a.066.066 0 0 0 .017-.06.077.077 0 0 0-.052-.035c-.023-.002-.045 0-.068.003a.115.115 0 0 1-.037-.015.19.19 0 0 0 .034-.029c.017-.021.047-.048.043-.069-.005-.032-.043-.035-.074-.032a.4.4 0 0 1-.067 0c-.034-.002-.028-.025-.017-.045a.35.35 0 0 1 .03-.034c.053-.073.054-.076-.042-.108-.05-.017-.007-.103-.078-.098.004-.009.004-.023.01-.026a.698.698 0 0 0 .118-.068.098.098 0 0 0 .014-.085.05.05 0 0 0-.01-.02.049.049 0 0 0-.062-.011.227.227 0 0 1-.06.028.338.338 0 0 1-.083-.01.34.34 0 0 1 .036-.079.78.78 0 0 1 .083-.079c.056-.052.114-.102.167-.157a.344.344 0 0 0 .043-.079l-.115-.194a.72.72 0 0 0-.073.053c-.128.118-.256.243-.39.357a.745.745 0 0 1-.196.112c-.283.116-.586.156-.883.218a5.619 5.619 0 0 1-.721.091c-.26.02-.508.09-.762.133-.246.042-.494.078-.741.114-.046.006-.092.003-.137.006-.083.004-.167.005-.25.016a.2.2 0 0 1-.186-.065 2.03 2.03 0 0 1-.103-.123c-.07-.1-.147-.197-.228-.29-.217-.221-.377-.486-.548-.741-.25-.37-.49-.746-.734-1.12a9.741 9.741 0 0 0-.71-.88c-.287-.309-.65-.539-1.046-.616a2.35 2.35 0 0 0-.295-.025c-.038-.003-.076 0-.1-.043-.049-.054-.117-.065-.183-.082-.095-.023-.192-.035-.287-.062a1.569 1.569 0 0 0-.491-.046 2.083 2.083 0 0 1-.562-.062 2.232 2.232 0 0 0-.224-.029c-.128-.01-.26-.045-.384-.027-.186.027-.378.037-.555.107-.163.063-.327.13-.494.177a1.63 1.63 0 0 0-.451.218c-.179.118-.357.237-.529.366-.19.142-.37.298-.555.444-.247.194-.496.386-.746.576-.171.13-.346.253-.52.38a.105.105 0 0 1-.145-.004c-.107-.104-.244-.156-.37-.229-.124-.073-.255-.14-.373-.223a2.917 2.917 0 0 1-.36-.285c-.205-.197-.4-.405-.6-.607-.152-.153-.299-.31-.458-.455-.33-.305-.648-.619-.954-.943a1.791 1.791 0 0 1-.264-.32c-.156-.27-.379-.484-.565-.728l-.034-.038-.043.018a.268.268 0 0 0 0 .075c.02.051.038.104.051.157a.106.106 0 0 1-.07.107c-.028.012-.138-.02-.058.091.523.718-.015.14-.119.238a.07.07 0 0 0-.029.047.07.07 0 0 0 .015.053c.047.06.101.115.15.174.024.03.045.062.062.096.006.01 0 .03-.008.042 0 .004-.025.004-.031-.003-.043-.042-.085-.089-.128-.132a.403.403 0 0 0-.07-.057.043.043 0 0 0-.037.009c-.01.008-.02.03-.017.038.026.054.056.107.085.16l.022.05-.045-.025a.803.803 0 0 0-.085-.031c-.012-.003-.035.002-.037.008a.082.082 0 0 0 0 .06c.035.05.14.075.085.16-.042.06-.108.015-.165-.007a.173.173 0 0 0-.188.038l-.02.131c.3.006.302.006.532.208.029.026.055.054.083.08l.578.529.284.267c.231.214.44.452.697.637.068.049.134.102.199.156.246.208.508.396.73.633.028.026.058.05.09.072.198.156.404.304.594.471.315.282.65.537.99.786a.48.48 0 0 0 .555.027c.16-.089.308-.198.462-.296.078-.05.156-.098.234-.145.051-.032.106-.058.156-.092.221-.15.406-.346.625-.5.198-.142.407-.27.624-.384.032-.017.066 0 .066.031 0 .148 0 .296-.004.443-.004.13-.016.262-.014.393 0 .147.019.296.02.441.004.436.006.871.003 1.306-.004.459.046.915.053 1.372 0 .31.018.62.052.93.02.152.035.307.066.458.073.358.11.718.15 1.082.033.308.059.616.136.918.04.157.072.317.1.477.05.295.085.598.148.893.027.13.038.26.033.392-.015.387-.004.775-.038 1.162-.019.209-.014.42-.014.629 0 .21-.055.416-.003.624a.243.243 0 0 1 0 .07c-.01.186-.02.372-.032.557-.009.124-.014.249-.033.371-.05.338-.107.673-.161 1.009-.047.283-.07.569-.135.848-.064.28-.115.577-.174.865-.093.454-.192.908-.239 1.37-.008.085-.029.17-.038.254-.022.201-.039.402-.06.602-.01.131-.028.262-.054.391a11.581 11.581 0 0 1-.443 1.486 5.307 5.307 0 0 0-.252.962c-.058.328-.078.663-.112.994-.013.131-.016.263-.026.395-.017.224-.049.447-.052.671-.006.465-.02.932-.06 1.396a5.812 5.812 0 0 1-.028.254c-.012.084.003.106.075.108.182.006.364.007.547.008.204 0 .408-.006.614.011.117.01.238-.029.359.006a.183.183 0 0 0 .109-.026.112.112 0 0 0 .06-.058c.024-.09.043-.18.057-.272.008-.046-.003-.095.008-.14.073-.308.08-.63.188-.932a.328.328 0 0 0 .022-.09c.016-.208.034-.416.042-.625.007-.17-.003-.342.003-.513 0-.202.013-.403.038-.603.028-.192.045-.385.051-.579.02-.426.03-.853.046-1.28 0-.03.006-.061.01-.092.028-.285.067-.57.085-.856.02-.341.053-.68.085-1.02.03-.284.062-.569.103-.853.052-.351.125-.7.22-1.042.116-.422.337-.796.517-1.189a.23.23 0 0 1 .026-.038c.023-.034.053-.035.064 0 .052.154.095.31.128.469.058.359.1.72.152 1.081.025.176.058.351.085.527.019.115.039.229.054.344.019.13.022.264.05.392.056.234.083.473.083.713-.003.202-.008.404-.007.606 0 .576.002 1.151.007 1.726 0 .062.004.124.009.186.024.302.054.602.07.904.016.272-.003.546.026.815.025.255.036.511.035.767v.793a.822.822 0 0 0 .008.21c.032.116.022.23.022.347 0 .062-.006.126-.006.186 0 .072.021.103.09.109.15.014.306.047.452.024.167-.026.332.033.495-.016.196.035.392-.004.588 0 .237.004.213.018.211-.235a.548.548 0 0 0-.015-.115 2.545 2.545 0 0 1-.063-.6c.003-.186-.002-.373-.006-.56 0-.061-.007-.123-.012-.185-.01-.1-.025-.2-.03-.3-.006-.1 0-.201 0-.303-.008-.286.008-.574-.053-.858a1.63 1.63 0 0 1-.036-.23c-.018-.231-.042-.464-.042-.696 0-.383-.1-.753-.129-1.132-.019-.277-.076-.552-.1-.83-.027-.331-.036-.665-.05-.998-.007-.155-.008-.31-.05-.46a1.837 1.837 0 0 1-.05-.415c-.004-.092-.022-.184-.034-.276a3.68 3.68 0 0 1-.048-.392 5.99 5.99 0 0 0-.086-.76 9.38 9.38 0 0 1-.065-.553c-.02-.208-.017-.42-.05-.625-.06-.369-.035-.743-.078-1.113-.028-.246-.008-.497-.018-.745a6.27 6.27 0 0 0-.047-.673 3.15 3.15 0 0 1-.033-.533 2.6 2.6 0 0 0-.032-.416c-.027-.197-.08-.396-.028-.6a.848.848 0 0 0 .006-.185c.002-.133.005-.265.009-.397.013-.434.028-.869.04-1.303.005-.17 0-.342.004-.513.004-.14.018-.279.03-.417.018-.193.04-.385.058-.578.022-.239.037-.479.06-.717.04-.386.082-.77.125-1.154.046-.408.074-.819.19-1.215.02-.075.035-.15.047-.227.042-.267.082-.536.132-.803a11.3 11.3 0 0 1 .154-.679c.032-.126.08-.25.124-.374.015-.042.054-.05.085-.014l.059.072.571.701c.016.017.03.035.043.054.09.157.221.276.344.403.22.226.439.453.66.678.147.15.307.282.527.296.082.005.165-.008.248-.01.434-.01.859-.102 1.284-.184.245-.047.499-.049.735-.146a.075.075 0 0 1 .022-.002c.2-.003.39-.058.583-.099.453-.096.907-.185 1.361-.28.204-.042.405-.06.61-.005.081.015.163.025.245.027l-.012-.19Zm-13.692-1.752a.297.297 0 0 1-.038-.027c-.065-.042-.09-.087-.073-.126a.162.162 0 0 1 .177-.074.134.134 0 0 1 .064.046.128.128 0 0 1 .026.074.108.108 0 0 1-.1.117.11.11 0 0 1-.056-.01Zm.072-.701c-.048 0-.085-.056-.082-.119a.105.105 0 0 1 .077-.102.107.107 0 0 1 .046-.003.09.09 0 0 1 .088.087.142.142 0 0 1-.13.137Zm.921-.423a.337.337 0 0 1-.054.1c-.064.076-.158.056-.202-.033a.224.224 0 0 1-.008-.201c.018-.037.062-.06.085-.08.13-.008.218.108.178.215h.001Zm.757-.509a.747.747 0 0 1-.103.014c-.07-.005-.139.01-.166-.066-.022-.057.018-.119.098-.163.096-.054.17-.045.224.026.012.015.021.033.025.052a.117.117 0 0 1-.03.106.118.118 0 0 1-.048.031Zm1.664 1.45a.136.136 0 0 1 .107.127c-.004.074-.061.15-.112.15-.07 0-.155-.078-.151-.14a.18.18 0 0 1 .158-.137h-.002Zm-.134 1.277c.03-.007.06-.01.093-.015a.72.72 0 0 1 .086.024c.088.035.139.113.117.175a.196.196 0 0 1-.216.13.225.225 0 0 1-.162-.116c-.045-.087-.009-.177.084-.198h-.002Zm.037 5.823-.052.11c-.024.05-.051.099-.114.093-.054-.004-.092-.096-.067-.171a.278.278 0 0 1 .075-.108c.032-.028.072-.013.102.011.021.02.04.042.058.065h-.002Zm-.762-9.506a.167.167 0 0 1 .046-.016c.017.008.042.012.056.027.023.03.042.062.058.097a.12.12 0 0 1-.03.15.127.127 0 0 1-.05.024.065.065 0 0 1-.043 0 .171.171 0 0 1-.1-.141.15.15 0 0 1 .065-.14h-.002Zm-.191 2.464a.327.327 0 0 1 .079-.108c.033-.03.081-.063.122-.032.036.038.067.08.09.127a.833.833 0 0 1-.075.15.148.148 0 0 1-.186.032.139.139 0 0 1-.043-.08.138.138 0 0 1 .015-.088h-.002Zm.183 14.642a.097.097 0 0 1 .072.03c.01.01.017.021.022.034a.103.103 0 0 1 .006.038.322.322 0 0 1-.01.069c-.022.094-.085.152-.151.143-.066-.01-.12-.093-.117-.18.002-.085.073-.135.18-.134h-.002Zm-.184 2.703c-.054.025-.158.004-.188-.038a.198.198 0 0 1 .015-.196.23.23 0 0 1 .174-.078c.023.01.044.022.062.039a.183.183 0 0 1 .001.223.185.185 0 0 1-.062.051l-.002-.001Zm.103-1.917a.16.16 0 0 1-.22.015c-.044-.038-.048-.1-.01-.165.028-.052.07-.067.131-.035.038.022.072.05.102.082.013.014.013.042.018.058a.195.195 0 0 1-.019.046l-.002-.001Zm.318.707a.109.109 0 0 1-.053.083.114.114 0 0 1-.099.01.205.205 0 0 1-.117-.101.201.201 0 0 1-.01-.153.154.154 0 0 1 .163-.097.124.124 0 0 1 .11.1c.006.03.01.059.013.088a.562.562 0 0 1-.005.071h-.002Zm-.132-13.068a.181.181 0 0 1-.04.004c-.222.013-.277-.136-.217-.292a.19.19 0 0 1 .2-.116.235.235 0 0 1 .185.154c.01.025.016.051.015.078a.183.183 0 0 1-.144.172Zm.017-4.44a.233.233 0 0 1 .128-.266.176.176 0 0 1 .042-.008c.066.005.134.09.128.167a.408.408 0 0 1-.036.131c-.025.056-.056.122-.128.114-.071-.007-.114-.07-.134-.137v-.002Zm.142 6.584c-.003-.098.08-.165.203-.164a.17.17 0 0 1 .152.169.177.177 0 0 1-.176.192c-.095 0-.173-.089-.18-.195v-.002Zm.274 8.677a.114.114 0 0 1-.103-.102.131.131 0 0 1 .086-.134.137.137 0 0 1 .056-.009c.042 0 .092.06.093.114a.137.137 0 0 1-.131.133v-.002Zm.19-1.463c-.023.049-.054.096-.113.101-.04.003-.128-.085-.122-.15a.129.129 0 0 1 .061-.115c.048-.024.096-.059.149-.02.022.02.041.043.058.068a.797.797 0 0 1-.033.117v-.001Zm.207-.927a.076.076 0 0 1-.06.022.184.184 0 0 1-.131-.14.162.162 0 0 1 .075-.155.076.076 0 0 1 .102.012c.03.044.056.09.078.14a.957.957 0 0 1-.064.123v-.002Zm-.021-1.195c-.094.016-.159-.037-.171-.137a.118.118 0 0 1-.001-.051.115.115 0 0 1 .062-.078.116.116 0 0 1 .05-.011c.095-.01.171.056.183.16.004.05-.057.107-.123.119v-.002Zm.16-1.816a.977.977 0 0 1-.055.127c-.068.119-.149.12-.218.006a.17.17 0 0 1-.014-.181.176.176 0 0 1 .158-.093h.046c.07.003.096.03.084.142Zm.006-5.136c-.106 0-.225-.134-.22-.251a.204.204 0 0 1 .204-.177c.118.003.203.077.202.174-.002.132-.09.253-.185.255v-.001Zm1.263-3.1a1.26 1.26 0 0 1 .144-.105c.012-.007.046.008.059.022a.185.185 0 0 1 .008.25.165.165 0 0 1-.047.032c-.086.003-.179-.085-.179-.156a.06.06 0 0 1 .015-.041v-.001Zm.025 1.485a.252.252 0 0 1-.186.258.121.121 0 0 1-.128-.035.256.256 0 0 1-.08-.187.792.792 0 0 1 .054-.224.112.112 0 0 1 .025-.037.112.112 0 0 1 .13-.016c.093.056.193.107.185.242v-.001Zm-.29-3.23c.1.012.198.103.201.187.006.13-.078.227-.196.229-.134.002-.206-.061-.21-.183-.005-.103.119-.243.205-.233Zm-.216 7.379c.037.01.058.078.04.141a.602.602 0 0 1-.054.127.092.092 0 0 1-.098.042c-.042-.004-.07-.045-.071-.102v-.045a.443.443 0 0 1 .047-.102c.032-.042.076-.077.136-.06v-.002Zm-.265-1.428a.137.137 0 0 1 .1-.037.096.096 0 0 1 .107.068c.006.029.01.059.013.088a.188.188 0 0 1-.01.071c-.016.024-.043.051-.065.054a.135.135 0 0 1-.136-.068.167.167 0 0 1-.009-.173v-.003Zm.091 8.128a.747.747 0 0 1-.103-.032.137.137 0 0 1-.081-.127c-.004-.05.035-.08.075-.104a.505.505 0 0 1 .062-.027.154.154 0 0 1 .191.06.15.15 0 0 1 .022.067c.014.098-.044.166-.166.164v-.001Zm.19-4.93a.948.948 0 0 1 .13-.103.202.202 0 0 1 .151.12c.032.062-.013.15-.101.21-.053.036-.105.024-.16-.034-.049-.051-.064-.146-.02-.191v-.001Zm.044 1.636c.012-.081.155-.169.23-.145a.14.14 0 0 1 .07.05c.023.043.041.088.056.133a1.568 1.568 0 0 1-.058.17.112.112 0 0 1-.056.054.113.113 0 0 1-.078.005c-.1-.015-.18-.15-.164-.265v-.002Zm.053 2.063a.058.058 0 0 1 .004-.043c.04-.058.082-.113.175-.113.031.012.06.027.09.045.017.015.029.036.032.06a.165.165 0 0 1-.126.168.16.16 0 0 1-.173-.116l-.002-.002Zm.28 3.843c-.076.006-.16-.078-.158-.16 0-.102.068-.161.179-.157.017 0 .034.004.05.01a.123.123 0 0 1 .07.125c-.003.095-.066.177-.14.182Zm.129-1.927c-.057.062-.117.074-.182.043a.124.124 0 0 1-.055-.04.2.2 0 0 1-.034-.1c0-.02.043-.04.066-.054a.2.2 0 0 1 .062-.012.15.15 0 0 1 .161.104c.002.01 0 .021-.003.032a.081.081 0 0 1-.015.028Zm.092-9.637a.145.145 0 0 1-.066-.242.145.145 0 0 1 .091-.042c.07 0 .158.08.156.14-.003.068-.11.152-.181.144Zm.257 12.352c-.082-.003-.151-.056-.148-.113a.168.168 0 0 1 .054-.11.171.171 0 0 1 .116-.045c.054.003.105.067.105.132a.13.13 0 0 1-.035.094.135.135 0 0 1-.092.043Zm.131-2.007a.122.122 0 0 1-.045.124.155.155 0 0 1-.171.01.176.176 0 0 1-.066-.142c0-.054.063-.105.127-.104a.153.153 0 0 1 .155.112Zm.242-15.538a.197.197 0 0 1-.327-.074c-.038-.114.043-.202.174-.197a.214.214 0 0 1 .184.144.127.127 0 0 1-.03.128Zm.652.828a.235.235 0 0 1-.057.014.256.256 0 0 1-.206-.134.075.075 0 0 1-.01-.042c.006-.088.146-.199.229-.18.015.003.03.008.042.016.052.028.115.044.12.121a.22.22 0 0 1-.118.205Zm.827.876a.167.167 0 0 1-.042.016c-.153.004-.267-.148-.201-.277.071-.141.175-.149.27-.052a.207.207 0 0 1-.027.314Zm.876 1.153c-.008.023-.036.042-.064.069a.72.72 0 0 1-.133-.092c-.046-.048-.024-.145.032-.18.036-.024.098 0 .134.05a.165.165 0 0 1 .034.073.164.164 0 0 1-.003.08Zm.726 1.058a.157.157 0 0 1-.197-.067.115.115 0 0 1 .026-.146.417.417 0 0 1 .094-.06.09.09 0 0 1 .11.021c.009.01.015.022.019.035.01.041.02.083.026.125-.025.03-.044.079-.078.092Zm.809.015c-.022.003-.043.004-.068.006-.024.002-.043-.005-.066-.01a.1.1 0 0 1-.075-.117c.017-.105.09-.152.18-.182a.073.073 0 0 1 .06.017.305.305 0 0 1 .069.087c.05.104.008.183-.1.2V18.3Z"/><path d="M14.762 7.005a.975.975 0 0 1-.043-.476c0-.066-.004-.132-.006-.198-.012-.01-.03-.016-.035-.027a1.858 1.858 0 0 1-.107-.527c-.048-.082-.05-.173-.057-.263a.063.063 0 0 1-.032-.089c-.068-.067-.075-.16-.108-.242-.086-.076-.177-.148-.195-.271a.47.47 0 0 1-.25-.24c-.13-.018-.172-.085-.307-.187a.948.948 0 0 0-.48-.102c-.007 0-.015 0-.022-.002-.05.006-.101.011-.14-.033l-.252-.012c-.107.026-.168.01-.262.002l-.397.05a.327.327 0 0 1-.093.032c-.108.025-.195.06-.304.084a.881.881 0 0 0-.405.211c-.06.029-.09.04-.17.085l-.2.105a.27.27 0 0 1-.132.084l-.16.138a1.676 1.676 0 0 1-.316.374l-.112.221a.914.914 0 0 1-.148.345.503.503 0 0 1-.064.264c-.006.154.014.31-.03.464v.264c.034.175.075.348.06.528a.84.84 0 0 1 .059.332c.027.022.07.04.08.068.054.137.1.277.149.416.067.061.085.146.11.228.1.178.206.354.3.536.08.146.191.274.324.378.058.048.114.098.17.148.052.034.104.065.159.093.176.078.35.174.535.218.163.04.342.028.51.02.186-.001.371-.023.553-.064.3-.079.577-.23.805-.44 0-.014-.006-.036 0-.042.072-.067.146-.13.22-.196l.132-.184c.007-.105.079-.172.148-.238.038-.036.083-.066.124-.097l.117-.26a.915.915 0 0 1 .159-.383c.007-.085.014-.166.064-.237.015-.178.029-.356.047-.532a.389.389 0 0 1 .04-.103c-.046-.078-.041-.16-.038-.243Zm-.675 1.428c-.12.205-.256.402-.39.598a1.404 1.404 0 0 1-.757.55 2.403 2.403 0 0 1-.94.121.897.897 0 0 1-.35-.116c-.107-.06-.208-.131-.31-.2a1.221 1.221 0 0 1-.357-.388 5.01 5.01 0 0 1-.432-.892c-.018-.05-.039-.1-.064-.148-.112-.216-.153-.45-.172-.687a9.505 9.505 0 0 1-.032-.528 1.682 1.682 0 0 1 .085-.564c.067-.188.162-.365.28-.525.219-.315.51-.532.847-.701.048-.025.09-.061.137-.087a.868.868 0 0 1 .167-.079c.14-.042.284-.078.426-.11a.55.55 0 0 1 .163-.003.081.081 0 0 1 .073.077.43.43 0 0 1 0 .092c-.053.498-.039.997-.046 1.497-.005.312.321.448.533.394a.137.137 0 0 0 .075-.077.1.1 0 0 0-.043-.122.296.296 0 0 0-.085-.027c-.18-.046-.265-.131-.282-.314-.012-.146-.007-.292-.007-.438 0-.1.01-.2.006-.3-.009-.248.042-.488.088-.73.012-.059.06-.105.11-.097.214.037.433.036.622.16.24.159.476.321.601.592a.77.77 0 0 1 .046.105c.088.293.188.583.216.891.018.19.058.38.076.57.011.13.002.26.002.391.04.399-.089.757-.286 1.094ZM31.095 6.814l-.047-.195a1.539 1.539 0 0 1-.117-.522.115.115 0 0 1-.07-.118.458.458 0 0 1-.105-.246.209.209 0 0 1-.126-.177 1.197 1.197 0 0 1-.26-.338.186.186 0 0 1-.16-.087l-.142-.112-.17-.05-.487-.094-.135-.008-.128.013-.195.048-.483.205c-.099.09-.172.211-.306.26-.108.109-.192.24-.315.334-.022.077-.038.16-.13.188l-.074.107c-.021.067-.026.146-.12.158-.017.133-.082.248-.144.363l-.117.273c-.013.102-.026.205-.087.293-.015.051-.03.103-.043.155l-.011.127-.021.174a3 3 0 0 0-.005.683l.119.315a.482.482 0 0 1 .047.075c.096.238.242.454.427.633.051.055.099.114.142.175.043.02.083.039.122.062.1.058.193.132.299.175.367.151.755.149 1.143.135a.086.086 0 0 0 .023-.003c.175-.06.351-.12.525-.183.146-.052.262-.158.397-.231l.332-.409a.644.644 0 0 1 .142-.275l.141-.443a.775.775 0 0 0 .037-.073c.016-.042.029-.084.043-.127l.03-.193c.01-.063.022-.127.033-.188l.006-.268v-.247c.003-.05.009-.1.007-.149a3.51 3.51 0 0 0-.017-.215Zm-.354.718a2.874 2.874 0 0 1-.124.582c-.06.165-.128.328-.192.492 0 0-.003.002-.008.012-.018.028-.062.089-.071.102-.209.283-.456.523-.794.65-.1.04-.206.068-.313.082-.455.047-.884-.016-1.242-.329-.064-.056-.132-.108-.193-.169a.887.887 0 0 1-.153-.171 2.057 2.057 0 0 1-.256-.756c-.056-.373.075-.707.183-1.048.033-.102.072-.202.117-.3a3.42 3.42 0 0 1 .339-.623 3.2 3.2 0 0 1 .534-.568c.13-.119.287-.207.458-.258a.828.828 0 0 1 .206-.027c.135 0 .168.038.147.17-.051.302-.123.6-.217.892a1.07 1.07 0 0 0-.072.404.325.325 0 0 0 .242.281.333.333 0 0 0 .13.009.065.065 0 0 0 .041-.046c.006-.029 0-.06-.017-.084a.34.34 0 0 0-.104-.044c-.134-.05-.17-.111-.132-.245.06-.222.128-.441.184-.663.033-.134.05-.272.071-.408.035-.23.073-.197.237-.15.104.031.205.074.299.128a.86.86 0 0 1 .351.357c.169.328.288.679.355 1.041.034.227.032.458-.006.685v.002Z"/><path d="M11.838 6.002a.56.56 0 0 0-.328-.063.697.697 0 0 0-.444.127c-.128.1-.108.264.038.334a.36.36 0 0 0 .227.03 1.92 1.92 0 0 0 .311-.082.925.925 0 0 0 .219-.126c.09-.067.077-.161-.023-.22ZM13.774 6.018c-.138-.011-.277 0-.412.033a.342.342 0 0 0-.182.134c-.074.101-.05.186.063.242.09.042.18.014.29.016.064 0 .127-.005.19-.012a.584.584 0 0 0 .173-.053.17.17 0 0 0 .088-.127.167.167 0 0 0-.053-.145.23.23 0 0 0-.157-.088ZM30.279 6.313c-.188-.121-.379-.11-.572-.015a.063.063 0 0 0-.04.039.064.064 0 0 0 .006.055.194.194 0 0 0 .194.137c.032 0 .063.003.104.005a.56.56 0 0 0 .303-.063.099.099 0 0 0 .043-.078.098.098 0 0 0-.038-.08ZM28.845 6.222c-.11-.08-.24-.102-.404-.11l-.108.01a.083.083 0 0 0-.053.018.08.08 0 0 0-.029.048.086.086 0 0 0 .039.1c.17.085.349.127.54.082.025-.007.066-.038.065-.054a.144.144 0 0 0-.05-.094ZM7.005 52.684v3.236h-.709v-3.236h-.704v-.547h2.122v.546l-.709.001ZM9.499 52.137h.736l-.716 2.92c-.2.831-.487.863-.861.863h-.162v-.595h.109c.233 0 .309-.065.346-.263l-.962-2.925h.741l.487 1.94.282-1.94ZM12.065 52.137c.639 0 .65.45.65.851v.499c0 .653-.104.856-.759.856h-.594v1.575h-.71v-3.781h1.413Zm-.704 1.665h.357c.282 0 .303-.101.303-.337v-.396c0-.252-.021-.376-.303-.376h-.357v1.11ZM13.982 52.722v.937h.709c.639 0 .65.45.65.852v.552c0 .653-.103.857-.759.857h-1.305v-3.783h1.874v.584l-1.17.001Zm0 2.657h.362c.282 0 .303-.102.303-.337v-.45c0-.252-.021-.375-.303-.375h-.362v1.162ZM17.273 55.92l-.091-.616h-.65l-.103.616h-.704l.742-3.783h.806l.715 3.782-.715.001Zm-.4-2.823-.255 1.623h.488l-.233-1.623ZM18.33 53.425v-.61c0-.515.417-.756 1.018-.756.764 0 1.067.327 1.067.916v.267c0 .381-.103.633-.455.692.444.08.455.396.455.798v.472c0 .75-.764.797-1.04.797-.78 0-1.045-.374-1.045-.873v-.626h.693v.49c0 .29.027.467.341.467.293 0 .347-.183.347-.429v-.321c0-.29-.033-.476-.309-.476h-.568v-.562h.503c.25 0 .374-.07.374-.391v-.273c0-.247-.054-.413-.325-.413-.314 0-.363.156-.363.445v.385h-.693ZM22.353 55.92l-.091-.616h-.652l-.102.616h-.704l.742-3.783h.807l.714 3.782-.714.001Zm-.401-2.823-.255 1.623h.488l-.233-1.623ZM25.976 55.92v-1.73h-.645v1.73h-.704v-3.783h.704v1.484h.645v-1.484h.703v3.782l-.703.001ZM28.7 55.92l-.093-.616h-.65l-.103.616h-.704l.741-3.783h.808l.715 3.782-.715.001Zm-.401-2.823-.255 1.623h.487l-.232-1.623ZM32.307 55.92l-.093-.616h-.65l-.102.616h-.704l.742-3.783h.807l.714 3.782-.714.001Zm-.401-2.823-.255 1.623h.488l-.233-1.623ZM35.565 55.92h-.704v-3.212h-.466v2.228c0 .782-.357.986-.914.986h-.168v-.597h.06c.276 0 .32-.156.32-.51v-2.678h1.875l-.003 3.783ZM37.402 52.684v3.236h-.71v-3.236h-.703v-.547h2.123v.546l-.71.001ZM39.625 55.92l-.092-.616h-.651l-.103.616h-.704l.742-3.783h.808l.714 3.782-.714.001Zm-.401-2.823-.255 1.623h.488l-.233-1.623ZM40.805 55.92v-3.783h1.852v.57H41.51v.89h1.083v.571h-1.083v1.162h1.203v.584l-1.907.006ZM5.668 44.107h1.478l1.46 2.128 1.453-2.126h1.477v5.54H9.749v-1.993l-1.142 1.66-1.15-1.66v1.993H5.668v-5.542Zm1.058 4.876V45.17l1.88 2.709 1.872-2.709v3.813h.218v-4.21h-.218l-1.873 2.731-1.879-2.732h-.218v4.21h.218ZM11.958 46.881a2.795 2.795 0 0 1 .23-1.129 2.922 2.922 0 0 1 1.566-1.549 2.971 2.971 0 0 1 2.284 0c.706.295 1.268.85 1.566 1.55a2.881 2.881 0 0 1 0 2.258 2.925 2.925 0 0 1-1.566 1.55 2.964 2.964 0 0 1-2.284 0 2.925 2.925 0 0 1-1.565-1.55 2.794 2.794 0 0 1-.23-1.13Zm.789 0c-.002.285.055.566.168.827a2.151 2.151 0 0 0 1.981 1.3 2.153 2.153 0 0 0 1.98-1.297 2.116 2.116 0 0 0 0-1.654 2.155 2.155 0 0 0-2.817-1.133 2.154 2.154 0 0 0-1.145 1.133c-.112.261-.17.541-.167.824Zm2.15 1.911a1.893 1.893 0 0 1-.752-.15 1.958 1.958 0 0 1-1.029-1.017 1.903 1.903 0 0 1 0-1.487c.2-.456.568-.82 1.03-1.017a1.958 1.958 0 0 1 1.502 0c.462.197.83.562 1.029 1.02a1.902 1.902 0 0 1 0 1.486 1.952 1.952 0 0 1-1.03 1.018c-.237.1-.493.15-.75.147Zm-1.176-1.91c-.001.155.03.31.092.453a1.175 1.175 0 0 0 1.54.618 1.157 1.157 0 0 0 0-2.141 1.192 1.192 0 0 0-.915 0c-.281.118-.505.34-.625.618a1.12 1.12 0 0 0-.092.451ZM21.227 45.835h-.328c0 .704-.041 1.301-.125 1.794-.084.492-.217.895-.4 1.209-.181.313-.413.54-.696.68-.282.141-.623.212-1.022.212-.132 0-.264-.006-.395-.02a5.438 5.438 0 0 1-.428-.062v-1.446a1.59 1.59 0 0 0 .194.017.845.845 0 0 0 .444-.117c.129-.077.236-.225.323-.444.088-.219.155-.523.202-.914.053-.503.077-1.009.071-1.515a18.177 18.177 0 0 0-.033-1.122h4.088v5.54h-1.895v-3.812Zm-2.804 3.148h.185a.991.991 0 0 0 .588-.19c.178-.128.334-.345.466-.652.132-.308.235-.718.31-1.23.076-.512.114-1.153.113-1.923h1.982v3.997h.218v-4.21h-2.41c.006.077.009.16.009.249v.249c.006.542-.026 1.085-.096 1.623-.064.446-.152.81-.265 1.088-.112.28-.248.484-.407.61a.81.81 0 0 1-.516.191h-.177v.198ZM23.587 46.881a2.804 2.804 0 0 1 .23-1.129 2.922 2.922 0 0 1 1.566-1.549 2.971 2.971 0 0 1 2.284 0 2.92 2.92 0 0 1 1.566 1.55 2.883 2.883 0 0 1 0 2.258 2.922 2.922 0 0 1-1.566 1.55 2.964 2.964 0 0 1-2.284 0 2.924 2.924 0 0 1-1.565-1.55 2.8 2.8 0 0 1-.231-1.13Zm.79 0c-.003.285.054.568.167.83a2.154 2.154 0 0 0 1.982 1.3 2.154 2.154 0 0 0 1.981-1.3 2.123 2.123 0 0 0 0-1.654 2.153 2.153 0 0 0-2.815-1.135 2.152 2.152 0 0 0-1.146 1.133 2.047 2.047 0 0 0-.17.826Zm2.148 1.911a1.893 1.893 0 0 1-.751-.15 1.955 1.955 0 0 1-1.028-1.017 1.905 1.905 0 0 1 0-1.487c.199-.456.567-.82 1.03-1.017a1.96 1.96 0 0 1 1.502 0 1.906 1.906 0 0 1 1.027 2.506 1.956 1.956 0 0 1-1.028 1.018c-.238.1-.494.15-.752.147Zm-1.175-1.91c-.001.155.03.31.092.453a1.174 1.174 0 0 0 1.083.71 1.177 1.177 0 0 0 1.082-.71 1.157 1.157 0 0 0-.625-1.523 1.19 1.19 0 0 0-.914 0c-.282.118-.506.34-.626.618a1.113 1.113 0 0 0-.092.451ZM29.453 48.145h1.202a.803.803 0 0 0 .269-.291c.092-.17.159-.354.197-.544.06-.282.102-.568.122-.857a18.196 18.196 0 0 0 .034-1.752 24.85 24.85 0 0 0-.026-.594h4.089v4.037h.437v2.774h-1.673v-1.27h-3.065v1.27h-1.587v-2.773Zm.856 2.11v-1.272h4.534v1.272h.218v-1.47h-.562v-4.012h-2.41c.006.077.009.16.009.249v.25c.005.542-.027 1.084-.097 1.623-.064.445-.152.808-.264 1.088-.112.28-.248.483-.408.61a.812.812 0 0 1-.516.19h-.721v1.47l.217.002Zm3.971-1.47h-2.863c.151-.12.274-.27.361-.441.123-.238.216-.49.277-.752.088-.361.148-.729.181-1.1.042-.426.063-.927.063-1.503h1.981v3.796Zm-1.167-2.95c0 .951-.078 1.713-.235 2.283h.563v-2.284h-.328ZM35.894 46.881a2.803 2.803 0 0 1 .23-1.129 2.92 2.92 0 0 1 1.567-1.549 2.97 2.97 0 0 1 2.283 0c.706.294 1.269.85 1.566 1.55a2.877 2.877 0 0 1 0 2.258 2.922 2.922 0 0 1-1.566 1.55 2.963 2.963 0 0 1-2.283 0 2.922 2.922 0 0 1-1.567-1.55 2.802 2.802 0 0 1-.23-1.13Zm.789 0c-.002.285.055.566.168.827a2.152 2.152 0 0 0 1.981 1.3 2.153 2.153 0 0 0 1.981-1.298 2.12 2.12 0 0 0 0-1.653 2.154 2.154 0 0 0-1.98-1.3 2.154 2.154 0 0 0-1.982 1.3 2.05 2.05 0 0 0-.168.824Zm2.149 1.911a1.893 1.893 0 0 1-.751-.15 1.956 1.956 0 0 1-1.029-1.017 1.905 1.905 0 0 1 0-1.487c.199-.456.567-.82 1.029-1.017a1.96 1.96 0 0 1 1.503 0c.462.197.83.562 1.028 1.02a1.906 1.906 0 0 1 0 1.486 1.955 1.955 0 0 1-1.028 1.018c-.238.1-.494.15-.752.147Zm-1.175-1.91c-.001.155.03.31.092.453a1.172 1.172 0 0 0 1.082.71 1.173 1.173 0 0 0 1.082-.71 1.159 1.159 0 0 0-.624-1.524 1.193 1.193 0 0 0-.914 0c-.282.118-.506.34-.626.619a1.116 1.116 0 0 0-.092.451ZM42.105 46.882c-.007-.412.073-.82.235-1.2.148-.345.365-.657.638-.918.27-.256.59-.455.94-.586a3.192 3.192 0 0 1 1.142-.203c.287-.004.573.027.852.091.22.051.434.12.642.208.189.079.369.176.537.29l-.881 1.537a3.007 3.007 0 0 0-.294-.19 2.877 2.877 0 0 0-.34-.13 1.502 1.502 0 0 0-.449-.062 1.22 1.22 0 0 0-.86.34 1.14 1.14 0 0 0-.349.823c-.001.156.031.311.096.453.063.14.153.265.265.37.114.107.248.191.394.249.158.062.326.093.496.091.162.003.325-.02.48-.067.123-.036.242-.086.353-.149.108-.058.207-.13.294-.216l.882 1.537c-.165.13-.345.239-.538.324-.21.087-.426.16-.646.216-.283.07-.574.104-.866.1a3.357 3.357 0 0 1-1.21-.212 2.844 2.844 0 0 1-.956-.595 2.691 2.691 0 0 1-.63-.917 3.016 3.016 0 0 1-.227-1.184Zm1.058 0a2.005 2.005 0 0 1 .139-.748c.087-.225.22-.431.39-.606a1.82 1.82 0 0 1 .612-.407c.256-.103.53-.153.807-.15.13 0 .261.01.39.03.098.016.195.039.288.07.085.024.167.057.244.1l.117-.2a3.313 3.313 0 0 0-.285-.107 3.143 3.143 0 0 0-.328-.075 2.453 2.453 0 0 0-.428-.033c-.28-.001-.557.05-.817.15a2.092 2.092 0 0 0-1.182 1.133c-.113.267-.17.554-.167.843-.005.302.054.602.172.88.11.253.272.481.475.67.204.186.444.332.705.428.274.1.565.15.857.149.152.001.304-.013.453-.042.117-.023.232-.053.344-.091.1-.036.195-.08.286-.133l-.117-.2a1.067 1.067 0 0 1-.252.125 1.938 1.938 0 0 1-.714.125 2.194 2.194 0 0 1-.831-.15 1.78 1.78 0 0 1-1.02-1.014 2.014 2.014 0 0 1-.139-.747h.001ZM48.38 45.561h-1.032v-1.454h3.912v1.454h-1.033v4.087H48.38V45.56Zm1.033 3.422V44.97h1.202v-.199h-2.619v.199h1.202v4.012h.215ZM55.993 47.538c0 .38-.068.706-.202.976a1.75 1.75 0 0 1-.55.651 2.35 2.35 0 0 1-.815.366 4.11 4.11 0 0 1-1.003.117h-1.788v-5.54h1.788v1.318c.338-.002.675.037 1.003.116.293.07.57.194.815.366.235.17.424.393.55.652.134.27.201.596.202.978Zm-.815 0a1.499 1.499 0 0 0-.13-.648 1.181 1.181 0 0 0-.365-.449 1.632 1.632 0 0 0-.559-.261 2.695 2.695 0 0 0-.7-.088h-.731v-1.32h-.218v4.21h.948c.237.003.473-.026.701-.086.202-.052.391-.14.559-.262.157-.117.282-.271.365-.448.091-.204.135-.425.13-.648Zm-.235 0c.007.206-.036.411-.126.598a1.024 1.024 0 0 1-.337.38c-.146.097-.309.166-.48.204-.19.043-.384.063-.578.062h-.73v-2.491h.73c.194-.002.388.02.577.062.172.038.335.107.481.203.143.098.259.228.337.381.09.187.133.393.126.6Zm-1.52.615h.076c.235 0 .404-.055.508-.163.104-.108.156-.259.155-.452 0-.194-.052-.345-.155-.453-.103-.108-.273-.162-.508-.162h-.076v1.23Z"/></g><defs><clipPath id="a"><path fill="#fff" d="M0 0h59.246v56H0z"/></clipPath></defs></svg>