<svg width="81" height="76" viewBox="0 0 81 76" fill="none" xmlns="http://www.w3.org/2000/svg"><g clip-path="url(#a)"><path d="M51.702 44.151a49.577 49.577 0 0 1-.058-1.689c-.015-1.011.009-2.024-.064-3.038-.039-.55-.058-1.104-.094-1.655-.016-.25-.04-.5-.08-.745a12.93 12.93 0 0 0-.46-1.883c-.213-.678-.451-1.345-.795-1.972a19.496 19.496 0 0 0-1.43-2.182c-.312-.422-.62-.846-.934-1.268a.398.398 0 0 0-.136-.122.205.205 0 0 1-.113-.172c-.064-.39-.175-.771-.213-1.166-.039-.395-.099-.785-.086-1.183.009-.27.006-.543-.012-.813a81.292 81.292 0 0 0-.135-1.743c-.068-.745-.098-1.496-.227-2.238a12.05 12.05 0 0 0-.268-1.255c-.161-.56-.357-1.11-.54-1.662-.07-.207-.175-.407-.21-.62-.053-.312-.169-.601-.271-.895-.146-.446-.322-.881-.526-1.304-.08-.159-.174-.311-.245-.473a1.804 1.804 0 0 0-.233-.405c-.137-.172-.263-.352-.397-.526a.519.519 0 0 0-.134-.13c-.32-.193-.577-.459-.85-.702-.219-.197-.416-.415-.667-.576-.133-.085-.256-.186-.381-.282a.061.061 0 0 1-.01-.057c.006-.017.027-.04.042-.04.084-.008.169-.006.253.006.214.046.427.1.637.16.24.072.487.122.736.151.484.052.963.145 1.432.277.234.069.475.11.72.126.307.014.613.036.92.057.361.023.722.036 1.081.072.316.042.636.033.948-.027a.524.524 0 0 0 .058-.02c-.026-.017-.051-.046-.079-.048-.26-.017-.491-.118-.715-.24a1.067 1.067 0 0 0-.117-.05c-.472-.187-.948-.365-1.416-.562a7.57 7.57 0 0 0-1.179-.362c-.472-.114-.947-.22-1.42-.334-.062-.015-.14-.018-.162-.1a1.14 1.14 0 0 1 .199-.054c.05-.005.102-.008.153-.007.408-.031.821-.085 1.233-.094.306 0 .612-.024.914-.07.292-.051.589-.07.883-.107.095-.01.188-.03.278-.057.282-.091.561-.187.84-.287a9.98 9.98 0 0 0 .53-.213c.018-.008.031-.044.035-.07 0-.01-.026-.034-.044-.038a1.014 1.014 0 0 0-.156-.021c-.402-.023-.803-.045-1.205-.065-.529-.029-1.059-.042-1.586-.115-.291-.041-.59-.057-.886-.077-.369-.028-.739-.067-1.108-.075-.51-.012-1.013-.086-1.517-.163-.02.057-.037.114-.059.172a1.041 1.041 0 0 1-.05.099c.307-.006.614.014.919.057.147.018.295.026.443.022.295-.01.59.03.886-.01.088-.011.184.04.277.054a19.445 19.445 0 0 0 .941.128.318.318 0 0 1 .243.115c.082.1.23.091.355.108.02.006.037.015.053.027a.216.216 0 0 1-.058.031.581.581 0 0 1-.095.004h-.254a1.03 1.03 0 0 0-.132.01c-.046.02-.046.049.141.048.032 0 .064.003.095.008.02.006.04.013.058.023-.02.013-.038.033-.058.036-.041.007-.085 0-.127.008a.502.502 0 0 0-.096.018c-.075.01-.044.073.1.07.01 0 .02.004.029.01.014.014.032.028.034.044.003.017-.02.035-.032.036-.241.027-.483.052-.725.076-.126.013-.252.03-.378.036-.222.013-.444.03-.666.026-.403-.007-.805-.02-1.207-.046a3.19 3.19 0 0 1-.498-.097.955.955 0 0 1-.436-.243.869.869 0 0 0-.195.375c.476.135.948.286 1.43.4.233.055.456.148.7.176.228.026.445.115.675.152.175.027.336.11.516.124.03.006.06.02.084.04.146.1.306.18.476.236.086.032.08.067-.022.142a.613.613 0 0 0-.143-.057 2.783 2.783 0 0 0-.316-.01c-.02 0-.04.03-.059.046.024.016.047.046.071.047.148.004.295 0 .443 0a.35.35 0 0 1 .082.046c.048.048.025.142-.034.148a.726.726 0 0 1-.19 0 5.127 5.127 0 0 1-.37-.077c-.101-.024-.196-.075-.297.016-.028.025-.1.011-.15 0-.176-.03-.351-.086-.53-.097a6.513 6.513 0 0 1-.876-.141 10.881 10.881 0 0 1-1.2-.297 3.949 3.949 0 0 1-.743-.348c-.184.1-.342.243-.542.315-.238.086-.478.165-.718.247a.119.119 0 0 1-.031.005c-.531.018-1.061.022-1.563-.184-.145-.057-.272-.158-.409-.238-.053-.03-.11-.057-.166-.084l-1.557.3c-.073.012-.147.02-.22.024-.306.024-.614.034-.918.073-.262.034-.52.105-.78.15-.166.028-.334.04-.502.055-.014 0-.04-.024-.042-.04-.003-.015.018-.035.033-.044a.164.164 0 0 1 .059-.014l.225-.03-.221-.016h-.032c-.104-.011-.218.047-.313-.039.099-.033.195-.07.296-.097.062-.012.126-.02.189-.02h.09l-.092-.018c-.052-.008-.117 0-.153-.028-.036-.029-.014-.126-.116-.104-.072.016-.146.022-.219.032-.116.015-.233.032-.346.044a.065.065 0 0 1-.05-.034c-.006-.015-.003-.051.008-.057.117-.069.23-.16.358-.192.254-.066.504-.148.772-.167.23-.016.454-.086.682-.13.321-.06.614-.208.928-.286.205-.051.38-.172.587-.213.088-.018.168-.086.243-.142.085-.061.16-.134.24-.203l-.16-.427a2.812 2.812 0 0 0-.28.06 4.836 4.836 0 0 1-1.403.225c-.253.006-.508.005-.762.005-.083 0-.163.004-.237-.06-.04-.036-.117-.03-.175-.044-.04-.009-.103-.012-.112-.034-.062-.172-.204-.115-.322-.115-.119 0-.234.003-.347.007a.554.554 0 0 0-.09.016c.025-.008.051-.014.075-.025.206-.1.428-.095.649-.098.009 0 .018-.01.027-.015-.01-.01-.02-.03-.033-.031a.523.523 0 0 0-.094-.005c-.074 0-.149.008-.222 0a.487.487 0 0 1-.124-.044c.041-.029.08-.076.126-.083.135-.021.273-.025.408-.038.015 0 .027-.022.04-.034-.016-.009-.033-.025-.048-.023-.105.008-.209.024-.313.029-.019 0-.045-.037-.059-.06a.056.056 0 0 1 .017-.055.462.462 0 0 1 .134-.077 12.068 12.068 0 0 1 1.634-.344c.35-.051.697-.032 1.043-.073.157-.018.312-.054.47-.016l.03-.237c-.201.014-.402.023-.602.044-.19.02-.377.057-.566.076a14.36 14.36 0 0 0-1.501.25c-.867.18-1.4.351-2.25.746-.276.132-.57.228-.872.286-.116.02-.23.038-.344.063a.504.504 0 0 0-.14.065.063.063 0 0 0-.022.054.058.058 0 0 0 .042.032c.39.026.777.052 1.167 0 .264-.035.53-.035.794 0a5 5 0 0 0 .6.031c.616.003 1.232.008 1.848 0 .2.008.401 0 .6-.025.292-.048.59-.026.871-.13.019-.007.064.02.075.042a.094.094 0 0 1-.009.086.464.464 0 0 1-.138.124c-.18.089-.363.17-.546.25a6.155 6.155 0 0 1-1.59.424c-.44.062-.875.152-1.305.254-.276.065-.552.137-.78.329-.103.086-.236.138-.353.21a1.384 1.384 0 0 0-.261.177c-.209.205-.409.422-.607.635a.056.056 0 0 0-.007.057.066.066 0 0 0 .054.014c.237-.052.473-.108.71-.16.546-.12 1.115-.115 1.653-.274.35-.024.681-.15 1.034-.13.03 0 .059-.018.09-.024.373-.074.749-.129 1.127-.164.21-.018.42.027.63-.034.212-.06.446.011.658-.084a.225.225 0 0 1 .126.003c.024.005.043.031.065.048-.012.015-.022.037-.038.045-.158.084-.33.15-.475.252-.304.21-.596.435-.876.674-.379.335-.73.698-1.104 1.039-.253.222-.49.463-.706.72-.106.13-.203.268-.314.393-.35.396-.62.846-.899 1.287a12.036 12.036 0 0 0-.885 1.726c-.106.248-.2.502-.306.752-.202.48-.457.938-.615 1.437-.053.19-.117.379-.19.563-.14.317-.23.648-.33.974-.106.349-.216.696-.322 1.044-.064.21-.122.42-.184.63-.043.15-.092.3-.13.45-.034.13-.05.266-.086.396-.117.423-.175.86-.24 1.29-.098.648-.159 1.301-.292 1.944-.042.204-.099.405-.17.6-.044.118-.087.236-.128.354-.18.5-.365.999-.535 1.502-.14.415-.343.809-.431 1.241-.042.204-.095.406-.149.607-.104.392-.2.786-.324 1.174-.17.536-.308 1.082-.458 1.624a3.19 3.19 0 0 0-.064.274 4.962 4.962 0 0 1-.175.63c-.088.242-.156.491-.203.744-.058.404-.17.793-.274 1.186-.086.29-.147.587-.182.888-.059.687-.127 1.371-.117 2.063.006.386.048.771.034 1.156-.027.75-.083 1.499-.128 2.249 0 .03-.008.061-.013.092a8.28 8.28 0 0 0-.11 1.026c0 .124-.02.249-.03.374-.027.29-.113.573-.106.868.015.344-.015.689-.09 1.026a.69.69 0 0 0-.004.155c0 .209-.006.417-.007.625 0 .376-.022.751.033 1.125a.745.745 0 0 1 .004.156c-.03.436-.021.875-.101 1.308-.062.327-.066.663-.184.982-.048.132-.054.28-.077.42.017 0 .038.003.046-.006.078-.085.152-.172.228-.26.25-.283.457-.604.785-.814a.44.44 0 0 0 .044-.045c.167-.16.34-.314.503-.478.088-.089.164-.19.243-.286.058-.074.112-.154.175-.222.281-.299.58-.58.786-.94.095-.163.224-.306.316-.469.234-.42.46-.847.689-1.27.164-.303.332-.605.495-.91.201-.377.417-.75.593-1.14.233-.515.383-1.06.515-1.607.129-.537.274-1.07.356-1.617.074-.494.16-.987.227-1.483.068-.506.146-1.01.234-1.512.058-.328.147-.65.159-.986.012-.323.03-.646.064-.967.067-.636.058-1.272.033-1.908-.02-.541-.066-1.08-.092-1.62a71.219 71.219 0 0 1-.072-1.814 14.13 14.13 0 0 0-.203-2.178 4.047 4.047 0 0 1-.067-.462c-.01-.166.004-.333.006-.5 0-.208-.003-.417.008-.625.032-.615.14-1.222.216-1.834.045-.362.105-.72.17-1.08.054-.296.117-.592.19-.885.095-.384.208-.764.298-1.146.116-.465.257-.922.425-1.372.101-.286.228-.56.35-.836.14-.315.275-.63.427-.94.138-.282.308-.548.44-.832.105-.216.233-.421.381-.611.26-.344.521-.686.781-1.027.26-.34.52-.684.776-1.029a.117.117 0 0 1 .046-.04.071.071 0 0 1 .052.008c.01.072.016.145.016.218-.005.23.013.458.056.683.045.224.065.453.061.681-.007.293.059.58.05.872-.006.155.02.31.03.467.005.073-.003.146.008.218.059.401.108.806.069 1.214a.462.462 0 0 0 .015.155c.058.237.038.476.012.713-.028.249-.066.496-.083.746-.018.28.014.565-.033.84-.048.273-.033.56-.015.833.023.323.016.646.038.967.01.282.039.562.084.84.1.498.154 1.005.16 1.514 0 .281.012.562.032.843.021.281.075.558.081.839.014.563.007 1.127 0 1.69 0 .145-.024.29-.034.435-.011.155-.017.31-.028.466-.011.146-.03.29-.04.435-.018.23-.02.459-.048.684-.059.466-.133.93-.2 1.394-.018.123-.028.248-.058.37-.072.304-.151.606-.229.909-.108.424-.214.848-.327 1.271-.117.443-.248.883-.364 1.326-.21.8-.308 1.616-.372 2.436-.028.363-.044.727-.062 1.09-.003.083 0 .166.013.248.058.463.143.924.164 1.392.015.322.04.645.084.964.06.466.08.936.059 1.405-.017.552-.05 1.103-.081 1.655a8.562 8.562 0 0 1-.063.652c-.048.35-.106.7-.162 1.05-.02.123-.045.245-.078.365-.052.191-.11.38-.175.568a6.66 6.66 0 0 1-.2.526c-.082.191-.181.377-.263.569a2.638 2.638 0 0 1-.87 1.095c-.066.05-.135.1-.205.147-.085.057-.11.15-.134.239a.073.073 0 0 0 .007.06.077.077 0 0 0 .051.036c.161.027.314.027.447-.095.107-.1.233-.183.345-.275.04-.032.079-.066.114-.103.38-.402.619-.896.845-1.388.212-.454.373-.93.48-1.418.085-.407.134-.82.197-1.23.022-.144.035-.287.059-.434.043-.298.03-.6.053-.9.023-.28 0-.565.04-.843.042-.324.027-.646.014-.968-.022-.55-.13-1.097-.117-1.651a.9.9 0 0 0-.017-.124c-.027-.216-.063-.432-.08-.65-.026-.343-.076-.682-.04-1.026a.68.68 0 0 0-.005-.155 2.5 2.5 0 0 1 .012-.807c.047-.247.077-.495.09-.745.031-.385.085-.768.162-1.147.039-.213.107-.423.156-.635.049-.213.086-.43.136-.642.058-.263.127-.526.197-.787.093-.344.15-.691.263-1.032a7.926 7.926 0 0 0 .368-1.675c.03-.29.071-.58.128-.865.038-.184.058-.371.059-.559 0-.124 0-.25.012-.374.035-.435.097-.87.105-1.306.013-.718.02-1.436-.05-2.155-.043-.445-.053-.894-.091-1.34-.03-.352-.04-.706-.123-1.052a5.077 5.077 0 0 1-.131-1.242c.003-.25.015-.502 0-.751-.04-.741.058-1.477.069-2.216a.738.738 0 0 1 .03-.185c.062-.253.079-.516.048-.775-.014-.166-.017-.333-.023-.499 0-.083.004-.168 0-.25-.029-.29-.059-.58-.091-.869-.015-.136-.008-.154.147-.224a.232.232 0 0 0 .121-.095.226.226 0 0 0 .034-.15 1.139 1.139 0 0 1-.014-.153c0-.016.044-.034.07-.04.012 0 .047.028.044.036-.063.23.046.43.094.64a.182.182 0 0 0 .123.133.188.188 0 0 0 .18-.034.458.458 0 0 0 .104-.114.932.932 0 0 0 .062-.137c.014.05.03.101.041.152.011.051.012.104.028.152a.156.156 0 0 0 .2.109.544.544 0 0 0 .185-.115c.035-.033.042-.094.072-.137.03-.043.07-.103.102-.102.08.004.03.077.037.12.006.043 0 .083.006.124.01.067.062.1.138.1.096 0 .19-.029.27-.082.045-.03.079-.009.1.033a.6.6 0 0 1 .066.143c.037.172.108.29.317.248a.071.071 0 0 1 .058.02c.092.122.198.087.312.038a.123.123 0 0 1 .111.027.336.336 0 0 0 .383.15c.035-.006.078.03.117.04.16.044.338-.013.322-.222 0-.023-.032-.074.024-.076.017 0 .045.044.054.071.027.09.044.182.07.273.025.09.035.192.14.229.12.045.2-.023.27-.11a.058.058 0 0 1 .053-.005c.017.022.04.062.03.075-.15.225-.185.485-.244.738-.04.172-.072.347-.109.521a4.718 4.718 0 0 0-.125.927c-.004.291-.012.582 0 .874.028.665.025 1.331.059 1.997.005.125.013.25.012.375 0 .333-.013.666-.007 1 .008.436.023.873.02 1.31 0 .323.024.646.04.968.026.5.043 1 .085 1.498.048.591.124 1.18.175 1.772.028.312.039.624.111.93a.92.92 0 0 1 .014.22c-.001.42.044.839.136 1.25.057.264.1.532.127.802.021.229.022.458.059.684.078.504.124 1.015.22 1.516.12.635.219 1.272.318 1.91a3.266 3.266 0 0 1-.022.96c-.015.115-.027.23-.053.338-.12.516-.248 1.032-.367 1.55-.033.142-.048.287-.07.431-.085.535-.243 1.055-.308 1.593-.05.414-.11.826-.165 1.239-.032.247-.064.496-.094.745-.035.286-.069.579-.103.868-.026.217-.052.434-.076.65-.02.186-.044.372-.053.56-.01.217.023.442-.015.655-.061.344-.043.687-.025 1.031.018.409.147.804.374 1.147.222.333.516.604.827.856.087.07.2.142.306.147.105.005.215-.07.323-.11a.35.35 0 0 0 .059-.027.09.09 0 0 0 .045-.119.091.091 0 0 0-.03-.036.55.55 0 0 0-.161-.091 1.739 1.739 0 0 1-.414-.23c-.197-.133-.341-.315-.482-.494-.306-.39-.477-.834-.462-1.333.015-.5.037-1 .058-1.499.007-.145.02-.291.038-.436l.288-2.296c.02-.154.026-.311.05-.465.054-.34.121-.676.17-1.016.028-.196.094-.383.13-.577.066-.358.107-.721.184-1.077.095-.447.214-.889.326-1.332.051-.191.079-.388.083-.586.002-.124.015-.248.038-.371.044-.268.049-.541.016-.81-.045-.391-.131-.778-.2-1.167-.04-.235-.086-.47-.121-.705-.044-.298-.083-.597-.156-.89-.106-.427-.126-.866-.156-1.302a2.44 2.44 0 0 0-.03-.28c-.117-.614-.211-1.23-.222-1.857 0-.073-.008-.146-.015-.219a153.81 153.81 0 0 0-.055-.653 8.544 8.544 0 0 0-.025-.248c-.063-.528-.137-1.054-.187-1.582-.043-.459-.117-.912-.084-1.373.013-.187.039-.373.04-.56.004-.992.004-1.983 0-2.974 0-.166-.03-.332-.034-.498-.008-.313-.014-.624-.08-.932a.958.958 0 0 1 0-.187 4.065 4.065 0 0 0-.046-.558 3.792 3.792 0 0 1-.014-1.06c.048-.34.117-.677.19-1.013.065-.327.166-.645.302-.95.255-.537.52-1.07.782-1.605a.266.266 0 0 1 .017-.026c.225-.33.447-.66.675-.986.117-.165.14-.163.281-.011.082.081.159.169.228.261.326.475.647.954.968 1.433.049.08.093.164.134.249.19.365.283.76.38 1.155.117.468.159.944.233 1.418.033.216.065.433.08.651.041.655.076 1.31.11 1.965.015.27.008.543.035.813.048.464.117.927.175 1.391l.213 1.708c.008.061.01.124.005.185a7.505 7.505 0 0 1-.292 1.534c-.055.158-.09.322-.102.488-.01.574-.025 1.147.008 1.72.029.508.117 1.014.182 1.521.026.206.058.412.09.619.048.329.116.658.142.99.028.488.113.972.253 1.442.023.07.038.14.054.212.107.477.175.964.346 1.427a.342.342 0 0 1 .027.09c.037.438.266.835.292 1.276 0 .01.004.02.008.03.081.183.108.38.149.574.013.07.032.14.058.209.202.515.352 1.049.449 1.593.122.635.318 1.254.583 1.845.153.333.28.676.381 1.027.169.638.433 1.24.668 1.854.078.205.155.41.243.611.215.486.432.975.657 1.454.088.178.186.351.292.519.18.295.368.585.48.917.027.067.063.13.105.19.242.38.433.79.568 1.218.04.129.089.256.143.38a.342.342 0 0 0 .215.218h.085c-.015-.04-.031-.077-.044-.118-.134-.4-.216-.802-.059-1.217.039-.104.032-.226.038-.34.012-.209.013-.418.025-.626.03-.52.075-1.04.096-1.561.024-.615.035-1.231.042-1.846.016-1.295-.029-2.587-.208-3.872a6.079 6.079 0 0 1-.074-.65ZM33.98 19.395a1.34 1.34 0 0 1-.052.134c-.245.515-.553.998-.776 1.524a.974.974 0 0 1-.123.205c-.233.309-.337.679-.477 1.027-.127.32-.242.642-.337.972-.236.824-.487 1.644-.631 2.49-.051.297-.141.587-.21.88-.072.303-.14.606-.21.909-.01.04-.02.076-.08.07-.087-.01-.125-.037-.121-.108 0-.063.014-.125.015-.187a.596.596 0 0 0-.013-.155.148.148 0 0 0-.046-.08.154.154 0 0 0-.085-.04.148.148 0 0 0-.164.07 2.666 2.666 0 0 0-.085.265c-.03.099-.066.196-.108.29-.035.069-.095.09-.186.075-.14-.024-.182-.069-.16-.213.053-.358.05-.727.192-1.07.073-.603.269-1.18.384-1.777.031-.155.077-.308.135-.455.338-.883.607-1.787.875-2.69.183-.615.418-1.213.705-1.787.047-.098.088-.199.12-.302.125-.355.29-.696.492-1.015.038-.07.233-.412.244-.413.011 0-.182.399-.187.415a.128.128 0 0 0 .03.128c.098.144.233.166.378.063.023-.017.05-.03.075-.045l.045-.057c.041.032.018.063-.005.092-.023.046-.048.092-.073.138-.078.15-.04.265.11.328.03.011.068.004.092.02.065.045.128.093.19.14a.14.14 0 0 1 .05.072.137.137 0 0 1-.003.087Zm13.147 10.287a.171.171 0 0 1-.136-.155 2.19 2.19 0 0 1-.028-.278.188.188 0 0 0-.045-.13.193.193 0 0 0-.124-.065.647.647 0 0 0-.155-.03.183.183 0 0 0-.106.05c-.02.02-.02.058-.036.086-.048.076-.134.091-.183.027-.08-.107-.175-.208-.215-.344-.041-.135-.096-.254-.134-.384-.054-.186-.11-.366-.088-.573.024-.223-.02-.459-.058-.681a5.125 5.125 0 0 1-.058-.934c.006-.324-.043-.643-.068-.964-.033-.436-.084-.871-.108-1.307a12.471 12.471 0 0 0-.212-1.578c-.108-.584-.264-1.157-.557-1.685a.03.03 0 0 1 .007-.015.03.03 0 0 1 .013-.01.25.25 0 0 0 .234.078.067.067 0 0 0 .05-.032.067.067 0 0 0 .008-.028c0-.01 0-.02-.005-.03-.023-.045-.053-.089-.08-.133a.087.087 0 0 1 .02-.115.092.092 0 0 1 .113-.023 2.6 2.6 0 0 0 .264.103.263.263 0 0 0 .124-.007c.045-.008.076-.04.058-.088-.03-.089-.067-.175-.1-.264a.107.107 0 0 1 .038-.138c.045-.032.121 0 .158.064.036.064.072.148.113.22.004.01.038.013.051.006.013-.008.02-.037.035-.047.035-.022.025.018.028.027.052.157.107.314.152.473.058.21.111.422.16.635.07.294.14.589.195.885.066.348.117.699.175 1.048.005.03.012.062.015.093.03.436.058.872.09 1.308.018.26.035.52.073.778.093.621.102 1.246.1 1.87-.007.409.03.816.112 1.216.03.142.041.286.07.431.038.194.085.386.127.58.007.038-.044.072-.087.06ZM25.383 40.33c0-.238.005-.477-.009-.714-.031-.562-.07-1.123-.11-1.683-.017-.25-.044-.499-.071-.745-.035-.321-.082-.641-.113-.962-.027-.28-.02-.564-.061-.842a17.243 17.243 0 0 0-.225-1.197 3.235 3.235 0 0 1-.099-.739c0-.187-.014-.374-.042-.56a6.516 6.516 0 0 1-.075-.902 2.674 2.674 0 0 0-.042-.436 32.1 32.1 0 0 0-.22-1.198 5.92 5.92 0 0 0-.189-.69 3.15 3.15 0 0 1-.144-.51c-.02-.123-.065-.242-.096-.364-.072-.272-.148-.542-.211-.816-.094-.406-.165-.816-.304-1.213-.081-.234-.11-.487-.16-.731-.035-.172-.067-.348-.098-.523-.034-.184-.064-.37-.097-.554-.117-.655-.333-1.293-.325-1.97.005-.3-.024-.603-.036-.905-.02-.479-.037-.958-.058-1.437-.003-.062-.02-.123-.026-.185l-.088-.87c-.005-.052.007-.104.008-.156v-.373a9.383 9.383 0 0 0-.073-.997c-.05-.413-.15-.82-.158-1.239-.006-.347-.088-.68-.186-1.01-.104-.352-.271-.678-.42-1.011a.997.997 0 0 0-.252-.356 1.716 1.716 0 0 1-.155-.157c-.45-.508-1.011-.852-1.648-1.085-.268-.099-.535-.197-.803-.294-.312.285-.69.49-1.101.596a3.683 3.683 0 0 1-.755.088c-.234.01-.475.025-.698-.027-.254-.058-.49-.191-.732-.297a2.03 2.03 0 0 1-.216-.126c-.23.082-.467.142-.686.248-.495.243-.956.539-1.339.94a1.856 1.856 0 0 1-.14.127c-.332.278-.633.588-.9.926-.135.172-.292.331-.435.499-.191.222-.427.41-.56.677-.19.378-.448.71-.71 1.038a4.581 4.581 0 0 0-.43.657 4.17 4.17 0 0 1-.298.48c-.307.417-.563.86-.711 1.355-.023.07-.05.137-.082.203-.117.278-.234.557-.326.847-.121.377-.266.745-.397 1.12-.096.275-.199.549-.277.83-.088.31-.136.63-.234.94-.164.529-.272 1.07-.391 1.61a5.92 5.92 0 0 0-.168 1.11c-.01.378-.128.735-.276 1.084-.248.587-.483 1.178-.725 1.767-.064.155-.127.309-.196.459-.204.446-.475.86-.606 1.34a.904.904 0 0 1-.08.173 8.823 8.823 0 0 0-.568 1.288c-.083.246-.17.493-.256.739l-.208.59c-.058.157-.107.316-.168.472-.185.477-.434.925-.625 1.401-.409 1.016-.866 2.011-1.216 3.05-.24.713-.453 1.433-.668 2.152-.059.189-.135.372-.23.546-.128.24-.244.485-.346.736-.12.3-.206.614-.33.91a7.494 7.494 0 0 0-.35 1.132c-.161.653-.207 1.319-.269 1.98-.047.517-.058 1.04-.088 1.56-.03.518.052 1.019.093 1.528.01.134.043.268.042.4 0 .387.057.772.171 1.142.068.209.116.423.144.64.053.527.233 1.014.447 1.49l.03.057c.018-.018.042-.032.053-.054a4.72 4.72 0 0 1 .71-1.071c.226-.262.45-.527.674-.79.05-.053.096-.11.134-.172.157-.295.31-.593.461-.89.09-.178.167-.362.264-.536.313-.557.581-1.137.803-1.735.133-.362.278-.72.428-1.076a6.873 6.873 0 0 0 .47-1.553c.057-.287.152-.565.283-.827a6.63 6.63 0 0 0 .342-.873c.2-.66.291-1.343.401-2.021.075-.452.117-.908.194-1.36.054-.308.08-.62.121-.93.033-.258.063-.516.105-.774.044-.278.096-.555.151-.831.074-.367.13-.737.27-1.09a7.55 7.55 0 0 0 .345-1.103c.035-.152.084-.301.117-.454.074-.324.143-.65.215-.974.096-.437.093-.891.242-1.318a.477.477 0 0 0 .012-.093c.126-.792.252-1.583.43-2.366.137-.599.258-1.204.398-1.8.129-.548.25-1.098.381-1.645.075-.314.16-.627.242-.94.05-.19.107-.38.152-.573.108-.458.207-.913.375-1.354.124-.321.22-.653.322-.982.255-.813.667-1.553 1.105-2.28.03-.044.063-.085.099-.123.309-.372.658-.708.958-1.09.092-.114.158-.269.314-.33.024.143.05.286.073.43.025.11.04.224.046.337-.004.25-.027.5-.036.749-.01.282 0 .565-.027.845-.021.229-.021.458-.022.688-.003.416-.015.833-.032 1.25-.008.209-.036.416-.049.624-.031.5-.015 1-.038 1.5-.04.844-.076 1.687-.142 2.53-.048.623-.084 1.247-.136 1.871-.025.29-.076.578-.117.867-.048.351-.098.702-.144 1.053-.027.196-.045.393-.073.589-.037.267-.079.534-.122.802-.073.452-.139.905-.226 1.355-.096.5-.226.995-.316 1.497-.052.286-.112.573-.183.855-.162.647-.379 1.28-.514 1.934-.127.611-.282 1.217-.425 1.826-.05.213-.117.423-.148.639-.067.486-.184.962-.272 1.443-.068.368-.151.734-.16 1.11-.007.249-.02.499-.01.748.02.558.2 1.085.384 1.605.11.28.16.58.148.88-.007.094-.011.187-.019.28-.014.177-.04.354-.042.53 0 .313-.017.626-.05.937-.07.611-.136 1.224-.213 1.834a7.136 7.136 0 0 1-.303 1.372c-.039.118-.08.236-.116.354-.045.139-.075.283-.133.416a3.718 3.718 0 0 1-.51.898c-.027.043-.009.091.036.095.063.004.128 0 .19.006.134.017.214-.035.276-.157.19-.373.34-.762.495-1.146.078-.17.145-.345.202-.524.12-.442.205-.892.255-1.347.04-.373.08-.745.124-1.119.013-.114.041-.226.052-.339.032-.363.052-.728.09-1.089.052-.498.05-1-.008-1.498a1.185 1.185 0 0 0-.066-.336c-.207-.463-.246-.968-.382-1.448a.958.958 0 0 1-.042-.309c.02-.364.036-.73.086-1.089.045-.329.135-.652.197-.98.063-.337.111-.678.172-1.017.07-.4.169-.794.272-1.188.117-.443.202-.893.301-1.34.035-.153.065-.307.107-.459.129-.473.264-.944.393-1.417.047-.172.086-.344.12-.516.088-.439.157-.882.258-1.318.134-.58.255-1.161.34-1.75.059-.392.109-.784.159-1.178.012-.093.007-.187.013-.28.006-.094.01-.187.022-.28.053-.382.104-.764.166-1.146.052-.32.099-.639.124-.962.023-.301.084-.6.107-.9.05-.634.098-1.27.123-1.905.034-.854.09-1.708.08-2.564-.004-.364.024-.73.035-1.095.01-.333.03-.667.017-1-.007-.18.017-.326.15-.453a.297.297 0 0 0 .067-.133.951.951 0 0 0 .018-.153c.033.05.063.102.09.156.015.038.01.083.024.122.003.009.045.012.066.008.059-.012.103-.008.13.05.058.126.07.039.103-.016a.047.047 0 0 1 .05-.029c.01.002.02.006.028.013a.047.047 0 0 1 .014.027c.01.029.005.062.015.09.004.009.01.016.017.022.007.006.016.01.025.012.012 0 .033-.021.037-.036a.309.309 0 0 0 .009-.093c-.006-.145.1-.223.191-.307.008-.007.032 0 .047.007.005 0 .005.019.007.03.022.134.022.133.163.165.017.003.031.026.042.043.058.093.036 0 .047-.019.011-.019.026-.057.048-.07.031-.021.07.018.07.073-.002.055-.011.124-.014.186v.12a.133.133 0 0 0 .066-.13c.002-.062.009-.124.02-.186a.297.297 0 0 1 .018-.091.112.112 0 0 1 .062-.058c.059-.01.066.04.068.08.004.084 0 .167 0 .25 0 .074 0 .147.01.22.002.026.016.069.058.046.095-.048.178-.07.23.054 0 .004.046 0 .048-.01.01-.04.02-.08.025-.12.026-.133.05-.265.078-.401 0-.01.011-.017.017-.026.013.013.034.024.038.04.011.05.02.1.024.15.012.115.02.23.032.344.007.063.059.086.11.097.13.025.201-.012.241-.136a.902.902 0 0 0 .039-.212c.005-.073-.005-.146 0-.22 0-.023.024-.045.038-.068a.172.172 0 0 1 .028.054c.021.165.038.331.059.496.01.08.052.1.133.085.123-.023.176-.103.201-.213.013-.06.019-.123.035-.183.011-.04.168-.102.193-.075a.186.186 0 0 1 .032.111c0 .083-.006.167-.005.25 0 .022.023.042.035.063.073-.081.22.042.272-.096.007-.015.024-.026.036-.039l.067.062a.771.771 0 0 0 .043-.108.964.964 0 0 0 .03-.184c.006-.175.006-.351.011-.528 0-.023.023-.047.035-.07.02.022.053.041.058.066.024.122.042.245.052.368.007.104-.014.21 0 .313.006.054.037.004.052-.01.016-.015.03-.045.041-.043.058.011.117.03.178.045.017-.067.034-.133.054-.2a.197.197 0 0 1 .028-.054.032.032 0 0 1 .028-.01.1.1 0 0 1 .05.024.11.11 0 0 1 .02.058c.006.04.008.082.012.123l.035-.122c.03-.11.058-.22.094-.328.007-.02.05-.032.078-.04.008 0 .035.027.036.043 0 .062-.007.125-.005.187 0 .072.01.145.015.217.016-.066.032-.131.046-.197.018-.093.033-.185.052-.277a.157.157 0 0 1 .036-.084.21.21 0 0 1 .108-.057c.065-.008.05.054.05.087.005.114 0 .23.004.344.005.03.015.058.03.085.013-.024.035-.049.037-.073.005-.126.002-.25.008-.376.002-.083.013-.165.033-.245.006-.023.067-.04.105-.044.015 0 .05.04.05.058-.004.103-.015.206-.026.309-.009.082-.022.164-.03.246 0 .017-.018.058.015.052a.396.396 0 0 0 .025-.055c.02-.063.079-.48.14-.624a.045.045 0 0 1 .024-.019c.013.01.033.023.034.036.003.05.005.102.006.153-.026.108-.073.373-.073.373-.005.036.026.047.032.03.007-.019.114-.287.148-.428l.036.09-.04.16.004.007c.075.012.083.073.099.128-.101.459-.196.917-.304 1.376-.175.73-.292 1.47-.492 2.195-.186.683-.327 1.379-.47 2.073-.092.448-.17.9-.22 1.355-.058.558-.135 1.118-.074 1.684.007.083.007.166 0 .25-.027.426-.05.852-.08 1.278-.035.467-.049.936-.09 1.403-.037.402-.029.813-.032 1.22 0 .218.013.436.023.654l.076 1.657c.007.135.02.27.035.404.047.425.109.849.14 1.275.036.477.057.955.064 1.433.003.553.095 1.102.271 1.627.047.14.07.285.068.43 0 .105.007.21.009.314a7.36 7.36 0 0 1-.153 1.583c-.042.204-.078.41-.107.616-.033.237-.054.476-.083.714-.063.516-.132 1.032-.192 1.552-.065.548-.143 1.096-.128 1.651.003.115.006.23.006.344-.003.897-.027 1.795.033 2.69.036.54-.027 1.085.098 1.62-.017.286.107.552.108.834 0 .064.048.085.107.085a.237.237 0 0 0 .094-.004c.032-.014.08-.047.079-.07-.024-.395-.035-.794-.09-1.185-.072-.52-.069-1.039-.058-1.56l.017-.907c0-.136-.005-.273.009-.407.03-.228.03-.46 0-.687a1.272 1.272 0 0 1 0-.25c.007-.198.017-.395.024-.592.007-.177.004-.355.019-.53.035-.426.09-.85.113-1.276.018-.335.08-.662.121-.993.046-.372.094-.743.143-1.114.037-.28.083-.557.117-.837.053-.434.103-.87.148-1.305a.765.765 0 0 0-.015-.218c-.039-.204-.064-.412-.146-.607a.97.97 0 0 1-.064-.242 13.417 13.417 0 0 1-.143-1.616c-.008-.688-.077-1.375-.15-2.058-.013-.124-.045-.247-.052-.371-.032-.52-.058-1.041-.085-1.562-.005-.083 0-.167-.01-.25a11.965 11.965 0 0 1-.032-1.564c.008-.25 0-.5.004-.75.005-.187.02-.374.033-.56.029-.437.11-.87.088-1.31a7.522 7.522 0 0 1 .015-.939c.045-.591.104-1.182.171-1.772.042-.361.113-.72.168-1.08.094-.619.284-1.217.414-1.828.033-.153.093-.299.128-.451.07-.304.13-.61.195-.917.145-.693.273-1.389.483-2.068.138-.446.224-.907.333-1.362.044-.182.093-.364.127-.548.058-.317.093-.64.162-.954.082-.377.19-.746.286-1.12.02-.078.026-.162.104-.21.045.056.089.114.133.171.006.008.007.02.013.029.282.506.44 1.057.596 1.608.117.42.21.848.37 1.256.054.125.093.254.117.387.077.546.126 1.096.144 1.646.015.47 0 .94.005 1.409 0 .292.006.584.028.875.055.708.096 1.416.08 2.126a3.65 3.65 0 0 0 .01.632c.051.344.026.688.024 1.032-.002.554-.125 1.097-.16 1.648a.33.33 0 0 1-.012.061c-.06.254-.09.514-.09.774a3.42 3.42 0 0 1-.049.53 8.923 8.923 0 0 0-.175 1.614c-.002.104-.01.208-.025.312-.052.424-.107.847-.158 1.271-.053.445-.062.895-.165 1.334a1.314 1.314 0 0 0-.01.25 3.78 3.78 0 0 1-.07.62 9.174 9.174 0 0 0-.21 1.892c.003.146 0 .292-.012.438-.066.593-.059 1.188-.049 1.782.005.365-.01.731.066 1.093.058.286.108.573.162.86.01.072.024.143.044.214.099.286.2.57.307.853.11.292.228.58.362.864.089.2.198.39.327.568.06.073.112.153.154.237.153.35.405.635.632.935.156.198.287.413.39.641.13.308.282.606.458.89.166.265.3.552.517.784a.245.245 0 0 1 .029.058c.243.46.521.9.833 1.318.055.077.097.162.155.236.052.064.11.124.175.178a.106.106 0 0 0 .09.013c.02-.008.035-.047.038-.074a.685.685 0 0 0-.006-.124c-.042-.646-.08-1.29-.019-1.937.008-.083.008-.167.009-.25 0-.407.022-.813.065-1.218.05-.425.075-.852.111-1.278.03-.344.07-.688.087-1.028.025-.47.034-.939.048-1.408.01-.354.013-.71.029-1.064.027-.573.07-1.141.09-1.713.01-.355-.007-.711-.01-1.064ZM10.188 21.838c-.026.046-.042.096-.066.142-.212.409-.358.842-.502 1.276-.131.395-.269.786-.405 1.179a6.014 6.014 0 0 0-.26 1.058c-.041.272-.187.475-.337.684-.007.009-.024.01-.037.013a.29.29 0 0 1 .026-.085c.086-.254 0-.221-.02-.193a1.92 1.92 0 0 0-.159.273c-.068.131-.027.147-.124.295.003.04.003.08 0 .119-.005.037-.021.103-.035.104-.046 0-.053-.022-.053-.049h.003c0-.03.002-.06.005-.089.007-.039.13-.358.083-.373-.014-.005-.158.307-.175.33a.369.369 0 0 0-.053.108l-.007.007c-.007-.017-.023-.035-.02-.05.009-.062.024-.122.038-.182.01-.04.025-.08.03-.12 0-.013-.018-.04-.029-.04-.01 0-.033.017-.052.025a.251.251 0 0 0-.058.112c0 .01-.02.017-.033.023 0 0-.017-.014-.016-.02 0-.04.058-.167.064-.208.01-.084.103-.157.028-.251-.048.066-.097.131-.143.198a1.535 1.535 0 0 1-.058.141.87.87 0 0 1-.014-.115.277.277 0 0 1 .02-.091.264.264 0 0 0-.025-.267.248.248 0 0 1-.025-.204c.155-.86.403-1.702.61-2.551.075-.302.197-.594.302-.888.126-.353.258-.703.387-1.055.007-.02.005-.041.011-.061.006-.02.117-.255.122-.267.004.02-.09.273-.09.293 0 .051-.028.131.053.123.023-.02.03-.065.04-.083.008-.019.15-.433.16-.443.004.02-.113.462-.121.47a.304.304 0 0 0-.033.139c.004.047.036.12.07.081.062-.069.242-.968.104.065.005.123.013.16.117.165.098.004.35-.433.148.115a.098.098 0 0 0-.008.06c.007.015.031.023.05.032.007.003.026 0 .029-.004a.776.776 0 0 0 .054-.108l.21-.582c.004-.007.023-.016.027-.014.012.01.032.024.031.035 0 .01-.018.037-.024.057-.026.068-.051.136-.074.205a.562.562 0 0 0-.049.172c0 .09.188-.206.233-.172.01.009.068-.055.059-.012-.02.084-.114.302-.05.344.026.017.264-.454.282-.44.053.045-.225.546-.241.574Zm.409-.856a2.383 2.383 0 0 1-.103.14.993.993 0 0 1 .121-.286c.005-.008.017-.012.025-.018l.025.046-.07.118h.002Zm3.559.598c0 .014-.026.026-.04.039a.251.251 0 0 1-.032-.04c-.004-.008 0-.02.004-.073 0 0 .008-.037.019-.075 0-.005.018-.008.027-.007.01 0 .023.006.023.01a1.02 1.02 0 0 1 0 .146h-.001Zm3.21.145a.254.254 0 0 1-.029-.043 2.445 2.445 0 0 1-.102-.287 1.068 1.068 0 0 1-.014-.24c0-.01.028-.023.044-.033 0 0 .018.011.02.02l.09.343a1.324 1.324 0 0 0-.035.162.205.205 0 0 0 .025.078Zm5.032 2.964c-.058.033-.029-.027-.047-.038-.018-.01-.027-.034-.042-.035-.014 0-.035.02-.04.034-.022.069-.025.148-.061.208-.05.083-.04-.012-.053-.027-.047-.058-.063-.02-.077.022-.006.02-.005.057-.014.057l-.068-.278c-.055-.022-.056.027-.084.04a.17.17 0 0 0-.181-.045l-.066.02a.792.792 0 0 1-.041-.333c.024-.425.02-.851-.013-1.276-.036-.49-.141-.967-.19-1.453a2.097 2.097 0 0 1-.023-.248c.007-.263.101-.287.279-.287.064 0 .1-.015.113-.074.02-.081.037-.162.056-.243a.22.22 0 0 1 0-.058c.003-.012.017-.02.027-.032.006.009.01.018.012.028v.057a.39.39 0 0 1 .071.1c.018.072.033.145.043.22.038-.07.045-.157.125-.204.055-.034-.009-.071-.005-.107a.165.165 0 0 1 .024-.05c.018.013.052.028.053.043a2.09 2.09 0 0 0 .058.548c.051.186.028.392.038.59.021.445.03.893.068 1.338.033.371.101.74.153 1.11.01.061.015.123.021.185.011.103-.062.145-.136.188ZM67.177 15.465a.76.76 0 0 0-.139-.068c-.078-.028-.171-.03-.233-.075-.19-.131-.367-.281-.553-.418-.067-.05-.074-.12-.1-.186l.01-.094.067.04c.05.016.101.031.15.05.108.04.215.084.324.125a.112.112 0 0 0 .139-.045c.074-.114.028-.224-.093-.273a9.708 9.708 0 0 1-.637-.276c-.08-.039-.102-.143-.089-.22.013-.077.101-.038.159-.037.074.007.148.009.222.005a.33.33 0 0 0 .14-.062.094.094 0 0 0 .03-.034.09.09 0 0 0-.04-.12 1.667 1.667 0 0 0-.333-.09.27.27 0 0 1-.171-.069.263.263 0 0 1-.086-.16.075.075 0 0 1-.003-.038.077.077 0 0 1 .014-.035.084.084 0 0 1 .03-.023.083.083 0 0 1 .038-.007c.17-.003.34-.007.509 0a.33.33 0 0 0 .209-.058c.088-.062.088-.147-.007-.188a.534.534 0 0 0-.175-.046c-.19-.01-.382-.012-.572-.016a.804.804 0 0 1-.573-.23.176.176 0 0 1-.026-.053.28.28 0 0 1 .058-.012l.573.013c.084 0 .168.01.253.009a.061.061 0 0 0 .045-.038.118.118 0 0 0-.016-.083c-.09-.103-.219-.12-.345-.138-.136-.02-.273-.033-.409-.057a.066.066 0 0 1-.03-.011.061.061 0 0 1-.02-.023.062.062 0 0 1-.007-.03c0-.011.003-.022.008-.03.164-.304.323-.61.5-.904a1.32 1.32 0 0 0 .19-.654c.004-.166.016-.333.024-.5.007-.135.016-.27.02-.405a.074.074 0 0 0-.028-.069.077.077 0 0 0-.075-.01c-.26.119-.52.238-.777.361a.579.579 0 0 0-.127.093c-.104.089-.204.181-.307.269-.23.194-.377.448-.536.693-.022.172-.125.305-.196.455-.052.111-.12.221-.068.356.02.05-.027.072-.071.075a.422.422 0 0 1-.127-.008c-.237-.057-.473-.106-.709.008-.014.006-.065-.023-.068-.04a.93.93 0 0 1-.01-.218.686.686 0 0 0-.123-.44 5.002 5.002 0 0 1-.34-.631 1.477 1.477 0 0 0-.626-.683 2.275 2.275 0 0 1-.339-.23 1.169 1.169 0 0 0-.323-.193c-.131-.058-.15-.045-.136.085l.07.59c.059.464.095.932.24 1.382.016.05.02.103.015.154a.08.08 0 0 1-.066.045.367.367 0 0 1-.113-.05c-.226-.126-.477-.172-.727-.22a.18.18 0 0 0-.13.064c-.015.017.008.077.026.11.048.09.14.122.234.151.151.048.303.094.452.146.021.008.032.05.041.077 0 .004-.026.027-.042.028-.095.008-.19.017-.286.017a.695.695 0 0 0-.334.091c-.092.05-.09.133 0 .194a.233.233 0 0 0 .18.04.531.531 0 0 1 .153 0c.011 0 .021.029.028.046a.032.032 0 0 1-.006.029.496.496 0 0 1-.117.051c-.103.022-.208.034-.312.057-.063.014-.078.062-.037.115.04.053.09.115.137.172a.098.098 0 0 0 .064.042.1.1 0 0 0 .076-.017c.055-.03.102-.075.157-.107a2.02 2.02 0 0 1 .226-.11c.054-.023.102.012.116.072.026.125.006.182-.1.232-.124.058-.252.109-.378.164-.087.037-.175.074-.258.119a.094.094 0 0 0-.03.034.093.093 0 0 0-.01.044c.01.036.038.086.068.094a.345.345 0 0 0 .182.008c.152-.044.3-.103.45-.153.012-.004.038.011.049.024a.067.067 0 0 1 .016.057.504.504 0 0 1-.075.135 1.623 1.623 0 0 1-.505.374.786.786 0 0 0-.175.13.08.08 0 0 0 .002.04c.004.014.01.026.02.036.046.022.097.03.147.023.112-.033.217-.084.327-.122.021-.007.168-.057.183-.037.015.019-.084.133-.098.147a3.55 3.55 0 0 1-.227.218c-.095.083-.193.162-.287.246-.031.027-.058.063-.018.107.04.044.08.062.137.025.088-.057.18-.107.268-.165.088-.058.187-.132.28-.198.08.111.02.235.033.352v.063a.293.293 0 0 1-.12.276 8.498 8.498 0 0 1-.46.335c-.05.035-.116.053-.116.131 0 .054.08.09.183.073.061-.01.12-.027.176-.053.076-.035.145-.083.218-.124a.075.075 0 0 1 .073-.007.077.077 0 0 1 .03.023.08.08 0 0 1 .014.034c.04.383.085.766.117 1.147.025.321.093.618.359.837.02.024.037.05.05.08.105.007.21.02.312.038.257.062.52.09.784.083.232-.013.465.011.69.07.131.035.267.052.4.083.09.021.187.037.255.11a7.18 7.18 0 0 1 .927-.401c.197-.074.379-.183.536-.321.157-.128.267-.292.408-.427a.71.71 0 0 0 .224-.56 1.701 1.701 0 0 1 .003-.186.079.079 0 0 1 .016-.035.081.081 0 0 1 .069-.032c.012 0 .025.004.037.01.11.062.221.12.328.186.073.046.14.024.208-.005.085-.038.096-.112.02-.167a21.974 21.974 0 0 0-.566-.401.461.461 0 0 1-.212-.364.062.062 0 0 1 .02-.054.11.11 0 0 1 .082-.008c.117.073.223.157.341.226a.544.544 0 0 0 .46.03.068.068 0 0 0 .023-.018.069.069 0 0 0 .013-.028.067.067 0 0 0-.002-.03.06.06 0 0 0-.015-.026Zm-4.3-1.86a.6.6 0 0 1-.269.368.405.405 0 0 1-.447.006.266.266 0 0 1-.15-.222c0-.052-.005-.103-.008-.143-.04-.326.152-.423.467-.476.336-.057.493.14.407.466Zm1.724-.226c.282-.145.55-.052.677.24.015.038.02.08.016.12-.005.063-.023.123-.032.185-.034.222-.064.248-.292.243-.047-.003-.11-.005-.175-.013-.208-.024-.302-.181-.38-.34-.054-.107.076-.379.186-.435Zm.723 3.933c-.15.095-.286.213-.467.25a.236.236 0 0 1-.203-.046c-.247-.176-.5-.348-.759-.511a2.544 2.544 0 0 0-.286-.127 7.062 7.062 0 0 1-.364-.186.057.057 0 0 1 .018-.097c.083-.014.167-.023.192-.026.19-.01.378.02.555.084a.78.78 0 0 0 .182.058c.31.043.58.183.853.322a.876.876 0 0 1 .266.213c.015.018.061.035.013.066Z" fill="#362D36"/><path d="M15.274 42.657c-.02-.626-.126-1.242-.23-1.858a1.377 1.377 0 0 1-.036-.279c.007-.222-.048-.435-.09-.648-.138-.694-.295-1.384-.433-2.078a4.587 4.587 0 0 1-.104-.802c-.007-.428-.085-.853-.038-1.28a.28.28 0 0 0-.01-.094.18.18 0 0 0-.158-.134.176.176 0 0 0-.153.097c-.02.036-.03.078-.045.115-.139.338-.25.686-.33 1.042-.113.466-.21.938-.351 1.394-.135.43-.254.86-.35 1.3-.12.56-.272 1.112-.46 1.654-.11.316-.2.638-.264.966a6.641 6.641 0 0 0-.066 1.962c.074.6.113 1.204.117 1.809-.003.333.033.666.035 1a11.96 11.96 0 0 1-.078 1.622c-.085.66-.16 1.323-.246 1.984-.043.33-.123.658-.142.99-.03.511-.17 1.005-.223 1.512-.03.29-.08.577-.076.87.005.363-.049.316.354.316.077 0 .106-.034.107-.12 0-.251.004-.502 0-.752a1.847 1.847 0 0 1 .089-.617c.15-.452.185-.917.2-1.388.019-.531.078-1.059.15-1.586.064-.475.117-.952.167-1.428.017-.155.013-.313.032-.468.058-.467.033-.935.023-1.404-.004-.24-.015-.479-.026-.718-.015-.344-.024-.688-.048-1.032-.03-.436-.071-.871-.108-1.307 0-.69.116-1.376.344-2.029.109-.327.223-.65.306-.985.117-.465.25-.926.373-1.39.068-.262.116-.53.196-.789.097-.319.17-.645.218-.974.018-.092.042-.182.072-.27a.188.188 0 0 1 .033-.05c.005.016.008.031.011.047.03.28.043.562.092.839.103.573.225 1.146.34 1.72.052.265.12.53.154.797.04.32.068.641.12.96.083.525.139 1.054.204 1.581a.77.77 0 0 1 .007.187c-.034.29-.064.58-.11.868-.038.237-.106.469-.143.705-.059.38-.11.763-.16 1.146-.017.124-.024.249-.037.374-.035.331-.075.663-.104.994-.029.332-.08.667-.058.997.048.79.046 1.583.092 2.374.037.633.04 1.269.008 1.902-.015.281.005.563-.055.843a3.8 3.8 0 0 0-.058.495c-.01.135-.014.271-.014.406 0 .023.033.065.052.065.136 0 .272-.005.408-.009.075-.105.028-.222.033-.333.008-.146-.006-.292-.005-.439 0-.135.006-.27.012-.405.009-.177.027-.354.027-.53 0-.23-.017-.459-.023-.688-.013-.49-.02-.98-.035-1.47-.015-.458-.045-.916-.058-1.375-.01-.344-.014-.688 0-1.031.015-.396.05-.791.078-1.187.02-.405.06-.81.122-1.21.017-.093.022-.187.033-.28.03-.31.08-.62.154-.923.066-.252.094-.512.138-.768.006-.073.017-.145.034-.217a.765.765 0 0 0 .013-.34c-.009-.082-.023-.165-.023-.248ZM39.941 41.075c-.044-.235-.045-.478-.094-.711a12.248 12.248 0 0 0-.259-1.032c-.127-.419-.272-.833-.368-1.26a2.22 2.22 0 0 0-.088-.269c-.144-.39-.291-.782-.437-1.172a.54.54 0 0 0-.092-.16.137.137 0 0 0-.132-.037.135.135 0 0 0-.097.094.223.223 0 0 0-.013.06c-.011.257-.104.488-.218.714-.052.103-.095.21-.127.32-.153.521-.344 1.029-.531 1.538-.09.244-.158.497-.251.74a15.003 15.003 0 0 0-.56 1.82c-.089.355-.128.72-.117 1.084.01.322.02.643.033.964.036.843.119 1.684.249 2.518.058.39.1.785.13 1.18.042.533-.059 1.059-.142 1.582-.034.206-.075.41-.111.614-.032.172-.05.352-.093.523a5.964 5.964 0 0 0-.196 1.294c.003.24-.01.478-.038.716a4.323 4.323 0 0 1-.532 1.56.194.194 0 0 0-.037.083c0 .015.003.029.01.042a.093.093 0 0 0 .027.035c.039.015.08.024.123.025.233.023.241.025.332-.182.107-.227.196-.461.266-.701.112-.434.2-.875.282-1.318.053-.287.112-.574.099-.868a3.982 3.982 0 0 1 .094-.957c.07-.344.1-.702.188-1.044.12-.474.124-.954.092-1.43-.047-.696-.134-1.39-.21-2.083-.05-.458-.114-.91-.169-1.366a2.263 2.263 0 0 1-.026-.344c.01-.28.03-.56.047-.841-.028-.324-.04-.646.058-.962.176-.567.328-1.14.537-1.7.205-.545.366-1.107.548-1.661l.291-.892a1.56 1.56 0 0 1 .074-.172c.008-.016.03-.039.042-.038.01.003.02.008.027.015a.067.067 0 0 1 .018.024c.073.172.156.344.211.52.13.418.248.84.37 1.261.058.21.113.423.175.631.1.331.121.676.186 1.013.029.133.05.267.062.401.025.406.051.812.058 1.218.014.568-.081 1.34-.215 1.918-.175.751-.314 1.508-.46 2.265-.088.45-.14.906-.187 1.361-.027.25-.056.499-.097.746-.14.78-.237 1.567-.292 2.357a107.29 107.29 0 0 1-.12 1.809c-.016.217-.008.436.025.652.018.124.028.248.04.373.01.084.038.118.113.122.085.005.17.006.255.006a.098.098 0 0 0 .086-.033.098.098 0 0 0 .02-.088.91.91 0 0 0-.013-.093 5.194 5.194 0 0 1-.068-1.71c.018-.144.027-.29.028-.435.003-.46.033-.918.09-1.373.027-.217.057-.433.092-.65.046-.307.094-.616.142-.923.015-.093.04-.184.049-.277.06-.705.166-1.406.319-2.098.058-.255.138-.504.182-.76.117-.667.23-1.336.325-2.007.062-.443.128-.889.1-1.339-.03-.403-.03-.81-.105-1.212ZM17.364 4.498c-.043.458.003.917.04 1.376l.346.017c.013-.102.016-.205.008-.308-.049-.309-.02-.617-.015-.926.003-.196.015-.393.012-.588-.004-.196-.027-.372.058-.545 0-.058.023-.112.024-.17 0-.007.01-.014.015-.022.006.008.017.016.017.024 0 .058-.003.115-.005.172a.212.212 0 0 0 .031.052c.05.042.049-.017.055-.035.032-.088-.035-.191.043-.273.052.095.105.19.154.287.01.017.004.04.009.06 0 .01.013.017.019.024.008-.01.021-.02.023-.031.006-.125.011-.249.018-.373a.473.473 0 0 1 .011-.062c.013.02.023.042.03.065a4.42 4.42 0 0 1-.143 1.966c-.074.237-.117.483-.175.725.01.002.02.003.031.003.227-.012.453.036.656.138.07-.091.135-.186.195-.284.18-.33.425-.617.648-.917.088-.102.184-.198.287-.286l.135-.239a.23.23 0 0 1 .019-.054.2.2 0 0 1 .042-.036c.01.013.033.029.03.038a.797.797 0 0 1-.042.095.29.29 0 0 1-.124.255v.085c.025-.01.063-.011.073-.029.037-.065.073-.096.143-.035.007.006.062-.018.07-.037.031-.087.047-.18.082-.266.017-.04.065-.068.1-.102.003.04.008.08.016.12.004.015.021.027.032.04a.46.46 0 0 0 .032-.05c.012-.029.02-.058.032-.087.003-.005.02-.008.029-.007.01.002.021.012.02.018a1.265 1.265 0 0 1-.16.494c-.246.4-.532.776-.852 1.122-.127.14-.256.277-.385.415.067.148.19.264.342.326.319-.374.706-.681 1.057-1.023.23-.213.47-.414.721-.602.188-.149.387-.287.581-.426.021-.014.055-.045.064-.04.049.031.015.062-.009.09-.063.048-.133.133-.121.155.142.018.375-.198.613-.364.054-.057.107-.11.164-.163.02-.017.151-.143.155-.172.015.027-.353.483-.339.51 0 0 .036.052.076-.02.09-.168.373-.467.4-.455.029.012-.1.208.065.023a.403.403 0 0 1 0 .075c-.008.045-.28.286-.292.333.03.064.277-.23.3-.233.012-.019.053-.01.066-.03l.02.023c-.02.012-.021.034-.04.045-.012.034-.041.058-.052.09l-.066.057a.144.144 0 0 0-.017.026c-.164.396-.476.68-.783.962-.553.5-1.16.94-1.809 1.31-.154.092-.322.157-.498.195.046.11.055.238.148.329.597-.28 1.13-.657 1.666-1.032.295-.203.57-.433.821-.688.271-.278.554-.546.82-.829.281-.298.561-.599.818-.917.33-.407.641-.828.948-1.254.121-.168.204-.364.3-.549.008-.018-.013-.05-.02-.077a.194.194 0 0 0-.058.02c-.18.13-.35.274-.537.39-.253.152-.52.28-.78.422-.419.23-.831.465-1.161.816-.154.16-.333.293-.531.395-.338.18-.658.382-.925.659-.088.09-.184.172-.28.255-.096.084-.18.146-.274.214a.082.082 0 0 1-.122-.026.08.08 0 0 1-.01-.044c0-.094.037-.185.104-.252.219-.244.298-.552.34-.86.033-.248.106-.489.217-.714.179-.365.427-.696.55-1.089.02-.067.082-.12.116-.186.034-.075.063-.151.087-.23 0-.005-.03-.032-.04-.029a.185.185 0 0 0-.08.044 5.138 5.138 0 0 1-.636.614c-.08.064-.136.16-.205.238-.104.115-.208.236-.317.349-.366.375-.784.703-1.054 1.164-.111.189-.238.369-.379.538-.251.31-.475.64-.67.986a.794.794 0 0 1-.104.156.168.168 0 0 1-.11.04c-.043 0-.085-.078-.068-.124.03-.078.064-.153.104-.226.255-.449.378-.957.358-1.47-.023-.574-.075-1.147-.117-1.717a1.745 1.745 0 0 0-.035-.247c-.076-.344-.156-.69-.234-1.036a2.078 2.078 0 0 0-.063-.241c-.012-.033-.052-.057-.079-.084-.02.023-.05.043-.058.07-.039.108-.069.218-.108.326-.053.146-.117.29-.167.438-.06.166-.117.333-.17.502-.074.24-.167.476-.21.72-.077.431-.134.866-.089 1.307.017.136.021.272.012.408ZM50.36 15.018c-.109-.266-.227-.526-.344-.786a.66.66 0 0 0-.088-.135c-.268-.338-.525-.691-.85-.956a.806.806 0 0 1-.145-.149.942.942 0 0 0-.354-.287c-.205-.102-.418-.182-.628-.268a.368.368 0 0 0-.28.019c-.178.066-.315.215-.466.33a.166.166 0 0 0-.03.045c-.024.038-.007.108.032.115.055.008.11.003.166.01.125.016.261.006.374.061.147.065.279.16.387.277.065.068.136.13.211.185.25.199.48.42.688.66.14.18.252.38.328.594.043.114.082.226.125.338.034.09.016.157-.058.172-.21.04-.421.095-.636.075a1.648 1.648 0 0 0-.97.223c-.386.217-.632.415-.923.91-.09.156-.16.328-.238.495a.062.062 0 0 0 .014.048c.005.005.011.009.019.011a.044.044 0 0 0 .022 0 .288.288 0 0 0 .083-.054.684.684 0 0 1 .603-.198c.157.016.315.026.474.029.382.013.764-.024 1.136-.11.03-.008.067-.02.077.027a.102.102 0 0 1-.026.074c-.114.118-.233.229-.346.35a1.18 1.18 0 0 0-.192.21c-.11.17-.238.327-.383.468a1.454 1.454 0 0 0-.203.279c-.11.194-.189.403-.233.62a.756.756 0 0 0-.018.307c.018.092.034.186.055.278.034.154.128.259.222.36.006.006.045-.014.053-.032a.14.14 0 0 0 .007-.082c-.041-.2.03-.374.088-.55a.33.33 0 0 1 .128-.159c.181-.136.35-.291.53-.437.208-.172.4-.377.641-.485l.584-.26.02-.16c-.157.065-.311.142-.471.191-.096.03-.2.016-.301.022-.058-.136-.11-.046-.165 0a.043.043 0 0 1-.02.014c-.015 0-.033.008-.043 0a.06.06 0 0 1-.012-.023.06.06 0 0 1-.002-.025.614.614 0 0 1 .039-.104.095.095 0 0 0 .016-.076.1.1 0 0 0-.046-.064c-.015-.01-.021-.045-.023-.07a.878.878 0 0 0 0-.114c-.059-.216.035-.349.175-.453.087-.065.18-.114.27-.174a.053.053 0 0 0 .015-.018.051.051 0 0 0 .005-.022.06.06 0 0 0-.029-.042c-.053-.017-.11-.048-.16-.037-.102.024-.121-.108-.192-.135.059-.021.182-.065.175-.121a.215.215 0 0 0-.08 0 .889.889 0 0 1-.124 0 .064.064 0 0 1-.032-.036.052.052 0 0 1 .02-.042.244.244 0 0 1 .07-.016c.068-.011.088-.063.09-.14 0-.045-.011-.069-.048-.07h-.141c-.1 0-.148-.025-.128-.06.035-.062.085-.03.129-.03a.825.825 0 0 1 .14.006c.049.006.074-.014.08-.073.007-.074-.012-.124-.064-.124-.101 0-.203.011-.304.018-.042-.02-.016-.047-.024-.07.098-.05.2-.038.301-.028a.138.138 0 0 0 .068-.016.057.057 0 0 0 .027-.04.048.048 0 0 0-.02-.04.526.526 0 0 0-.07-.012c-.005 0-.015-.013-.014-.017 0-.005.008-.029.013-.03.093-.014.187-.026.28-.037.016 0 .032.005.047.003.158-.023.22-.148.144-.321-.083-.194-.13-.402-.197-.602 0-.021-.005-.043-.008-.064l.043.026c.091.044.13.146.19.229.016.024.038.074.067.024.012-.02-.006-.066-.01-.1l-.04-.053-.08-.137a.77.77 0 0 1-.059-.07c-.004-.005.005-.026.01-.037a.019.019 0 0 1 .02-.003c.018.023.034.046.05.07.028.044.088.108.09.136l.047.057a.25.25 0 0 0 .052.048c.02.004.039.004.058 0 0-.014.004-.031 0-.04l-.16-.272v-.004a.081.081 0 0 1 .013-.066c.016-.012.051-.016.063-.003.04.043.07.101.111.143.042.042.058.165.157.15.017-.003.045.045.06.076a3.6 3.6 0 0 1 .131.27c.096.226.187.458.282.682.046.108.077.23.175.295l.044-.022a3.126 3.126 0 0 0-.153-.354 3.37 3.37 0 0 1-.203-.415Zm-2.428-2.166a.866.866 0 0 1-.134.048c-.116-.019-.213-.03-.306-.05-.027-.006-.068-.037-.07-.058a.254.254 0 0 1 .031-.129.137.137 0 0 1 .08-.057c.108-.026.218-.049.327-.065.063-.01.12.045.143.123a.17.17 0 0 1-.071.188Zm-.68 3.774c-.093.023-.185.04-.285.058l-.052-.027c.007-.017.012-.035.02-.05.04-.069.08-.138.123-.205.048-.078.15-.063.184.027a.594.594 0 0 1 .034.134c0 .021-.015.06-.025.063Zm.849 2.121a.516.516 0 0 0-.165.36.563.563 0 0 1-.042.132l-.017.053a.27.27 0 0 1-.027-.061c-.023-.11-.044-.22-.065-.326.017-.07.028-.136.047-.196.024-.076.059-.1.128-.093a.89.89 0 0 1 .117.024.068.068 0 0 1 .038.047.066.066 0 0 1-.017.058l.003.002ZM34.276 2.906c.13.275.262.548.402.817.178.344.372.677.546 1.02.175.344.475.606.68.934.158.255.372.478.576.702.304.333.619.657.934.981.19.197.353.416.484.654.128-.04.15-.15.18-.255-.3-.418-.691-.754-1.038-1.131-.17-.184-.34-.366-.508-.552a9.294 9.294 0 0 1-.315-.395l.059.045c.003.002.18.195.203.217.024.021.072.03.07.018a4.15 4.15 0 0 0-.18-.248l-.218-.233-.129-.186a.278.278 0 0 1 .043-.094c.03-.018.096-.036.106-.024.081.104.153.215.227.323l.186.246c.025.03.047.063.066.098.021.03.045.058.071.085.013.006.058.048.058.027a.25.25 0 0 0-.03-.08l-.065-.114a.071.071 0 0 0-.008-.021 1.584 1.584 0 0 0-.13-.212c-.03-.043-.069-.079-.095-.124a.091.091 0 0 1 0-.082c.006-.007.018-.008.032-.009.022.015.044.034.044.043 0 .008.022.024.042.04.02.02.044.036.07.048.009 0 .074.017.042-.017-.031-.034-.058-.062-.07-.079l-.03-.046a2.677 2.677 0 0 0-.189-.22c.039-.041.063-.016.086.017l.073.048c.045.03.088.061.134.087l.059.066.137.158s.103.108.117.125a.157.157 0 0 0 .043.043c.027.018.083.005.036-.05a.793.793 0 0 0-.065-.066l-.008-.006-.184-.21-.056-.049h.005a1.396 1.396 0 0 1-.103-.14.077.077 0 0 1 .009-.076.088.088 0 0 1 .082-.004c.133.12.264.24.39.366.11.11.206.237.323.343.308.287.562.623.752.995.064.12.136.235.198.355.038.074.063.154.093.23.183-.068.284-.23.42-.354-.158-.396-.316-.792-.472-1.188-.041-.107-.074-.217-.12-.321a.397.397 0 0 1-.033-.27.697.697 0 0 0-.046-.397c-.049-.133-.1-.274-.047-.422.005-.014.027-.034.037-.031a.062.062 0 0 1 .042.036c.053.21.096.424.158.63.023.08-.046.195.084.237.046-.082.008-.161-.012-.24-.05-.202-.1-.402-.148-.606 0-.02.004-.04.012-.057.023.01.044.025.063.043a.356.356 0 0 1 .036.085l.132.35c.014.036.032.072.048.108.006-.047.015-.094.018-.143.003-.048 0-.08 0-.12a.032.032 0 0 1 .016-.026c.007-.003.023.005.027.013.03.054.058.109.088.162.02.034.046.095.068.094.168-.008.158.131.217.223a4.2 4.2 0 0 1 .245.504c.116.25.155.516.227.779.016.092.023.186.022.28l.266-.066a.833.833 0 0 0 0-.125 4.114 4.114 0 0 0-.372-1.201c-.175-.365-.376-.721-.572-1.078-.18-.328-.37-.652-.553-.979a1.387 1.387 0 0 1-.097-.196c-.125-.344-.322-.656-.53-.956-.274-.395-.575-.772-.87-1.153a.94.94 0 0 0-.196-.157.06.06 0 0 0-.053 0A.06.06 0 0 0 36.6.83c.034.087.076.17.126.25.104.157.176.332.212.516.051.222.113.443.175.664.029.1.076.194.105.294.065.23.123.462.184.693.076.281.148.564.23.843.073.25.166.493.238.746.11.38.242.753.397 1.117.082.192.145.39.214.587.006.016-.008.039-.014.057a.203.203 0 0 1-.043-.037c-.046-.07-.084-.145-.132-.212-.14-.196-.265-.406-.43-.578-.293-.302-.566-.62-.887-.895-.166-.144-.316-.306-.476-.459a1.45 1.45 0 0 0-.214-.186c-.412-.256-.743-.615-1.157-.871-.15-.093-.284-.212-.433-.312a1.069 1.069 0 0 1-.417-.463.605.605 0 0 0-.074-.137.373.373 0 0 0-.092-.065c0 .03-.017.064-.008.09.055.146.107.294.172.435Zm3.93 2.054a.191.191 0 0 1-.043-.027c-.067-.076-.046-.172-.058-.26a.61.61 0 0 1-.055-.092c-.005-.013.011-.035.018-.052a.194.194 0 0 1 .037.051.487.487 0 0 1 .008.088c.099.051.02.179.104.239.007.004-.008.034-.011.053Z" fill="#362D36"/><path d="M36.777 5.234h-.011l.004.006.007-.006ZM13.315 10.623c-.376.233-.758.458-1.127.704-.428.29-.832.614-1.207.967-.312.298-.597.621-.853.967-.226.302-.432.62-.642.932-.082.12-.16.245-.237.37-.007.01.004.041.016.053a.063.063 0 0 0 .055.013.9.9 0 0 0 .108-.065c.098-.06.194-.129.297-.18.48-.242.992-.419 1.446-.718.122-.08.253-.15.382-.22.175-.098.345-.212.53-.283.381-.148.708-.376 1.035-.608.24-.172.473-.352.706-.533.133-.103.26-.215.389-.323-.035-.11-.058-.225-.152-.308-.497.44-1.041.817-1.589 1.191-.121.083-.251.154-.373.237-.08.058-.158.05-.252.049.032-.022.067-.018.117-.053s.072-.012.143-.068c.071-.056.036-.033.058-.057.023-.025-.018-.038-.05-.013a.432.432 0 0 1-.154.066.352.352 0 0 0-.141.08.444.444 0 0 0-.077.032.23.23 0 0 1-.07-.032.075.075 0 0 1 .034-.05c.075-.048.089-.083.164-.127.075-.045.106-.107.08-.086-.024.021.054-.042.029-.077-.026-.035-.125.085-.125.085l-.108.109a.213.213 0 0 1-.117.062.142.142 0 0 0-.024.01l-.012-.025a.141.141 0 0 1 .064-.058c.063-.026.207-.237.229-.266.021-.028-.109.08-.123.068-.014-.011-.094.1-.15.147a.07.07 0 0 1-.058.015l-.04-.03a.052.052 0 0 1 .013-.087c.042-.058.162-.058.201-.119.01-.013.066-.084.059-.095-.008-.01-.134.045-.152.048-.04.008-.08.023-.121.032a.092.092 0 0 1-.059 0c-.007 0-.009-.037 0-.047a1.18 1.18 0 0 1 .163-.188c.433-.365.897-.694 1.385-.985.244-.143.49-.283.736-.424a1.132 1.132 0 0 0-.08-.45c-.127 0-.253.006-.38.004-.296-.003-.593-.017-.89-.014a4.74 4.74 0 0 1-1.108-.092c-.133-.03-.273-.034-.409-.057a.935.935 0 0 1-.207-.063c-.024-.01-.035-.05-.051-.076a.714.714 0 0 1 .082-.04c.034-.013.099-.007.021-.058-.029-.02-.032-.043.01-.057a.926.926 0 0 0 .094-.046.89.89 0 0 1-.088-.034c-.016-.008-.043-.032-.04-.037.013-.027.03-.066.053-.07.062-.011.125-.018.187-.021.02-.004.04-.01.058-.016a.641.641 0 0 0-.072-.02c-.058-.01-.122-.017-.182-.03-.004 0-.01-.042 0-.047a.325.325 0 0 1 .107-.054c.096-.019.194-.028.292-.042l-.313-.029a.118.118 0 0 1-.03-.007.096.096 0 0 1-.019-.013c.007-.008.012-.021.02-.024a.453.453 0 0 1 .121-.037c.253-.015.506-.029.759-.035.579-.015 1.135.114 1.687.263.072.015.145.025.218.031v-.358c-.246-.061-.49-.131-.74-.182-.514-.104-1.035-.103-1.555-.057-.21.02-.43.033-.625.103-.283.102-.573.149-.864.202-.25.046-.507.065-.753.127-.44.119-.867.278-1.276.475a1.354 1.354 0 0 0-.14.076.057.057 0 0 0-.023.046.08.08 0 0 0 .041.045c.14.052.288.075.437.067h.381c.502.004.992.11 1.486.172.378.046.753.12 1.131.18a6.914 6.914 0 0 0 1.777.049c.095-.01.188-.034.283-.044.094-.01.19-.011.285-.013.014 0 .04.017.04.028a.068.068 0 0 1-.022.054c-.038.035-.084.062-.129.088ZM77.419 23.49c.135-.057.269-.117.409-.167.116-.043.247-.062.362-.114.569-.266 1.139-.529 1.684-.85.31-.18.596-.397.851-.645.092-.09.175-.188.266-.281-.117-.074-.238-.01-.356 0-.165.012-.33.034-.492.068-.518.106-1.033.226-1.551.326a2.14 2.14 0 0 0-.638.22c-.235.12-.479.225-.728.313l-.069.027v-.076c.082-.229.2-.443.35-.635.405-.546.616-1.191.889-1.806a.14.14 0 0 0 .009-.03c.053-.222.17-.413.269-.613.022-.044.077-.115.073-.12-.07-.061-.098.029-.135.057-.42.335-.85.66-1.25 1.02-.378.34-.722.722-1.082 1.085-.105.107-.21.216-.322.315-.198.17-.378.36-.536.566l.148.259c.069-.072.157-.131.202-.216.127-.24.326-.406.508-.588.043-.042.093-.077.131-.123.1-.122.413-.47.556-.5a5.301 5.301 0 0 0-.2.23c-.01.017-.018.027-.01.04.008.012.037.01.05 0 .044-.057.09-.11.141-.162a.522.522 0 0 1 .088-.061.164.164 0 0 1 0 .045c.015.029-.132.217-.116.246.027.041.204-.144.219-.157.182-.162.135 0 .203 0 .004.096-.08.126-.124.186-.066.087-.059.076-.086.224.016.03.258-.162.256-.14-.01.115-.11.302-.204.428-.175.233-.357.462-.537.69a.263.263 0 0 0 .014.377c.011.008.023.015.037.017a.089.089 0 0 0 .041 0 .813.813 0 0 0 .194-.067c.224-.123.45-.245.667-.382.246-.154.514-.243.782-.338a.186.186 0 0 1 .085-.012c.054.007.118-.006.13.087.01.05.03.096.061.137a.08.08 0 0 0 .07.024c.048-.012.09-.042.137-.057a.222.222 0 0 1 .08.006c-.009.025-.01.057-.025.074-.035.036-.081.057-.117.095a.289.289 0 0 0-.058.105c-.069.213-.074.229-.234.298-.253.106-.507.21-.765.302-.24.085-.471.199-.724.24-.02.004-.038.041-.046.066-.003.013.015.035.026.051.038.058.096.062.155.07.183.024.368.047.549.083.272.047.534.135.778.26.095.052.196.093.3.121a.412.412 0 0 1 .216.15c.028.036.086.062.054.126a.118.118 0 0 1-.125.057.06.06 0 0 0-.03.004.52.52 0 0 0-.045.029c.011.015.02.04.034.044.13.042.26.08.39.12l.058.017a.353.353 0 0 1-.067.026c-.124.022-.249.042-.373.065-.017.003-.032.02-.048.03.013.013.024.034.038.038.105.023.21.043.314.065.007 0 .02.017.018.02-.001.003-.014.027-.023.027-.156.006-.315.035-.467.01-.44-.076-.89-.107-1.308-.299a2.46 2.46 0 0 0-.335-.104c-.176-.052-.356-.101-.533-.154l-.531-.162.016.254c.047.01.095.02.142.033.416.115.828.242 1.248.336.618.14 1.236.269 1.877.259.467-.009.933.035 1.4.057h.059c.009 0 .018-.003.026-.007 0-.019 0-.047-.01-.058a15.144 15.144 0 0 0-.882-.663 2.74 2.74 0 0 0-.705-.37c-.336-.111-.671-.222-1.008-.325-.102-.032-.21-.04-.316-.061a18.128 18.128 0 0 1-.457-.103.048.048 0 0 1-.03-.037.068.068 0 0 1 .038-.041ZM25.78 8.798c-.445.03-.891.024-1.335-.02a3.573 3.573 0 0 0-.794-.007c-.241.027-.486.037-.727.069-.315.04-.631.08-.94.15-.454.103-.901.23-1.35.353-.151.042-.3.1-.45.15-.003.115-.01.225.052.327.526-.154 1.05-.31 1.576-.459.284-.078.574-.13.868-.157.158-.016.315-.035.471-.058.062-.008.329-.017.337-.02.078-.019.157-.034.237-.043.05-.005.064.019.067.05-.075.061-.24.057-.26.057-.02 0-.196.021-.241.025-.012 0-.016.01-.024.043-.008.033.144.017.234.011a1.55 1.55 0 0 1 .287.008c.006.015.01.028.006.03-.078.052-.16.098-.239.15a.357.357 0 0 0-.066.08.365.365 0 0 0 .12-.012c.089-.034.176-.077.261-.111a.153.153 0 0 1 .17.057.073.073 0 0 1 0 .074c-.055.05-.241.04-.25.157.092.058.221-.075.304-.071.031 0 .062-.014.093-.011a.4.4 0 0 1 .089.029c-.014.024-.022.057-.043.072-.09.052-.186.096-.277.146a.202.202 0 0 0-.043.047.2.2 0 0 1 .055.021c.096.072.19.036.285 0 .015-.005.037.007.055.011-.007.024-.008.063-.024.07-.112.06-.23.109-.35.15-.454.14-.917.254-1.385.34a8.6 8.6 0 0 1-1.198.129c-.37.013-.74.034-1.109.05-.042 0-.084-.002-.127-.007-.068.097-.078.209-.088.322.064 0 .128.007.191.005.434-.018.87-.036 1.303-.057a9.372 9.372 0 0 0 1.94-.317c.337-.09.676-.172 1.015-.258.318-.075.628-.182.924-.32.305-.146.606-.3.92-.424.657-.26 1.32-.505 1.964-.794.066-.03.127-.07.19-.106-.065-.003-.13-.013-.194-.01-.283.013-.567.016-.85.036-.307.022-.614.022-.922.028-.242.01-.486 0-.729.015ZM44.72 6.175c-.29.208-.596.396-.89.603-.454.32-.933.612-1.327 1.013-.102.105-.207.208-.31.312a.157.157 0 0 0 .097.161.81.81 0 0 0 .186-.115c.43-.467.968-.802 1.488-1.159.165-.114.333-.22.5-.33a.539.539 0 0 1 .107-.065c.218-.077.438-.15.656-.23.083-.03.117.026.153.074a.08.08 0 0 1 .002.039.081.081 0 0 1-.017.035c-.107.042-.218.076-.327.115-.168.06-.335.122-.502.186-.013.005-.07.057-.063.062.017.02 0 .074.106.032.089-.032.18-.059.272-.08a.76.76 0 0 1 .128-.038c.012-.015.045-.018.059-.024l.185-.066c.075-.023.152-.045.229-.065.006 0 .017.01.026.014-.007.008-.011.02-.02.023-.063.029-.127.058-.175.077l-.221.068c-.03.007-.199.129-.214.132 0 .127.16.002.243-.018.143-.034.283-.081.426-.114a.083.083 0 0 1 .07.04.095.095 0 0 1-.023.08.304.304 0 0 1-.108.057c-.158.054-.319.103-.477.158a.918.918 0 0 0-.139.098c-.035.054.125-.023.151-.03.142-.038.282-.08.423-.12a.215.215 0 0 1 .093-.01c.03.005.057.021.077.044.006.009.01.019.012.029a.075.075 0 0 1-.035.08c-.144.105-.28.172-.426.276l-.268.178c.064.025.655-.334.69-.35.036-.016.194-.1.226-.12.004 0 .021.008.022.013 0 .017 0 .043-.006.048-.061.042-.12.087-.175.136 0 0-.364.291-.411.326a9.566 9.566 0 0 1-.913.613 4.954 4.954 0 0 1-1.171.462c-.223.057-.451.097-.677.145l.064.263c.184-.043.37-.081.553-.133.273-.078.55-.149.813-.252a5.21 5.21 0 0 0 .992-.551c.21-.141.409-.299.612-.446a7.98 7.98 0 0 0 .95-.772c.127-.125.261-.244.395-.362.158-.139.31-.287.479-.409.337-.25.684-.487 1.025-.732.07-.047.133-.102.19-.165a1.6 1.6 0 0 1 .607-.442.626.626 0 0 0 .112-.057.277.277 0 0 0 .052-.063.346.346 0 0 0-.089-.013c-.104.013-.21.027-.313.047-.31.058-.62.125-.93.186-.228.045-.46.078-.686.132-.308.074-.612.163-.918.245-.587.157-1.144.375-1.64.729ZM21.014 12.8c.39.043.78.083 1.171.124a.872.872 0 0 0 .127 0c.213-.007.425-.008.636-.024.328-.025.657-.043.98-.096.566-.092 1.126-.209 1.692-.311a5.57 5.57 0 0 1 .567-.083c.385-.03.746-.144 1.102-.28a.472.472 0 0 1 .058-.015.39.39 0 0 0-.058-.02c-.072-.013-.144-.027-.216-.033-.286-.025-.573-.037-.857-.07a13.521 13.521 0 0 1-1.848-.327c-.04-.01-.085-.01-.126-.016-.514-.08-1.026-.164-1.54-.235-.316-.044-.634-.102-.95-.093-.646.016-1.292.065-1.934.147l-.167.353c.197-.034.392-.082.59-.099.464-.04.928-.076 1.393-.092.252-.013.506.003.755.049.212.042.416.13.632.172.018.003.034.02.051.031-.017.007-.032.021-.048.022h-.317c-.03 0-.083 0-.113.002a1.83 1.83 0 0 0-.195.021c.017.05.16.031.197.031h.6c.033 0 .064.003.095.01.02.006.04.015.059.026a.196.196 0 0 1-.052.029 1.138 1.138 0 0 1-.126.014.317.317 0 0 0-.11.043 3.4 3.4 0 0 1-.495.033l-.202.023s-.067.04.215.023a.983.983 0 0 1 .365.032l-.22.02-.377.02.009.034s.169.012.185.012l.34.017-.015.02c-.072.012-.145.02-.219.025-.006 0-.291.021-.324.027 0 0-.03.021.033.04h.145c.093-.002.185.004.276.018a.815.815 0 0 1-.058.064l-.308.05c-.15.026-.304.034-.456.025l-.409-.043-1.51-.165-.755-.08-.18.25c.154.079.324.089.49.11.474.059.948.112 1.422.165ZM41.3 6.949a.25.25 0 0 0 .22.118c.334-.518.7-1.015 1.094-1.49.17-.197.303-.424.457-.634.079-.107.137-.235.301-.256.053-.007.1-.072.149-.111.087-.07.175-.141.26-.212a.273.273 0 0 1-.069.262c-.05.055-.095.112-.137.172l-.35.436c.026 0 .424-.427.438-.439.082-.065.156-.138.234-.204.009-.007.041.004.055.015.013.012.02.04.014.05a9.103 9.103 0 0 1-.193.286c-.066.095-.137.185-.208.276-.037.049 0 .068.03.096a.054.054 0 0 1 .013.053.561.561 0 0 1-.057.111c-.328.522-.649 1.052-1.087 1.495-.189.193-.35.42-.59.557a.275.275 0 0 0 .17.24c.163-.165.326-.33.486-.496.145-.152.292-.301.43-.459.384-.446.67-.959.992-1.446.278-.417.558-.833.839-1.249a1.08 1.08 0 0 1 .117-.15c.133-.148.255-.305.366-.47.247-.337.459-.699.72-1.031.305-.383.445-.848.588-1.306.006-.016-.009-.039-.015-.058a.083.083 0 0 0-.028.01c-.067.052-.136.1-.198.157-.284.265-.565.534-.85.798-.234.213-.457.437-.708.63-.32.244-.591.536-.864.825-.303.318-.584.658-.86 1.001a16.22 16.22 0 0 0-.645.886c-.06.097-.13.187-.208.27a3.13 3.13 0 0 0-.383.454c-.182.263-.35.54-.522.813Zm2.528-2.594h-.037l.025-.037.012.037ZM22.732 6.343c-.491.193-1.009.323-1.473.581a.799.799 0 0 1-.123.034c-.377.133-.768.234-1.117.44a1.287 1.287 0 0 1-.175.073c.008.122.011.246.077.357.449-.273.942-.45 1.43-.644.419-.166.855-.277 1.283-.418a.546.546 0 0 1 .086-.008c.016 0 .031.017.047.026-.016.01-.032.021-.049.03-.017.01-.052.026-.078.038l-.035.032c-.107.066-.228.142-.253.155-.007.003-.005.028 0 .042 0 .004.02.01.027.007.036-.019.26-.106.365-.185l.07-.034c.054-.03.076-.018.09.007a.995.995 0 0 0-.08.087c-.156.094-.37.257-.396.277-.027.02-.045.032-.031.057.014.025.043.014.058.005a17.18 17.18 0 0 0 .268-.192l.131-.094c.025 0 .042-.015.054-.045l.042-.037.107-.021c.031-.006.075.04.062.069l-.043.093a2.952 2.952 0 0 0-.49.291.035.035 0 0 0 .01.018c.008.005.02.01.027.008.058-.02.113-.043.17-.065l.078-.046a.767.767 0 0 0 .218-.13l.042.018-.069.038-.108.082-.064.057c-.265.204-.55.38-.853.525-.35.166-.708.32-1.07.459-.275.102-.564.168-.847.25l.008.269a.773.773 0 0 0 .127-.003 5.993 5.993 0 0 0 1.412-.464c.366-.165.723-.35 1.068-.555.525-.315 1.07-.59 1.572-.945.292-.206.568-.434.826-.68.167-.16.349-.304.543-.432.272-.18.544-.361.817-.544.02-.014.023-.05.035-.077a.182.182 0 0 0-.062-.008c-.131.035-.265.067-.392.114a2.844 2.844 0 0 1-.453.14c-.292.05-.58.121-.86.212a47.03 47.03 0 0 0-2.029.736ZM7.527 6.774c.195.086.363.216.55.313a9.565 9.565 0 0 0 1.607.672c.598.184 1.203.338 1.81.498.42.109.852.173 1.287.192.287.004.572.048.846.13a.678.678 0 0 0 .088-.357c-.402-.014-.808-.004-1.207-.05-.399-.044-.824-.056-1.193-.28-.121-.074-.74-.094-.816-.303a.483.483 0 0 1 .11-.037c.046-.005.677.07.27-.215-.009-.006-.053-.013-.067-.018-.07-.024-.143-.04-.212-.064-.019-.005-.031-.025-.047-.039.025-.013.05-.037.075-.038.074 0 .148.009.222.01.018 0 .17-.033 0-.07a5.364 5.364 0 0 1-.214-.054.761.761 0 0 1-.085-.033c-.058-.028-.01-.087.028-.085.038.003.125.027.183.039l.007.003c.039.007.078.012.117.015.006 0 .015-.013.023-.02.01-.024-.02-.03-.034-.034l-.034-.008c-.227-.083-.114-.176-.041-.164.072.012.154.032.215.008.15-.058.292-.026.437-.004.35.058.672.19.992.32.5.2 1.002.397 1.476.654l.153-.3a1.038 1.038 0 0 0-.11-.064c-.35-.153-.7-.3-1.044-.458-.309-.141-.618-.276-.954-.344-.197-.04-.391-.108-.59-.124-.433-.034-.87-.057-1.298.058a1.817 1.817 0 0 1-.28.057c-.391.039-.782.07-1.173.107a3.17 3.17 0 0 1-1.11-.075.414.414 0 0 0-.092-.008.035.035 0 0 0-.026.015c-.005.008-.008.025-.003.03.042.043.08.102.134.125ZM40.214 6.602c0-.27 0-.54-.006-.81-.02-.596.108-1.174.224-1.754.052-.296.13-.587.233-.87.006-.017.025-.03.037-.044.016.019.028.04.037.062a.242.242 0 0 1 0 .093c-.018.09-.044.18-.059.27a.784.784 0 0 0-.01.084.826.826 0 0 0-.055.172.632.632 0 0 0-.027.154c.005-.02.064-.118.066-.138.002-.02.033-.074.04-.106a.145.145 0 0 0 .03-.067c.045-.143.089-.286.137-.427.006-.018.034-.028.055-.04a.523.523 0 0 1-.004.115c-.025.109.112.175.07.293-.023.068-.04.138-.052.209-.03.102-.088.294-.12.391l-.029.054.012.03c.09-.073.162-.268.164-.372.094-.168.076-.362.13-.54.034-.108.059-.22.084-.33l.034-.033.029.058a.505.505 0 0 0-.021.211c-.011.315-.095.617-.148.832a.48.48 0 0 0-.018.109c.053 0 .069-.073.074-.089.072-.211.175-.415.165-.646.028-.12.053-.24.086-.359a.098.098 0 0 1 .067-.053c.05-.008.074.03.08.072l.01.08c.012.207-.005.415-.05.617-.039.163-.051.33-.037.497 0 .02.005.04.007.06a.272.272 0 0 0 .031-.05.302.302 0 0 0 .014-.061l.117-.8c.005-.04.007-.082.015-.123 0-.014.022-.035.032-.034a.074.074 0 0 1 .051.027.164.164 0 0 1 .03.085c0 .094-.009.187-.023.28-.022.123-.044.235.022.361.04.074.025.187.006.276-.082.387-.159.775-.266 1.156a3.412 3.412 0 0 1-.6 1.231l.233.068c.396-.595.66-1.264.777-1.966.04-.235.07-.473.105-.71a7.948 7.948 0 0 0 .073-1.866c-.028-.363-.038-.729-.09-1.089-.054-.35-.027-.71.077-1.049.011-.036.013-.104-.005-.114-.058-.031-.091.028-.117.064-.064.083-.12.172-.175.26-.05.08-.094.163-.146.241-.359.54-.652 1.12-.873 1.728-.189.509-.345 1.028-.467 1.557-.153.683-.263 1.375-.25 2.076.005.218.005.438.007.657l.187.01ZM47.257 8.77c-.657.015-1.31.084-1.955.206-.386.068-.774.126-1.152.234a5.046 5.046 0 0 1-.493.118c-.136.018-.27.052-.397.102-.244.104-.49.2-.734.3v.335c.343-.277.751-.415 1.17-.53.204-.057.41-.11.61-.161.354-.093.713-.166 1.075-.22.063-.005.126-.014.188-.026a.765.765 0 0 1 .343.003c.186.033.378.038.567.057.04.004.084.028.065.08-.008.025-.039.043-.058.063-.167.01-.334.017-.5.03-.017 0-.031.025-.046.038a.15.15 0 0 0 .042.016c.104.011.209.016.314.015.068-.005.194-.027.078.042a.532.532 0 0 1-.066.022c-.018.01-.038.017-.058.025-.087.04-.209.02-.254.137.091-.018.184-.03.274-.054.099-.026.194-.063.292-.095.04.024.067.067.037.102a.54.54 0 0 1-.248.184c-.09.026-.176.062-.267.093-.048.016-.149.06-.128.083.021.023.545-.068.539-.043-.007.024-.409.171-.443.186a24.38 24.38 0 0 1-.728.215c-.5.139-1.019.177-1.531.235-.302.034-.614.004-.92-.02-.121-.008-.239-.074-.358-.114l-.046.255c.12.03.24.081.36.087.286.016.573.004.859.015.286.01.561-.105.849-.075.133-.081.295-.026.429-.082.319-.132.68-.124.992-.284.147.016.253-.094.386-.121.39-.08.755-.234 1.123-.378.117-.044.248-.07.346-.14.13-.085.276-.148.428-.183.091-.023.18-.055.263-.095.38-.19.789-.3 1.18-.455.024-.01.04-.037.06-.058-.017-.012-.031-.031-.05-.037a.892.892 0 0 0-.184-.043c-.38-.028-.758-.062-1.141-.073-.371-.008-.742.002-1.112.008ZM13.16 1.804c.244.294.35.645.408 1.006.05.3.136.587.208.88.085.333.229.65.425.934.4.59.804 1.176 1.206 1.763.156-.142.347-.24.554-.286a9.43 9.43 0 0 0-.3-1.452 3.548 3.548 0 0 0-.135-.344c-.073-.138-.133-.287-.237-.401-.158-.172-.266-.376-.39-.57-.125-.193-.241-.393-.383-.573-.182-.229-.386-.443-.584-.662-.213-.24-.488-.397-.77-.542a.575.575 0 0 0-.15-.034c.013.042.028.084.046.124a.986.986 0 0 0 .102.157Zm1.18 1.927s.233.302-.03-.188c.037-.097.072-.12.14-.018.068.103.106.223.261.23.03 0 .059.056.088.085.316.339.534.754.632 1.203.058.253.107.508.158.762.004.018-.008.04-.013.058-.024-.013-.056-.02-.07-.04-.365-.484-.728-.97-1.09-1.456a3.303 3.303 0 0 1-.197-.319c-.02-.034-.045-.085-.033-.114.046-.115-.024-.202-.054-.299-.02-.066.078-.056.207.096ZM15.652 4.502s.328.614.506.917c.105.18.23.349.346.523l.541-.067c.228-.89.147-1.758-.19-2.608-.06-.155-.116-.312-.182-.466-.201-.482-.424-.954-.726-1.385a17.152 17.152 0 0 1-.175-.26c-.01-.015-.045-.031-.052-.026a.153.153 0 0 0-.046.066c-.007.018.006.041.007.062.007.395.034.792-.042 1.185-.051.266-.108.532-.144.802-.016.166-.019.333-.008.498.015.26.07.516.165.76Zm.167-.944a.06.06 0 0 1 .035-.043c.05-.016.044.032.045.054 0 .062-.004.124-.006.187 0 .02.002.04.005.06 0 .01.012.017.018.026.018.033.034-.016.037-.027.014-.07.02-.14.036-.21.003-.013.034-.028.05-.027a.059.059 0 0 1 .046.034c.01.04.01.083.015.123.01.058.02.201.066.04a.647.647 0 0 1 .073-.211c.026-.019.063-.022.08-.045l.05.078c.012.048.027.094.046.14.01.02.09.202.09-.023a2.014 2.014 0 0 0-.075-.193c.058-.034.127-.058.16.02.056.112.098.23.127.352.052.243.091.49.117.738.029.312-.034.621-.07.93-.005.04-.02.103-.044.11-.066.018-.07-.057-.092-.094-.25-.397-.478-.807-.684-1.227-.123-.257-.14-.52-.126-.792ZM30.57 7.646c.082.037.13.135.237.122.454.268.905.54 1.362.803.172.102.35.192.536.268.42.166.843.327 1.27.472.326.111.665.186.993.295.365.122.748.104 1.12.161.333.052.673.058 1.01.082.02-.07.04-.14.058-.21-.559-.01-1.117-.053-1.672-.128a4.47 4.47 0 0 1-.433-.09c-.194-.048-.385-.107-.578-.157-.133-.034-.26-.07-.366-.167-.059-.053-.152-.066-.228-.102-.021-.01-.17-.02-.163-.106l.245.057s.083.008.087.01h.046s-.264-.1-.289-.104a.917.917 0 0 1-.129-.062l-.01-.008c-.034-.027-.075-.053-.07-.07a.069.069 0 0 1 .021-.04.072.072 0 0 1 .041-.018.22.22 0 0 0 .042.013c.014 0 .104.01.104.01l.129.04c.039.02.079.038.12.054.01 0 .08.007.075 0-.004-.006-.042-.043-.042-.043a1.102 1.102 0 0 0-.175-.08.156.156 0 0 1-.027-.003l-.132-.071c-.018-.01-.043-.021-.05-.037-.013-.035-.035-.082-.022-.109l.005-.011.099-.012.129.016.15.033.112.062s.046-.01.046-.021a.138.138 0 0 0-.021-.042l-.148-.048-.17-.037-.141-.03-.046-.006a.098.098 0 0 0-.067-.04.081.081 0 0 1-.036-.07c.007-.02.047-.036.074-.04a.543.543 0 0 1 .158-.003c.402.071.811.108 1.196.268.183.076.385.106.574.172.565.194 1.132.387 1.681.623l.16-.37a13.05 13.05 0 0 0-1.336-1.223c-.04-.031-.088-.057-.128-.088-.152-.12-.325-.216-.384-.428-.026-.091-.126-.161-.189-.244a.215.215 0 0 1-.021-.075h.033l.019.026s.126.083.128.087l.063.104s.08.032.085.032c.005 0 .047.017.02-.02-.029-.037-.065-.09-.065-.09l-.052-.069s-.067-.054-.08-.061a.533.533 0 0 1-.045-.034.09.09 0 0 0-.015-.053c-.058-.057-.124-.115-.184-.172-.015-.014-.067-.03-.02-.063a.07.07 0 0 1 .059-.006.978.978 0 0 1 .167.086c.175.119.36.212.54.318.268.158.546.314.758.551.28.31.597.588.84.93.129-.017.136-.124.165-.215-.108-.14-.207-.286-.326-.42-.19-.208-.387-.411-.592-.604a3.016 3.016 0 0 0-.378-.282c-.13-.088-.27-.163-.4-.25-.175-.115-.34-.244-.515-.358-.622-.411-1.252-.813-1.879-1.221a2.12 2.12 0 0 1-.273-.212c-.234-.213-.459-.431-.688-.647-.035-.05-.069-.1-.105-.148a.033.033 0 0 0-.03-.006c-.008 0-.02.018-.019.022.038.08.032.18.111.24.13.296.284.582.458.855.122.207.274.397.45.562.194.177.376.365.562.55.298.296.61.58.898.885.384.406.839.73 1.264 1.09.155.123.292.267.408.428.022.033.059.071.01.106a.118.118 0 0 1-.086.012 1.174 1.174 0 0 1-.151-.045c-.461-.155-.918-.32-1.382-.463-.363-.11-.732-.205-1.103-.282a6.809 6.809 0 0 0-1.357-.127c-.328 0-.659-.005-.985-.036-.292-.027-.595-.018-.879-.119a2.177 2.177 0 0 0-.184-.111c-.02-.01-.055.008-.083.013.012.016.017.042.031.05ZM10.299 3.418c.03.057.062.11.09.166.181.365.413.703.69 1.006.268.281.568.533.893.75.164.114.323.235.486.352.163.116.338.25.517.36.295.186.599.356.911.51.217.106.412.254.617.383l.217-.187a3.618 3.618 0 0 1-.413-.218c-.517-.358-1.063-.672-1.6-.996-.09-.054-.383-.375-.432-.423-.01-.009.005-.108.07-.114.004 0 .022 0 .027.004.024.03.233.132.308.172.074.04.085.007.036-.038-.058-.031-.25-.136-.288-.204a.225.225 0 0 1-.014-.045c.008-.031.033-.03.051-.033a.482.482 0 0 1 .156.07c.026.021.033.01.039.009 0-.03-.125-.126-.122-.155.003-.029-.008-.09.062-.057.039.015.077.034.112.057.252.19.506.38.754.576.223.176.44.36.66.541.024.02.054.035.076.058l.7.68.272-.142c-.07-.103-.148-.2-.233-.291-.265-.241-.537-.473-.81-.704-.37-.312-.734-.63-1.158-.877a7.196 7.196 0 0 0-.478-.246c-.104-.05-.215-.09-.321-.136l-1.104-.485a3.851 3.851 0 0 1-.728-.387.62.62 0 0 0-.055-.067c-.01-.009-.027-.01-.042-.014 0 .01-.006.022 0 .029.015.032.035.063.054.096ZM25.345 53.301l.008-.005v-.007h-.01l.002.012ZM25.31 53.327c-.005.014.005.034.008.052.009-.01.023-.02.026-.031a.149.149 0 0 0 0-.047c-.013.007-.03.014-.034.026ZM41.393 11.421c-.4.048-.796.121-1.202.096a.546.546 0 0 0-.158.014c-.444.103-.88.066-1.315-.051-.038-.011-.09.035-.075.073a.25.25 0 0 0 .076.126c.056.027.118.04.18.04.35.015.7.035 1.051.036.36 0 .72-.016 1.08-.03.135-.006.29-.01.327-.019a.378.378 0 0 0 .103-.047.283.283 0 0 0 .059-.102c.004-.026.03-.109.009-.134-.023-.025-.096-.006-.135-.002ZM19.104 10.906a.22.22 0 0 0-.15.024 2.9 2.9 0 0 0-.316.26c-.13.126-.29.215-.467.258-.516.126-1.036.214-1.608.16-.165-.005-.365-.012-.567-.014a.339.339 0 0 0-.12.027.07.07 0 0 0-.036.048.064.064 0 0 0 .023.057c.05.037.107.065.168.083.46.078.922.137 1.388.054.146-.027.292-.053.439-.074.28-.052.556-.126.823-.222.222-.07.376-.23.509-.408a.16.16 0 0 0 .026-.149.162.162 0 0 0-.113-.104Z" fill="#362D36"/><path d="M76.121 24.17c-.175-.097-.37-.124-.561-.165a.054.054 0 0 1-.022-.016.054.054 0 0 1-.012-.023c0-.01.002-.02.007-.029a.067.067 0 0 1 .018-.024c.051-.034.11-.057.159-.096a.09.09 0 0 0 .024-.082.102.102 0 0 0-.031-.031.109.109 0 0 0-.04-.016.508.508 0 0 0-.093.005.16.16 0 0 1-.051-.02.262.262 0 0 0 .047-.039c.023-.03.064-.066.058-.094-.007-.044-.058-.047-.1-.043a.548.548 0 0 1-.093 0c-.047-.004-.038-.035-.023-.06a.503.503 0 0 1 .042-.047c.072-.1.073-.104-.059-.148-.068-.023-.009-.139-.106-.132.005-.012.006-.031.014-.036a.95.95 0 0 0 .16-.092.134.134 0 0 0 .02-.114.068.068 0 0 0-.013-.028.068.068 0 0 0-.055-.024c-.01 0-.021.004-.03.009a.314.314 0 0 1-.084.038.476.476 0 0 1-.112-.013.473.473 0 0 1 .05-.108 1.06 1.06 0 0 1 .113-.107c.076-.07.155-.138.228-.213a.474.474 0 0 0 .059-.107l-.158-.264a.965.965 0 0 0-.099.072c-.174.161-.35.33-.533.484a1.021 1.021 0 0 1-.268.152c-.388.158-.802.213-1.208.297a7.738 7.738 0 0 1-.986.123c-.353.027-.694.121-1.041.18-.337.058-.675.106-1.013.156-.062.008-.125.004-.188.008-.113.005-.228.006-.341.021a.274.274 0 0 1-.254-.087 2.763 2.763 0 0 1-.142-.168 4.627 4.627 0 0 0-.31-.393c-.298-.3-.516-.66-.75-1.006-.341-.502-.67-1.013-1.004-1.52a1.084 1.084 0 0 0-.059-.076c-.283-.39-.588-.763-.912-1.12-.391-.417-.89-.73-1.43-.834a3.243 3.243 0 0 0-.403-.035c-.052-.004-.104 0-.136-.057-.068-.074-.16-.09-.25-.111-.13-.032-.264-.049-.393-.085a2.157 2.157 0 0 0-.671-.063 2.87 2.87 0 0 1-.769-.083 3.05 3.05 0 0 0-.306-.04c-.175-.015-.356-.061-.525-.037-.255.037-.516.05-.759.145-.223.086-.446.176-.676.241-.22.067-.427.167-.616.296-.244.16-.488.321-.723.496-.259.194-.505.404-.758.603-.338.262-.678.523-1.02.781-.235.176-.474.344-.71.516a.144.144 0 0 1-.2-.005c-.147-.142-.334-.211-.505-.31-.17-.1-.35-.19-.511-.303a3.989 3.989 0 0 1-.492-.388c-.28-.266-.547-.549-.82-.823-.208-.208-.409-.421-.627-.618-.452-.413-.885-.84-1.304-1.28a2.429 2.429 0 0 1-.361-.434c-.213-.367-.518-.656-.771-.987l-.048-.052-.058.025a.352.352 0 0 0 0 .101c.028.07.052.14.07.213a.145.145 0 0 1-.097.145c-.038.017-.188-.028-.078.124.715.974-.02.19-.163.322a.095.095 0 0 0-.037.102c.003.013.01.024.018.034.063.083.138.156.205.236.033.04.061.084.085.131.007.014 0 .04-.01.057 0 .005-.035.005-.044-.004-.058-.057-.117-.12-.175-.18a.544.544 0 0 0-.094-.077.06.06 0 0 0-.052.012c-.014.012-.028.04-.023.052.035.074.076.145.117.217l.029.067-.062-.034a1.139 1.139 0 0 0-.116-.041c-.016-.004-.048.003-.05.011a.111.111 0 0 0 0 .08c.047.07.191.103.116.218-.058.083-.148.02-.226-.01a.237.237 0 0 0-.257.053l-.027.177c.409.009.413.009.727.283.04.034.076.073.114.108l.79.718c.13.119.258.242.388.363.316.29.602.613.953.864.094.066.183.138.272.211.337.282.695.538.997.86.04.036.08.068.124.098.271.212.553.412.812.64.432.381.89.728 1.354 1.065.25.182.508.176.759.037.219-.12.421-.27.632-.402.105-.067.212-.133.319-.197.07-.043.146-.078.214-.124.302-.203.555-.47.854-.679.271-.193.556-.367.853-.521.044-.024.09 0 .09.043 0 .2 0 .4-.005.6-.005.178-.021.356-.02.534 0 .2.026.401.028.599.005.59.008 1.181.004 1.772-.005.622.064 1.24.073 1.862 0 .42.024.842.07 1.26.027.209.048.418.09.623.1.485.152.975.205 1.468.045.418.082.837.187 1.246.055.214.099.43.136.647.07.402.117.812.203 1.213.037.175.053.353.045.532-.02.525-.005 1.052-.052 1.577-.025.283-.019.57-.019.853 0 .285-.075.565-.005.848a.323.323 0 0 1 0 .095c-.014.252-.027.504-.043.756-.012.167-.02.337-.045.503-.068.458-.146.913-.22 1.37-.064.383-.097.77-.185 1.15-.087.38-.157.782-.237 1.173-.128.618-.263 1.233-.327 1.861-.012.115-.04.23-.052.344-.03.273-.053.545-.083.817a4.475 4.475 0 0 1-.073.53 15.653 15.653 0 0 1-.605 2.018c-.156.423-.272.86-.345 1.305-.08.445-.107.9-.153 1.349-.018.178-.022.357-.035.535-.024.304-.068.608-.072.912-.009.63-.027 1.264-.082 1.895-.01.114-.023.229-.039.344-.015.114.005.144.102.147.25.007.5.008.748.01.28 0 .559-.008.84.015.16.014.325-.039.491.008a.252.252 0 0 0 .15-.035.152.152 0 0 0 .081-.079 3.6 3.6 0 0 0 .079-.368c.01-.063-.005-.13.01-.19.1-.419.11-.856.257-1.266a.441.441 0 0 0 .03-.12c.022-.284.047-.566.058-.85.01-.23-.004-.465.004-.697 0-.273.017-.547.052-.818.039-.26.062-.522.07-.785.026-.579.042-1.158.063-1.737 0-.042.008-.084.012-.125.04-.388.093-.774.117-1.162.027-.463.073-.922.117-1.383.04-.387.084-.774.14-1.159.071-.477.171-.95.3-1.414.16-.573.462-1.08.709-1.613a.309.309 0 0 1 .035-.052c.032-.047.072-.048.087 0 .071.208.13.42.175.636.08.487.136.978.208 1.467.034.24.079.477.116.716.026.155.053.31.075.466.024.177.03.359.068.532.075.318.113.642.113.968-.004.275-.01.548-.01.823 0 .78.003 1.562.01 2.342 0 .084.005.169.011.252.033.41.075.817.097 1.227.021.369-.004.74.035 1.107.034.345.05.693.047 1.04v1.077a1.11 1.11 0 0 0 .012.283c.043.158.03.315.03.472 0 .084-.008.171-.008.253 0 .097.029.139.123.147.206.02.418.064.617.033.229-.036.455.045.678-.022.268.048.536-.005.804 0 .324.005.291.025.288-.319a.731.731 0 0 0-.02-.156c-.061-.267-.09-.54-.086-.813.003-.254-.004-.507-.009-.76 0-.084-.009-.168-.017-.252-.013-.136-.033-.27-.04-.407-.009-.135 0-.273 0-.411-.01-.389.01-.78-.073-1.164a2.198 2.198 0 0 1-.049-.312c-.024-.315-.058-.63-.058-.946 0-.52-.137-1.02-.175-1.535-.026-.377-.105-.75-.137-1.126-.037-.45-.05-.903-.07-1.355-.009-.21-.01-.42-.066-.626a2.484 2.484 0 0 1-.07-.562c-.005-.125-.03-.25-.046-.375a4.946 4.946 0 0 1-.066-.532 8.09 8.09 0 0 0-.117-1.031c-.038-.249-.066-.5-.09-.75-.025-.283-.022-.57-.067-.849-.081-.5-.049-1.008-.107-1.51-.038-.334-.011-.675-.025-1.012a8.434 8.434 0 0 0-.064-.913 4.242 4.242 0 0 1-.045-.723c0-.189-.013-.378-.043-.564-.038-.268-.11-.538-.039-.814.012-.084.014-.169.008-.252.004-.18.007-.36.012-.539.018-.589.04-1.179.055-1.769.006-.229 0-.464.005-.696.006-.188.025-.378.043-.566.024-.261.054-.522.078-.783.03-.325.05-.65.083-.975.053-.522.111-1.044.17-1.565.062-.553.1-1.111.26-1.649.027-.101.048-.204.063-.308.058-.363.113-.727.182-1.09.059-.309.131-.615.21-.92.044-.173.11-.34.169-.509.02-.057.074-.067.117-.018.028.03.053.064.08.097l.781.951a.522.522 0 0 1 .058.074c.123.213.303.374.472.547l.901.92c.202.204.42.382.72.401.113.007.227-.01.34-.013.594-.014 1.174-.139 1.755-.25.335-.064.682-.066 1.005-.199a.108.108 0 0 1 .03-.003c.273-.003.533-.078.797-.133.62-.13 1.241-.252 1.861-.38.279-.057.554-.083.834-.007.11.021.223.034.335.037l-.017-.258Zm-18.719-2.378a.398.398 0 0 1-.051-.036c-.09-.057-.124-.12-.1-.172a.223.223 0 0 1 .242-.1.184.184 0 0 1 .087.063c.022.03.035.064.036.1a.145.145 0 0 1-.064.133.151.151 0 0 1-.15.012Zm.099-.952c-.066 0-.117-.075-.112-.16 0-.021.004-.042.012-.061a.145.145 0 0 1 .093-.079.146.146 0 0 1 .063-.003c.032 0 .062.013.084.035a.123.123 0 0 1 .037.083.192.192 0 0 1-.179.185h.002Zm1.26-.573a.458.458 0 0 1-.075.135c-.087.103-.217.077-.276-.045a.302.302 0 0 1-.012-.273c.026-.05.085-.082.117-.107.178-.011.299.146.244.291h.002Zm1.033-.69c-.045.009-.092.015-.14.018-.096-.007-.19.012-.227-.09-.03-.077.025-.16.134-.221.13-.073.233-.06.307.036.016.02.028.044.034.07a.163.163 0 0 1-.107.187Zm2.276 1.968a.186.186 0 0 1 .147.172c-.006.1-.084.203-.155.204-.093 0-.21-.107-.205-.192a.247.247 0 0 1 .217-.186l-.004.002Zm-.184 1.731c.04-.009.082-.013.128-.02.04.009.079.02.117.033.12.048.19.153.16.238a.266.266 0 0 1-.115.14.273.273 0 0 1-.18.037.307.307 0 0 1-.221-.159c-.062-.118-.013-.24.115-.269h-.004Zm.051 7.903-.071.15c-.033.067-.07.134-.155.126-.074-.006-.127-.13-.092-.232a.376.376 0 0 1 .102-.147c.043-.038.098-.017.14.016a.64.64 0 0 1 .08.087h-.004Zm-1.042-12.9c.02-.01.04-.018.063-.022.023.01.058.016.076.037a.65.65 0 0 1 .08.13.16.16 0 0 1 .005.145.171.171 0 0 1-.115.092.088.088 0 0 1-.058 0 .234.234 0 0 1-.138-.191.204.204 0 0 1 .09-.19h-.003Zm-.26 3.344a.443.443 0 0 1 .107-.147c.045-.041.112-.085.167-.043.05.05.092.109.124.172-.027.07-.062.139-.103.203a.203.203 0 0 1-.254.043.187.187 0 0 1-.06-.107.187.187 0 0 1 .021-.12h-.003Zm.25 19.87a.139.139 0 0 1 .098.042.135.135 0 0 1 .03.045.14.14 0 0 1 .008.053.44.44 0 0 1-.013.093c-.031.128-.117.206-.207.193-.09-.012-.163-.126-.16-.242.003-.117.1-.184.247-.184h-.003Zm-.252 3.669c-.074.035-.216.006-.258-.052a.265.265 0 0 1 .022-.265.316.316 0 0 1 .238-.106c.03.012.06.03.084.053a.245.245 0 0 1-.083.371l-.003-.001Zm.14-2.602a.219.219 0 0 1-.301.02c-.059-.05-.065-.134-.014-.223.04-.07.097-.091.18-.047.053.03.099.066.14.11.017.02.017.058.025.079a.258.258 0 0 1-.026.063l-.003-.002Zm.435.96a.145.145 0 0 1-.023.065.145.145 0 0 1-.049.048.157.157 0 0 1-.135.012.276.276 0 0 1-.188-.239.27.27 0 0 1 .013-.105.212.212 0 0 1 .223-.132.166.166 0 0 1 .15.136c.009.04.015.08.019.12a.742.742 0 0 1-.007.097l-.003-.002Zm-.18-17.736a.25.25 0 0 1-.054.006c-.305.018-.379-.184-.297-.396a.252.252 0 0 1 .109-.125.262.262 0 0 1 .165-.033.321.321 0 0 1 .273.315.251.251 0 0 1-.196.233Zm.023-6.026a.317.317 0 0 1 .175-.362.241.241 0 0 1 .058-.008c.09.006.183.12.175.226a.552.552 0 0 1-.05.178c-.034.075-.076.165-.174.155-.098-.01-.157-.097-.184-.187v-.002Zm.194 8.937c-.004-.133.108-.224.277-.223a.233.233 0 0 1 .15.075c.038.043.06.097.059.154a.24.24 0 0 1-.144.24.247.247 0 0 1-.097.02c-.13 0-.237-.12-.245-.264v-.002Zm.375 11.775a.157.157 0 0 1-.14-.138.178.178 0 0 1 .117-.181.188.188 0 0 1 .076-.013c.058 0 .126.08.127.155a.182.182 0 0 1-.053.125.188.188 0 0 1-.127.055v-.003Zm.26-1.986c-.031.067-.074.131-.155.138-.054.004-.175-.115-.166-.203a.174.174 0 0 1 .084-.157c.065-.032.13-.08.202-.027.03.028.057.059.08.092-.01.055-.026.108-.045.16v-.003Zm.282-1.257a.102.102 0 0 1-.08.03.246.246 0 0 1-.18-.19.219.219 0 0 1 .102-.21.104.104 0 0 1 .14.017c.04.059.077.122.107.188a1.303 1.303 0 0 1-.088.167v-.002Zm-.028-1.622c-.128.022-.217-.05-.234-.186a.158.158 0 0 1-.002-.07.154.154 0 0 1 .085-.105.159.159 0 0 1 .07-.015c.13-.013.233.076.249.217.005.067-.078.146-.168.162v-.003Zm.22-2.464c-.021.059-.047.116-.076.172-.094.161-.204.162-.3.008a.23.23 0 0 1-.017-.246.238.238 0 0 1 .216-.126h.062c.097.004.132.042.115.193v-.001Zm.008-6.97c-.145 0-.308-.183-.302-.342a.272.272 0 0 1 .094-.172.281.281 0 0 1 .185-.067c.16.003.278.104.276.236-.003.178-.124.343-.253.345Zm1.726-4.207c.062-.052.128-.1.197-.143.016-.01.062.01.08.03a.25.25 0 0 1 .011.339.224.224 0 0 1-.064.043c-.117.003-.245-.115-.245-.212 0-.02.008-.04.02-.056Zm.035 2.014a.341.341 0 0 1-.255.351.167.167 0 0 1-.175-.048.347.347 0 0 1-.11-.253c.01-.105.034-.207.074-.304a.149.149 0 0 1 .151-.092.15.15 0 0 1 .06.018c.128.078.265.146.255.33v-.002Zm-.398-4.384c.137.017.271.14.276.255.007.175-.108.308-.269.31-.183.003-.281-.082-.288-.248-.006-.14.164-.33.281-.317Zm-.295 10.014c.05.014.08.107.055.193a.798.798 0 0 1-.074.172.126.126 0 0 1-.134.057c-.057-.006-.096-.062-.097-.138v-.062a.597.597 0 0 1 .064-.138c.044-.057.104-.105.186-.082v-.002Zm-.361-1.937a.187.187 0 0 1 .135-.05.133.133 0 0 1 .147.092c.008.04.015.08.018.12a.254.254 0 0 1-.014.097c-.021.031-.058.069-.089.073a.18.18 0 0 1-.186-.092.228.228 0 0 1-.011-.235v-.005Zm.124 11.031a1.024 1.024 0 0 1-.142-.043.185.185 0 0 1-.111-.172c-.004-.068.049-.11.103-.143a.704.704 0 0 1 .085-.035.212.212 0 0 1 .261.08c.018.028.028.06.03.092.02.132-.06.225-.226.223v-.002Zm.258-6.69c.055-.052.115-.099.18-.14a.277.277 0 0 1 .206.162c.042.085-.018.205-.14.287-.071.047-.143.032-.217-.048-.067-.07-.087-.198-.03-.26Zm.062 2.22c.016-.11.212-.23.313-.197a.19.19 0 0 1 .097.068c.03.058.055.119.076.18a2.115 2.115 0 0 1-.079.23.157.157 0 0 1-.184.081c-.137-.02-.246-.204-.223-.36v-.002Zm.072 2.799a.078.078 0 0 1 .006-.057c.053-.08.111-.154.238-.155a.78.78 0 0 1 .122.062.13.13 0 0 1 .045.08.222.222 0 0 1-.044.145.229.229 0 0 1-.128.084.217.217 0 0 1-.237-.158l-.002-.001Zm.384 5.215c-.105.009-.219-.105-.218-.216 0-.139.093-.219.245-.214a.172.172 0 0 1 .124.056.16.16 0 0 1 .04.128c-.004.128-.09.24-.191.247Zm.175-2.614c-.078.084-.16.1-.249.058a.171.171 0 0 1-.075-.053.27.27 0 0 1-.047-.138c0-.026.058-.054.091-.072a.276.276 0 0 1 .084-.017.211.211 0 0 1 .136.032c.04.026.07.064.085.109.002.015 0 .03-.004.044a.113.113 0 0 1-.022.038Zm.126-13.08a.195.195 0 0 1-.09-.329.2.2 0 0 1 .124-.056c.097 0 .216.11.213.192-.004.09-.15.204-.248.194h.001Zm.35 16.765c-.112-.004-.206-.076-.202-.154a.227.227 0 0 1 .075-.15c.043-.039.1-.06.158-.06.074.004.143.09.144.179a.176.176 0 0 1-.048.128.186.186 0 0 1-.127.057Zm.18-2.724a.166.166 0 0 1-.062.168.212.212 0 0 1-.233.013.236.236 0 0 1-.09-.192c-.001-.074.086-.143.174-.142a.208.208 0 0 1 .212.153Zm.332-21.087a.27.27 0 0 1-.254.073.271.271 0 0 1-.195-.175c-.05-.154.06-.273.239-.267a.294.294 0 0 1 .25.196.171.171 0 0 1-.04.174v-.001Zm.89 1.123a.316.316 0 0 1-.078.019.35.35 0 0 1-.282-.181.102.102 0 0 1-.013-.058c.008-.12.2-.27.313-.245.02.005.04.012.058.022.07.039.157.06.164.165a.3.3 0 0 1-.162.278Zm1.131 1.189a.224.224 0 0 1-.058.021c-.21.007-.364-.2-.275-.375.098-.192.24-.202.37-.071a.282.282 0 0 1 .082.221.285.285 0 0 1-.119.205v-.001Zm1.198 1.564c-.01.032-.05.057-.087.094a.987.987 0 0 1-.183-.124c-.063-.066-.032-.197.044-.246.05-.03.134 0 .183.07a.22.22 0 0 1 .047.098.22.22 0 0 1-.004.109Zm.992 1.436a.212.212 0 0 1-.269-.091.156.156 0 0 1 .036-.197.567.567 0 0 1 .128-.082.123.123 0 0 1 .176.076c.015.056.027.112.036.169-.034.04-.061.108-.107.126Zm1.106.02c-.03.005-.059.006-.093.01-.033.002-.058-.008-.09-.014a.138.138 0 0 1-.085-.058.138.138 0 0 1-.018-.101c.024-.142.125-.207.246-.247a.101.101 0 0 1 .083.022.42.42 0 0 1 .094.118c.068.142.011.249-.137.271ZM20.184 9.506c-.085-.21-.082-.427-.058-.647 0-.09-.006-.18-.009-.27-.016-.011-.042-.02-.047-.036a2.507 2.507 0 0 1-.147-.714c-.065-.111-.069-.235-.077-.358a.087.087 0 0 1-.055-.085.086.086 0 0 1 .01-.035c-.093-.09-.102-.217-.147-.328-.117-.104-.241-.202-.266-.369a.641.641 0 0 1-.341-.326c-.179-.024-.237-.115-.421-.253a1.304 1.304 0 0 0-.656-.138.18.18 0 0 1-.03-.003c-.07.008-.139.015-.191-.045l-.346-.016c-.146.035-.228.015-.357.003l-.543.066a.45.45 0 0 1-.127.044c-.148.035-.267.082-.416.115a1.207 1.207 0 0 0-.554.287c-.082.038-.123.053-.233.114l-.272.143a.37.37 0 0 1-.181.115l-.218.186c-.134.226-.403.5-.432.508l-.154.3a1.237 1.237 0 0 1-.203.468.678.678 0 0 1-.087.358c-.008.21.019.422-.04.63v.359c.046.236.101.472.081.716.057.143.085.297.08.45.039.03.096.054.11.093.074.186.137.376.203.565.093.082.117.198.152.308.137.243.281.481.409.728.111.198.262.373.444.513l.233.201c.07.047.141.089.216.126.242.106.478.237.732.297.223.053.467.038.698.027a3.64 3.64 0 0 0 .755-.088c.411-.106.79-.311 1.1-.596 0-.02-.007-.05 0-.057.1-.091.2-.178.301-.266l.18-.25c.01-.143.109-.234.204-.324.052-.049.112-.088.168-.131l.16-.353c.031-.187.106-.365.217-.52.01-.115.02-.225.088-.322.02-.24.04-.482.065-.722a.524.524 0 0 1 .055-.139c-.063-.106-.057-.218-.053-.33Zm-.922 1.937c-.165.279-.35.546-.535.812-.247.358-.612.62-1.034.745-.412.126-.841.207-1.283.165a1.232 1.232 0 0 1-.479-.157c-.147-.081-.285-.178-.425-.272a1.662 1.662 0 0 1-.488-.527 6.79 6.79 0 0 1-.59-1.209 1.502 1.502 0 0 0-.088-.201c-.154-.293-.209-.61-.236-.933-.02-.238-.037-.477-.043-.716-.005-.26.034-.52.117-.766.091-.255.22-.495.382-.712.3-.428.697-.723 1.158-.952.066-.033.123-.083.188-.118.071-.043.147-.08.227-.107a8.3 8.3 0 0 1 .584-.148.757.757 0 0 1 .221-.006.111.111 0 0 1 .07.034c.02.02.03.044.03.07a.58.58 0 0 1 0 .126c-.071.675-.052 1.353-.062 2.031-.007.423.439.609.729.535a.187.187 0 0 0 .102-.105.137.137 0 0 0-.058-.165.406.406 0 0 0-.117-.036c-.247-.063-.363-.179-.385-.427-.017-.197-.01-.396-.01-.594 0-.136.012-.271.008-.407-.012-.337.058-.663.121-.99.015-.08.082-.144.15-.132.292.05.591.048.85.217.33.215.65.435.822.803.025.046.046.093.064.142.12.398.256.792.294 1.21.025.258.08.516.104.773.016.176.002.354.002.531.055.54-.12 1.027-.39 1.485ZM42.512 9.247c-.02-.088-.042-.176-.063-.263a2.076 2.076 0 0 1-.16-.709.154.154 0 0 1-.097-.161.62.62 0 0 1-.144-.334.284.284 0 0 1-.171-.24 1.625 1.625 0 0 1-.355-.459.256.256 0 0 1-.22-.118l-.193-.151-.233-.068-.666-.128-.185-.01-.175.017-.266.066-.66.277c-.135.123-.236.287-.42.353-.146.148-.261.325-.429.454-.03.104-.052.216-.18.254l-.1.146c-.029.09-.035.197-.164.214-.023.18-.11.336-.197.493l-.159.37c-.018.14-.035.279-.12.398-.02.07-.04.14-.058.21l-.015.172-.029.237a4.04 4.04 0 0 0-.006.927l.162.427a.663.663 0 0 1 .065.102c.131.323.33.616.583.86.07.074.135.153.195.236.058.028.113.053.166.084.137.08.264.18.409.238.502.205 1.032.202 1.563.184.01 0 .021-.002.031-.005.24-.082.48-.162.718-.248.2-.071.358-.214.542-.314l.454-.554a.872.872 0 0 1 .195-.374l.193-.6a1.04 1.04 0 0 0 .05-.1c.022-.057.04-.115.059-.172l.04-.263.046-.255.008-.364v-.334c.004-.067.012-.135.01-.202a4.74 4.74 0 0 0-.024-.293Zm-.483.975a3.868 3.868 0 0 1-.17.79c-.081.224-.175.445-.262.667 0 0-.005.003-.011.017-.025.038-.085.12-.098.138-.285.385-.622.71-1.085.883a1.775 1.775 0 0 1-.428.111c-.622.063-1.208-.021-1.699-.446-.087-.076-.18-.147-.263-.23a1.196 1.196 0 0 1-.21-.233 2.777 2.777 0 0 1-.35-1.025c-.076-.507.104-.96.251-1.422.045-.139.098-.275.16-.407.124-.297.28-.58.463-.845.21-.286.456-.545.73-.771.18-.162.394-.282.627-.35.092-.025.186-.037.281-.037.185 0 .23.05.2.229-.068.41-.167.815-.295 1.212-.059.178-.111.356-.098.548a.438.438 0 0 0 .17.302.455.455 0 0 0 .339.091.09.09 0 0 0 .055-.062c.008-.04 0-.08-.023-.114a.467.467 0 0 0-.143-.06c-.183-.069-.233-.15-.18-.333.082-.3.175-.598.251-.9.046-.18.07-.368.098-.552.047-.312.1-.268.324-.203.143.041.28.1.409.172.205.111.372.28.48.485.23.445.394.921.485 1.413.047.308.044.622-.008.93v.002Z" fill="#85331F"/><path d="M16.186 8.145a.77.77 0 0 0-.447-.086.966.966 0 0 0-.607.172c-.175.135-.148.36.052.454.096.047.204.061.31.041.144-.025.287-.062.425-.111.107-.044.208-.102.299-.172.124-.09.105-.218-.032-.298ZM18.831 8.17c-.189-.016-.38 0-.564.045a.466.466 0 0 0-.248.182c-.101.137-.068.252.085.328.123.057.248.02.398.022.087-.001.173-.006.258-.017a.804.804 0 0 0 .238-.071.232.232 0 0 0 .12-.173.227.227 0 0 0-.072-.196.314.314 0 0 0-.215-.12ZM41.395 8.565c-.256-.164-.518-.148-.782-.02a.087.087 0 0 0-.053.052c-.005.013-.006.026-.005.038a.084.084 0 0 0 .013.037.264.264 0 0 0 .1.137c.048.033.106.05.165.049.043 0 .085.004.142.007.07 0 .139-.004.207-.013a.77.77 0 0 0 .207-.073.135.135 0 0 0 .042-.046.132.132 0 0 0-.036-.168ZM39.439 8.443c-.15-.11-.328-.138-.552-.15l-.148.014a.113.113 0 0 0-.073.024.11.11 0 0 0-.04.066.117.117 0 0 0 .053.136c.234.115.478.172.738.11.036-.008.091-.05.09-.073a.194.194 0 0 0-.068-.127ZM9.581 71.501v4.391h-.97v-4.39h-.963v-.744h2.902v.741l-.969.002ZM12.985 70.758h1.008l-.98 3.964c-.274 1.127-.666 1.17-1.177 1.17h-.222v-.808h.15c.318 0 .422-.087.473-.356l-1.315-3.97h1.013l.666 2.633.384-2.633ZM16.493 70.758c.874 0 .889.61.889 1.156v.676c0 .887-.141 1.162-1.037 1.162h-.813v2.138h-.97v-5.132h1.931Zm-.962 2.26h.489c.384 0 .414-.138.414-.458v-.538c0-.342-.03-.509-.414-.509h-.489v1.505ZM19.115 71.552v1.272h.97c.873 0 .888.611.888 1.156v.75c0 .886-.14 1.162-1.037 1.162h-1.784v-5.134h2.562v.792l-1.599.002Zm0 3.606h.496c.385 0 .414-.138.414-.458v-.61c0-.342-.03-.51-.414-.51h-.496v1.578ZM23.614 75.892l-.126-.836H22.6l-.141.836h-.963l1.015-5.134h1.103l.977 5.132-.977.002Zm-.548-3.831-.348 2.203h.666l-.318-2.203ZM25.063 72.502v-.828c0-.698.57-1.026 1.391-1.026 1.044 0 1.459.444 1.459 1.244v.363c0 .517-.141.858-.623.938.608.109.623.538.623 1.083v.64c0 1.018-1.044 1.083-1.421 1.083-1.067 0-1.43-.508-1.43-1.185v-.85h.948v.666c0 .393.037.633.466.633.4 0 .474-.248.474-.582v-.436c0-.392-.044-.645-.422-.645h-.777v-.764h.688c.341 0 .511-.094.511-.53v-.371c0-.335-.074-.56-.444-.56-.43 0-.496.211-.496.604v.523h-.948ZM30.563 75.892l-.124-.836h-.89l-.14.836h-.964l1.014-5.134h1.104l.977 5.132-.977.002Zm-.548-3.831-.348 2.203h.666l-.318-2.203ZM35.516 75.892v-2.348h-.881v2.348h-.963v-5.134h.963v2.014h.88v-2.014h.963v5.132l-.962.002ZM39.234 75.892l-.126-.836h-.888l-.14.836h-.963l1.013-5.134h1.104l.978 5.132-.978.002Zm-.547-3.831-.349 2.203h.667l-.318-2.203ZM44.164 75.892l-.126-.836h-.888l-.141.836h-.962l1.014-5.134h1.103l.978 5.132-.978.002Zm-.547-3.831-.349 2.203h.667l-.319-2.203ZM48.621 75.892h-.962v-4.36h-.637v3.025c0 1.06-.489 1.337-1.25 1.337h-.229v-.81h.082c.377 0 .436-.21.436-.69v-3.636h2.565l-.005 5.134ZM51.135 71.501v4.391h-.97v-4.39h-.962v-.744h2.902v.741l-.97.002ZM54.177 75.892l-.126-.836h-.89l-.14.836h-.962l1.014-5.134h1.104l.977 5.132-.977.002Zm-.548-3.831-.348 2.203h.666l-.318-2.203ZM55.79 75.892v-5.134h2.532v.775h-1.57v1.206h1.48v.776h-1.48v1.577h1.644v.793l-2.607.007Z" fill="#85331F"/><path d="M7.75 59.86h2.02l1.998 2.887 1.986-2.886h2.019v7.519h-2.444v-2.705l-1.561 2.254-1.572-2.254v2.705H7.75v-7.52Zm1.447 6.616v-5.174l2.57 3.675 2.559-3.675v5.174h.298v-5.714h-.298l-2.56 3.707-2.57-3.707h-.298v5.714h.299ZM16.348 63.625a3.769 3.769 0 0 1 .315-1.533 3.981 3.981 0 0 1 2.14-2.102 4.09 4.09 0 0 1 3.123 0 3.981 3.981 0 0 1 2.14 2.102 3.887 3.887 0 0 1 0 3.066 3.985 3.985 0 0 1-2.14 2.102 4.08 4.08 0 0 1-3.122 0 3.985 3.985 0 0 1-2.14-2.102 3.768 3.768 0 0 1-.316-1.533Zm1.078 0c-.002.385.076.767.23 1.121.3.694.861 1.245 1.567 1.54a3 3 0 0 0 2.284 0 2.933 2.933 0 0 0 1.565-1.536 2.853 2.853 0 0 0 0-2.244 2.935 2.935 0 0 0-2.709-1.763 2.935 2.935 0 0 0-2.709 1.763c-.153.354-.23.734-.228 1.119Zm2.939 2.593a2.604 2.604 0 0 1-1.027-.203 2.666 2.666 0 0 1-1.407-1.382 2.565 2.565 0 0 1 0-2.017 2.668 2.668 0 0 1 1.407-1.38 2.692 2.692 0 0 1 2.054 0 2.66 2.66 0 0 1 1.407 1.383 2.566 2.566 0 0 1 0 2.017 2.66 2.66 0 0 1-1.407 1.382 2.603 2.603 0 0 1-1.027.2Zm-1.607-2.593c-.002.211.041.42.126.615a1.6 1.6 0 0 0 1.48.963 1.601 1.601 0 0 0 1.48-.963 1.56 1.56 0 0 0 0-1.227 1.601 1.601 0 0 0-1.48-.964 1.6 1.6 0 0 0-1.48.963 1.511 1.511 0 0 0-.126.613ZM29.019 62.204h-.448c0 .955-.057 1.766-.172 2.435-.114.668-.296 1.215-.545 1.64-.249.425-.566.733-.953.924-.386.191-.851.287-1.397.287-.18 0-.36-.009-.54-.028a7.396 7.396 0 0 1-.585-.084v-1.961a2.105 2.105 0 0 0 .264.022c.214.004.425-.05.609-.158.175-.105.322-.306.442-.603.119-.297.21-.71.275-1.24.073-.683.105-1.37.097-2.057 0-.226-.003-.464-.01-.715a31.506 31.506 0 0 0-.036-.807h5.59v7.52h-2.591v-5.175Zm-3.834 4.272h.253c.29 0 .571-.09.804-.258.244-.173.457-.468.637-.885.18-.418.322-.974.425-1.669.103-.695.155-1.565.155-2.61h2.709v5.425h.298v-5.714h-3.294c.007.105.01.217.01.338v.338c.009.736-.035 1.473-.13 2.203-.088.606-.209 1.098-.362 1.477-.154.38-.34.656-.557.829a1.111 1.111 0 0 1-.706.258h-.241v.268ZM32.246 63.625a3.78 3.78 0 0 1 .316-1.533 3.98 3.98 0 0 1 2.14-2.102 4.089 4.089 0 0 1 3.122 0 3.977 3.977 0 0 1 2.142 2.102 3.887 3.887 0 0 1 0 3.066 3.981 3.981 0 0 1-2.142 2.102 4.08 4.08 0 0 1-3.122 0 3.984 3.984 0 0 1-2.14-2.102 3.775 3.775 0 0 1-.316-1.533Zm1.08 0c-.004.386.074.77.229 1.125a2.934 2.934 0 0 0 2.709 1.764 2.935 2.935 0 0 0 2.709-1.764 2.863 2.863 0 0 0 0-2.244 2.934 2.934 0 0 0-2.707-1.766 2.932 2.932 0 0 0-2.709 1.764 2.76 2.76 0 0 0-.232 1.12Zm2.937 2.593a2.603 2.603 0 0 1-1.027-.203 2.663 2.663 0 0 1-1.406-1.382 2.565 2.565 0 0 1 0-2.017 2.664 2.664 0 0 1 1.408-1.38 2.694 2.694 0 0 1 2.055 0 2.662 2.662 0 0 1 1.404 1.383 2.57 2.57 0 0 1 0 2.017 2.664 2.664 0 0 1-1.406 1.382 2.606 2.606 0 0 1-1.028.2Zm-1.606-2.593c-.002.211.041.42.126.615a1.599 1.599 0 0 0 1.48.963 1.604 1.604 0 0 0 1.48-.963 1.56 1.56 0 0 0 0-1.227 1.602 1.602 0 0 0-1.48-.964 1.64 1.64 0 0 0-.625.124c-.385.16-.692.462-.855.84a1.5 1.5 0 0 0-.126.612ZM40.266 65.338h1.644c.154-.099.28-.235.368-.394.126-.232.217-.48.27-.738a8.22 8.22 0 0 0 .166-1.163 24.456 24.456 0 0 0 .046-2.378 34.32 34.32 0 0 0-.034-.806h5.59v5.479h.597v3.765h-2.288v-1.725h-4.19v1.725h-2.17l.001-3.764Zm1.171 2.864v-1.725h6.198v1.725h.299v-1.995h-.769v-5.444h-3.294c.007.105.011.217.011.337v.339c.008.736-.036 1.472-.131 2.203-.088.605-.209 1.098-.362 1.477-.153.38-.339.655-.557.829a1.115 1.115 0 0 1-.705.258h-.987V68.2l.297.001Zm5.43-1.995h-3.915a1.81 1.81 0 0 0 .494-.598c.168-.323.295-.666.378-1.02.12-.49.203-.99.248-1.493.057-.579.085-1.26.085-2.04h2.71v5.15Zm-1.596-4.004c0 1.292-.107 2.325-.321 3.1h.768v-3.1h-.447ZM49.07 63.625a3.78 3.78 0 0 1 .316-1.533 3.977 3.977 0 0 1 2.141-2.102 4.088 4.088 0 0 1 3.122 0 3.976 3.976 0 0 1 2.141 2.102 3.883 3.883 0 0 1 0 3.066 3.982 3.982 0 0 1-2.141 2.102 4.079 4.079 0 0 1-3.122 0 3.981 3.981 0 0 1-2.141-2.102 3.78 3.78 0 0 1-.316-1.533Zm1.08 0c-.003.385.075.767.23 1.121.299.694.86 1.245 1.566 1.54a3 3 0 0 0 2.284 0 2.933 2.933 0 0 0 1.567-1.536 2.856 2.856 0 0 0 0-2.244 2.935 2.935 0 0 0-2.709-1.763 2.935 2.935 0 0 0-2.71 1.764 2.763 2.763 0 0 0-.228 1.118Zm2.938 2.593a2.604 2.604 0 0 1-1.028-.203 2.664 2.664 0 0 1-1.406-1.382 2.57 2.57 0 0 1 0-2.017 2.664 2.664 0 0 1 1.406-1.38 2.696 2.696 0 0 1 2.055 0 2.66 2.66 0 0 1 1.406 1.383 2.57 2.57 0 0 1 0 2.017 2.663 2.663 0 0 1-1.406 1.382 2.606 2.606 0 0 1-1.027.2Zm-1.607-2.593c-.001.211.042.42.127.615.163.378.469.679.854.84a1.637 1.637 0 0 0 1.25 0c.385-.161.691-.462.854-.84a1.56 1.56 0 0 0-.343-1.73 1.645 1.645 0 0 0-.511-.337 1.64 1.64 0 0 0-1.25 0c-.385.16-.691.461-.855.839a1.508 1.508 0 0 0-.126.613ZM57.567 63.625c-.009-.559.1-1.113.321-1.629.203-.468.5-.891.872-1.245.37-.347.807-.617 1.286-.795a4.394 4.394 0 0 1 1.56-.276c.393-.005.784.037 1.166.124.3.07.594.164.878.282.258.107.504.239.734.395l-1.205 2.084a4.142 4.142 0 0 0-.401-.258 3.946 3.946 0 0 0-.465-.175 2.064 2.064 0 0 0-.614-.084 1.673 1.673 0 0 0-1.176.462 1.545 1.545 0 0 0-.477 1.116c-.002.212.043.422.131.614.087.19.209.36.362.502.157.145.34.26.54.338.214.085.444.127.677.124.222.004.444-.027.657-.09.168-.05.33-.118.482-.203.147-.079.283-.177.402-.293l1.206 2.085a3.426 3.426 0 0 1-.735.44c-.287.119-.583.217-.884.293-.387.095-.785.14-1.184.135a4.62 4.62 0 0 1-1.653-.287 3.892 3.892 0 0 1-1.308-.806 3.65 3.65 0 0 1-.861-1.245 4.067 4.067 0 0 1-.311-1.608Zm1.447 0c-.003-.347.06-.69.189-1.014a2.47 2.47 0 0 1 .533-.823c.238-.238.524-.426.838-.552a2.87 2.87 0 0 1 1.103-.204c.178-.001.357.013.533.04.134.022.266.053.394.096.117.032.228.077.333.135l.16-.27a4.619 4.619 0 0 0-.39-.147 4.337 4.337 0 0 0-.447-.1 3.358 3.358 0 0 0-.585-.046 3.12 3.12 0 0 0-1.118.203c-.35.13-.67.329-.941.58-.29.271-.52.598-.675.959-.155.362-.232.75-.228 1.143-.006.41.074.817.236 1.195.15.344.37.653.648.908.28.254.607.452.965.581.374.136.771.205 1.17.203.209.002.416-.017.62-.057a3.74 3.74 0 0 0 .47-.124c.136-.048.267-.108.391-.18l-.16-.27a1.467 1.467 0 0 1-.344.168 2.673 2.673 0 0 1-.977.17 3.02 3.02 0 0 1-1.136-.203 2.416 2.416 0 0 1-1.395-1.376 2.715 2.715 0 0 1-.188-1.015ZM66.142 61.832h-1.411V59.86h5.348v1.973h-1.411v5.546h-2.526v-5.546Zm1.412 4.644V61.03h1.644v-.27h-3.581v.27h1.644v5.445h.293ZM76.552 64.515c0 .516-.092.958-.276 1.324a2.378 2.378 0 0 1-.752.885 3.224 3.224 0 0 1-1.114.496c-.448.109-.909.161-1.371.158h-2.445V59.86h2.445v1.79c.462-.003.923.05 1.371.158.4.094.778.262 1.114.496.32.23.58.534.752.885.183.366.275.809.276 1.327Zm-1.114 0a2.023 2.023 0 0 0-.178-.879 1.606 1.606 0 0 0-.5-.609 2.241 2.241 0 0 0-.763-.355 3.705 3.705 0 0 0-.958-.119h-.999v-1.791h-.298v5.714h1.297a3.7 3.7 0 0 0 .958-.118c.276-.07.535-.19.764-.355.215-.16.386-.369.5-.609.124-.276.184-.577.177-.88Zm-.321 0c.01.28-.05.558-.172.811a1.393 1.393 0 0 1-.46.517c-.2.131-.424.225-.659.277a3.559 3.559 0 0 1-.788.084h-.999v-3.382h.999c.265-.002.53.027.788.085.235.051.458.145.658.276.195.132.354.31.46.517.124.254.183.533.173.815Zm-2.078.834h.103c.321 0 .553-.073.695-.22.142-.147.213-.351.212-.614 0-.263-.07-.468-.212-.614-.141-.147-.373-.22-.695-.22h-.103v1.668Z" fill="#362D36"/></g><defs><clipPath id="a"><path fill="#fff" d="M0 0h81v76H0z"/></clipPath></defs></svg>