<svg width="102" height="74" viewBox="0 0 102 74" fill="none" xmlns="http://www.w3.org/2000/svg"><path d="M42.358 8.46c-1.32-3.534-2.562-4.248-2.187-.495.604 5.949.403 7.159-1.21 8.772-1.913 1.915-2.014 1.915-5.237-1.916-4.13-4.84-5.239-4.84-3.526-.1.705 2.116 1.31 4.536 1.41 5.444 0 .907 1.813 4.436 4.03 7.763 2.216 3.428 3.727 6.251 3.425 6.251-.403 0-2.821-1.815-5.44-4.033-4.533-3.831-17.125-10.385-18.032-9.477-.906.806 6.548 7.662 12.794 11.796 3.425 2.32 6.245 4.537 6.245 4.94 0 1.715-2.014 1.614-7.152-.403-3.929-1.512-7.253-2.016-11.988-1.815-3.626.202-8.461.303-10.879.404H.381l4.33 2.218c5.038 2.621 15.716 5.848 16.521 5.041.303-.202-1.007-.907-2.82-1.512-1.914-.504-2.921-1.008-2.216-1.008.604-.101.906-1.009.604-2.118-.504-1.714 0-2.016 2.62-2.016 3.827 0 13.498 4.738 12.692 6.05-.302.604-2.72 1.108-5.34 1.108l-4.734.202 4.03.605c2.417.403 4.13 1.21 4.331 2.117.202 1.21-1.209 1.512-8.059 1.512-5.238.101-10.577.807-14.405 1.916l-6.044 1.916 4.533.907c2.519.504 8.764 1.21 13.902 1.613l9.368.706-6.145 4.436c-5.339 3.832-13.095 12.603-13.095 14.62 0 1.008 13.7-6.15 18.938-9.881 4.03-2.823 4.432-2.924 5.339-1.31 1.712 3.024 6.246 6.654 9.066 7.259 3.526.806 10.175-1.009 12.29-3.328 1.511-1.613 2.518-1.714 9.872-.806 5.944.706 10.88.605 17.931-.403 10.779-1.412 15.816-2.824 10.678-2.924-1.612-.101-6.648-.807-11.08-1.714-4.433-.807-11.082-1.513-14.81-1.513-3.827 0-6.85-.403-6.85-.806 0-.404 3.728-1.21 8.362-1.916 8.865-1.109 16.722-3.428 25.889-7.662l5.541-2.521H89.027c-7.655-.101-14.908.504-18.636 1.411-7.555 1.815-7.555 1.815-7.555 0 0-.806.605-1.512 1.41-1.512 3.526 0 20.047-10.082 28.207-17.24 1.208-1.009-10.98 2.721-22.565 7.057-8.664 3.226-8.764 3.025-.705-2.622 4.23-2.923 14.606-14.417 17.024-18.753 1.31-2.52-6.346 1.916-15.01 8.57-3.425 2.622-6.447 4.84-6.749 4.84-.504 0 3.022-9.276 5.138-13.51 1.51-3.025 1.51-3.025-2.72.907-2.317 2.218-6.044 6.654-8.26 9.88-2.318 3.126-4.332 5.647-4.433 5.445-.202-.202.1-1.916.604-3.831.706-2.218.706-6.15 0-11.494-.503-4.436-1.007-8.167-1.007-8.369 0-.201-.403-.1-.907.202-1.51 1.008-3.223 9.074-3.525 16.535-.303 8.47-1.612 11.09-1.612 3.126 0-3.428-1.007-7.663-2.518-11.494-1.41-3.327-2.519-6.15-2.519-6.15-.093-.302-.208-.588-.331-.918Zm11.11 16.242c-.806 8.267-2.72 9.477-2.72 1.815 0-6.05.403-7.461 2.317-7.461.604 0 .705 2.319.403 5.646Zm-16.219-1.916c1.914 2.622 4.03 8.368 3.023 8.368-.907 0-6.65-8.469-6.65-9.78 0-2.117 1.512-1.512 3.627 1.412Zm9.47 3.529c0 2.117-.403 3.831-.806 3.831-1.41 0-3.325-4.84-2.216-5.545.604-.403 1.007-1.613 1.007-2.823 0-1.815.201-1.916 1.007-.706.504.807 1.008 3.227 1.008 5.243Zm29.213-2.218c0 3.428-14.204 14.418-16.218 12.401-1.109-1.109 6.044-8.267 11.181-11.191 4.03-2.42 5.037-2.622 5.037-1.21Zm-12.088 1.31c0 .505-1.41 2.723-3.123 4.94-2.216 2.723-3.526 3.63-4.231 2.925-1.31-1.31 3.526-8.873 5.742-8.873.907 0 1.612.504 1.612 1.009ZM32.112 30.55c2.82 2.42 4.835 4.637 4.533 4.94-.907.907-12.088-6.453-12.088-7.965 0-2.42 2.317-1.512 7.555 3.025Zm12.29.907c-.605 2.016-2.317.504-2.922-2.52l-.604-3.227 1.914 2.42c1.007 1.411 1.712 2.924 1.612 3.327Zm12.995 6.352c.906 1.31 2.014 5.444 2.619 9.175 1.007 6.553.906 7.158-1.612 12.099-4.03 7.965-10.577 11.09-16.722 7.864-3.627-1.815-7.656-9.478-8.663-16.233C31.91 43.354 38.86 34.18 45.61 34.18c1.913 0 2.115.504 2.115 6.453 0 4.84.403 6.553 1.51 7.058.807.302 1.512.1 1.512-.404 0-.605-.403-1.008-1.007-1.008-1.008 0-1.41-11.292-.403-12.401 1.108-1.009 6.547 1.512 8.059 3.932Zm18.938-.807c.201.404.201 1.311-.202 1.916-.906 1.31-7.958 4.84-11.483 5.747-2.418.504-2.821.302-2.821-1.412 0-3.226 12.894-8.771 14.506-6.25Zm5.037 12.2c1.007 1.109 1.51 2.42 1.209 2.924-.907 1.411-8.966 3.226-14.607 3.226-4.433 0-5.138-.302-5.138-1.915 0-2.32 6.951-4.94 15.715-6.05.605 0 1.914.807 2.82 1.815ZM26.47 48.9c1.712.403 3.626 1.512 4.23 2.52.907 1.815.504 1.916-6.648 1.916-6.649 0-7.555-.202-7.555-1.815 0-1.008.302-2.218.705-2.52.806-.908 5.137-.908 9.268-.101Zm6.145 9.174c-.101 2.32-8.563 8.772-10.578 7.966-2.72-1.009-1.611-3.328 3.325-6.554 5.44-3.529 7.253-3.932 7.253-1.412Zm43.719 2.924c1.31.504 1.31.807-.302 2.622-1.914 2.016-4.534 2.016-14.607.1-2.82-.504-2.921-.604-1.108-1.915 1.914-1.412 12.995-2.017 16.017-.807Z" fill="#362D36"/><path d="M38.965 42.953c-2.418.907-1.31 2.42 1.511 2.117 1.511-.202 2.62-.807 2.518-1.31-.201-1.21-2.316-1.614-4.029-.807ZM52.763 44.764c0 1.613.906 1.915 3.425.907 2.518-.907 1.914-2.42-.907-2.42-1.612 0-2.518.605-2.518 1.513ZM55.578 57.97c-.906.908-4.23 2.017-7.555 2.521l-5.842.807 6.447-.403c4.03-.202 6.95-.908 7.958-1.916.907-.907 1.41-1.815 1.108-2.117-.302-.202-1.209.302-2.116 1.109Z" fill="#362D36"/></svg>