<svg width="17" height="16" viewBox="0 0 17 16" fill="none" xmlns="http://www.w3.org/2000/svg"><path d="M12.377 8.434v2.467c0 2.08-1.94 3.766-4.334 3.766-2.393 0-4.333-1.686-4.333-3.766V8.434c0 2.08 1.94 3.567 4.333 3.567 2.394 0 4.334-1.487 4.334-3.567Z" stroke="#7A8C6D" stroke-width="1.5" stroke-linecap="round" stroke-linejoin="round"/><path d="M12.377 5.1c0 .607-.167 1.167-.46 1.647-.714 1.173-2.18 1.92-3.874 1.92-1.693 0-3.16-.747-3.873-1.92A3.136 3.136 0 0 1 3.71 5.1c0-1.04.487-1.98 1.267-2.66.786-.687 1.866-1.107 3.066-1.107 1.2 0 2.28.42 3.067 1.1.78.687 1.267 1.627 1.267 2.667Z" stroke="#7A8C6D" stroke-width="1.5" stroke-linecap="round" stroke-linejoin="round"/><path d="M12.377 5.1v3.333c0 2.08-1.94 3.567-4.334 3.567C5.65 12 3.71 10.513 3.71 8.433V5.1c0-2.08 1.94-3.767 4.333-3.767 1.2 0 2.28.42 3.067 1.1.78.687 1.267 1.627 1.267 2.667Z" stroke="#7A8C6D" stroke-width="1.5" stroke-linecap="round" stroke-linejoin="round"/></svg>