<svg width="32" height="33" viewBox="0 0 32 33" fill="none" xmlns="http://www.w3.org/2000/svg"><path d="M15.992 3.166a13.333 13.333 0 1 0 0 26.667 13.333 13.333 0 0 0 0-26.667Zm4.239 20.203a.942.942 0 0 1-1.336.469l-3.62-2.813-2.323 2.144a.4.4 0 0 1-.38.052l.446-3.985.014.011.009-.078s6.513-5.93 6.779-6.183c.268-.252.18-.307.18-.307.015-.307-.482 0-.482 0l-8.63 5.552-3.594-1.224s-.552-.198-.604-.633c-.055-.432.622-.667.622-.667L21.6 10.031s1.175-.524 1.175.343L20.23 23.369Z" fill="#7A8C6D"/></svg>