<svg width="33" height="33" viewBox="0 0 33 33" fill="none" xmlns="http://www.w3.org/2000/svg"><path d="M30.119 15.713a13.34 13.34 0 0 0-15.573-12.36c-5.574.92-10.04 5.44-10.907 11.014-.507 3.226.16 6.28 1.613 8.8L4.066 27.58c-.267 1 .653 1.907 1.64 1.627l4.346-1.2a13.272 13.272 0 0 0 6.747 1.826c7.52 0 13.76-6.626 13.32-14.12Zm-6.8 5.747c-.12.24-.267.467-.453.68-.334.36-.694.627-1.094.787-.4.173-.84.253-1.306.253-.68 0-1.414-.16-2.174-.493A12.21 12.21 0 0 1 16 21.367a19.276 19.276 0 0 1-2.187-1.867 19.07 19.07 0 0 1-1.867-2.187c-.546-.76-.986-1.52-1.306-2.28-.32-.76-.48-1.493-.48-2.186 0-.454.08-.894.24-1.294.16-.413.413-.786.773-1.12.427-.426.894-.626 1.387-.626.187 0 .373.04.546.12.174.08.334.2.454.373l1.546 2.187c.12.173.214.32.267.466.067.147.094.28.094.414 0 .16-.054.32-.147.48-.093.16-.214.32-.374.48l-.506.533a.342.342 0 0 0-.107.267c0 .053.013.106.027.16.027.053.04.093.053.133.12.227.334.507.627.853a17.951 17.951 0 0 0 2.04 2.04c.347.294.64.494.866.614.04.013.08.04.12.053a.365.365 0 0 0 .174.027c.12 0 .2-.04.28-.12l.507-.507c.173-.173.333-.293.48-.373a.919.919 0 0 1 .48-.147c.133 0 .266.027.413.093.147.067.307.147.467.267l2.213 1.573c.173.12.293.267.373.427.067.173.107.333.107.52-.08.227-.133.48-.24.72Z" fill="#7A8C6D"/></svg>