<svg width="67" height="54" viewBox="0 0 67 54" fill="none" xmlns="http://www.w3.org/2000/svg"><g clip-path="url(#a)"><path d="M65.8 53.745H1.16c-.62 0-1.12-.5-1.12-1.12 0-.62.5-1.12 1.12-1.12H65.8c.62 0 1.12.5 1.12 1.12 0 .62-.5 1.12-1.12 1.12Z" fill="#EFE0D5"/><path d="M36.87 45.765c5.8 0 10.5-4.7 10.5-10.5s-4.7-10.5-10.5-10.5-10.5 4.7-10.5 10.5 4.7 10.5 10.5 10.5Z" fill="#7A8C6D"/><path d="M36.87 53.716c-.62 0-1.12-.5-1.12-1.12v-6.84c0-.62.5-1.12 1.12-1.12.62 0 1.12.5 1.12 1.12v6.84c0 .62-.5 1.12-1.12 1.12Z" fill="#EFE0D5"/><path d="M36.87 25.875c-5.17 0-9.38 4.21-9.38 9.38 0 5.17 4.21 9.38 9.38 9.38 5.17 0 9.38-4.21 9.38-9.38 0-5.17-4.21-9.38-9.38-9.38Zm0 21c-6.41 0-11.62-5.21-11.62-11.61 0-6.4 5.21-11.61 11.62-11.61 6.41 0 11.61 5.21 11.61 11.61 0 6.4-5.21 11.61-11.61 11.61Z" fill="#EFE0D5"/><path d="M49.3 28.855c6.74 0 12.21-5.47 12.21-12.21 0-6.74-5.47-12.21-12.21-12.21-6.74 0-12.21 5.47-12.21 12.21 0 6.74 5.47 12.21 12.21 12.21Z" fill="#7A8C6D"/><path d="M49.31 53.714c-.62 0-1.12-.5-1.12-1.12v-37.69c0-.62.5-1.12 1.12-1.12.62 0 1.12.5 1.12 1.12v37.7c0 .62-.5 1.12-1.12 1.12" fill="#EFE0D5"/><path d="M49.31 5.555c-6.12 0-11.1 4.98-11.1 11.09 0 6.11 4.98 11.09 11.1 11.09 6.12 0 11.09-4.98 11.09-11.09 0-6.11-4.98-11.09-11.09-11.09Zm0 24.42c-7.35 0-13.33-5.98-13.33-13.33s5.98-13.33 13.33-13.33 13.33 5.98 13.33 13.33-5.98 13.33-13.33 13.33Z" fill="#EFE0D5"/><path d="M55.34 45.765c5.8 0 10.5-4.7 10.5-10.5s-4.7-10.5-10.5-10.5-10.5 4.7-10.5 10.5 4.7 10.5 10.5 10.5Z" fill="#7A8C6D"/><path d="M55.34 53.716c-.62 0-1.12-.5-1.12-1.12v-18.84c0-.62.5-1.12 1.12-1.12.62 0 1.12.5 1.12 1.12v18.84c0 .62-.5 1.12-1.12 1.12Z" fill="#EFE0D5"/><path d="M55.34 41.935c-.29 0-.57-.11-.79-.33l-2.01-2.01a1.11 1.11 0 0 1 0-1.58 1.11 1.11 0 0 1 1.58 0l2.01 2.01c.44.44.44 1.14 0 1.58-.22.22-.5.33-.79.33Z" fill="#EFE0D5"/><path d="M55.34 39.636c-.29 0-.57-.11-.79-.33a1.11 1.11 0 0 1 0-1.58l2.01-2.01a1.11 1.11 0 0 1 1.58 0c.44.44.44 1.14 0 1.58l-2.01 2.01c-.22.22-.5.33-.79.33Z" fill="#EFE0D5"/><path d="M55.34 25.875c-5.17 0-9.38 4.21-9.38 9.38 0 5.17 4.21 9.38 9.38 9.38 5.17 0 9.38-4.21 9.38-9.38 0-5.17-4.21-9.38-9.38-9.38Zm0 21c-6.41 0-11.62-5.21-11.62-11.61 0-6.4 5.21-11.61 11.62-11.61 6.41 0 11.61 5.21 11.61 11.61 0 6.4-5.21 11.62-11.61 11.62" fill="#EFE0D5"/><path d="M25.98 30.006c0 8.87-3.2 10.32-7.15 10.32s-7.15-1.45-7.15-10.32c0-8.87 3.2-27.37 7.15-27.37s7.15 18.5 7.15 27.37Z" fill="#7A8C6D"/><path d="M18.83 53.715c-.62 0-1.12-.5-1.12-1.12v-21c0-.61.5-1.11 1.12-1.11.62 0 1.12.5 1.12 1.11v21c0 .62-.5 1.12-1.12 1.12Z" fill="#EFE0D5"/><path d="M18.83 3.745c-2.19 0-6.04 15.18-6.04 26.26 0 8.49 2.98 9.2 6.04 9.2s6.04-.71 6.04-9.2c0-11.08-3.85-26.26-6.04-26.26Zm0 37.69c-5.8 0-8.27-3.42-8.27-11.44 0-6.64 2.58-28.49 8.27-28.49 5.69 0 8.27 21.85 8.27 28.49 0 8.02-2.47 11.44-8.27 11.44Z" fill="#EFE0D5"/><path d="M11.62 45.765c5.8 0 10.5-4.7 10.5-10.5s-4.7-10.5-10.5-10.5-10.5 4.7-10.5 10.5 4.7 10.5 10.5 10.5Z" fill="#7A8C6D"/><path d="M11.62 53.716c-.62 0-1.12-.5-1.12-1.12v-18.84c0-.62.5-1.12 1.12-1.12.62 0 1.12.5 1.12 1.12v18.84c0 .62-.5 1.12-1.12 1.12Z" fill="#EFE0D5"/><path d="M11.62 41.935c-.29 0-.57-.11-.79-.33a1.11 1.11 0 0 1 0-1.58l2.01-2.01a1.11 1.11 0 0 1 1.58 0c.44.44.44 1.14 0 1.58l-2.01 2.01c-.22.22-.5.33-.79.33Z" fill="#EFE0D5"/><path d="M11.62 39.636c-.29 0-.57-.11-.79-.33l-2.01-2.01a1.11 1.11 0 0 1 0-1.58 1.11 1.11 0 0 1 1.58 0l2.01 2.01c.44.44.44 1.14 0 1.58-.22.22-.5.33-.79.33Z" fill="#EFE0D5"/><path d="M11.62 25.875c-5.17 0-9.38 4.21-9.38 9.38 0 5.17 4.21 9.38 9.38 9.38 5.17 0 9.38-4.21 9.38-9.38 0-5.17-4.21-9.38-9.38-9.38Zm0 21C5.21 46.876 0 41.666 0 35.266c0-6.4 5.21-11.62 11.62-11.62 6.41 0 11.61 5.21 11.61 11.62 0 6.41-5.21 11.61-11.61 11.61Z" fill="#EFE0D5"/><path d="M28.3 4.364c-4.01 4.9-9.25 16.47-9.25 27.08 0 5.11 4.14 9.25 9.25 9.25s9.25-4.14 9.25-9.25c0-10.61-5.24-22.18-9.25-27.08Z" fill="#7A8C6D"/><path d="M28.3 53.716c-.62 0-1.12-.5-1.12-1.12v-28.75c0-.62.5-1.12 1.12-1.12.62 0 1.12.5 1.12 1.12v28.76c0 .62-.5 1.12-1.12 1.12" fill="#EFE0D5"/><path d="M28.3 37.186c-.29 0-.57-.11-.79-.33l-3.48-3.48a1.11 1.11 0 0 1 0-1.58 1.11 1.11 0 0 1 1.58 0l3.48 3.48c.44.44.44 1.14 0 1.58-.22.22-.5.33-.79.33ZM28.3 33.205c-.29 0-.57-.11-.79-.33a1.11 1.11 0 0 1 0-1.58l3.48-3.48a1.11 1.11 0 0 1 1.58 0c.44.44.44 1.14 0 1.58l-3.48 3.48c-.22.22-.5.33-.79.33Z" fill="#EFE0D5"/><path d="M28.3 6.215c-3.63 5.11-8.13 15.42-8.13 25.24 0 4.48 3.65 8.13 8.13 8.13s8.13-3.65 8.13-8.13c0-9.81-4.5-20.13-8.13-25.24Zm0 35.6c-5.72 0-10.37-4.65-10.37-10.37 0-11.16 5.56-22.97 9.5-27.79.21-.26.53-.41.86-.41.33 0 .65.15.86.41 3.94 4.82 9.5 16.63 9.5 27.79 0 5.72-4.65 10.37-10.36 10.37" fill="#EFE0D5"/><path d="M43.5 39.954c-4.57 0-8.27-3.7-8.27-8.27V9.644c0-4.57 3.71-8.27 8.27-8.27s8.27 3.7 8.27 8.27v22.04c0 4.57-3.7 8.27-8.27 8.27Z" fill="#7A8C6D"/><path d="M43.5 53.715c-.62 0-1.12-.5-1.12-1.12v-32.89c0-.62.5-1.12 1.12-1.12.62 0 1.12.5 1.12 1.12v32.9c0 .62-.5 1.12-1.12 1.12" fill="#EFE0D5"/><path d="M43.5 33.804c-.29 0-.57-.11-.79-.33a1.11 1.11 0 0 1 0-1.58l3.69-3.69a1.11 1.11 0 0 1 1.58 0c.44.44.44 1.14 0 1.58l-3.69 3.69c-.22.22-.5.33-.79.33ZM43.5 29.576c-.29 0-.57-.11-.79-.33l-3.69-3.69a1.11 1.11 0 0 1 0-1.58 1.11 1.11 0 0 1 1.58 0l3.69 3.69c.44.44.44 1.14 0 1.58-.22.22-.5.33-.79.33Z" fill="#EFE0D5"/><path d="M43.5 2.485c-3.95 0-7.16 3.21-7.16 7.16v22.04c0 3.95 3.21 7.16 7.16 7.16s7.16-3.21 7.16-7.16V9.645c0-3.95-3.21-7.16-7.16-7.16Zm0 38.59c-5.18 0-9.39-4.21-9.39-9.39V9.645c0-5.18 4.21-9.39 9.39-9.39 5.18 0 9.39 4.21 9.39 9.39v22.04c0 5.18-4.21 9.39-9.39 9.39Z" fill="#EFE0D5"/></g><defs><clipPath id="a"><path fill="#fff" transform="translate(0 .255)" d="M0 0h66.96v53.49H0z"/></clipPath></defs></svg>